<svg id="Capa_1" enable-background="new 0 0 512 512" fill="#c1272d" height="56" viewBox="0 0 512 512" width="56" xmlns="http://www.w3.org/2000/svg"><g><path d="m90.38 321.46c0 22.01 17.9 39.92 39.91 39.92h167.451l-120.5-120.5h-86.861z"/><path d="m90.38 210.88h56.86l-46.799-46.799c-6.253 7.05-10.061 16.316-10.061 26.459z"/><path d="m421.62 240.88h-117.101l107.04 107.04c6.253-7.05 10.061-16.316 10.061-26.459z"/><path d="m421.62 190.54c0-22.01-17.9-39.92-39.91-39.92h-167.451l60.26 60.26h147.101z"/><path d="m437.02 74.98c-48.353-48.351-112.64-74.98-181.02-74.98s-132.667 26.629-181.02 74.98c-48.351 48.353-74.98 112.64-74.98 181.02s26.629 132.667 74.98 181.02c48.353 48.351 112.64 74.98 181.02 74.98s132.667-26.629 181.02-74.98c48.351-48.353 74.98-112.64 74.98-181.02s-26.629-132.667-74.98-181.02zm-181.02 407.02c-124.617 0-226-101.383-226-226 0-56.922 21.162-108.989 56.02-148.768l318.748 318.748c-39.779 34.858-91.846 56.02-148.768 56.02zm169.98-77.232-318.748-318.748c39.779-34.858 91.846-56.02 148.768-56.02 124.617 0 226 101.383 226 226 0 56.922-21.162 108.989-56.02 148.768z"/></g></svg>