<svg width="290" height="188" viewBox="0 0 290 188" fill="none" xmlns="http://www.w3.org/2000/svg">
<g filter="url(#filter0_d)">
<rect x="24" y="18" width="242" height="140" rx="12" fill="white"/>
</g>
<g clip-path="url(#clip0)">
<rect x="24" y="18" width="242" height="140" rx="12" fill="url(#paint0_linear)"/>
<path fill-rule="evenodd" clip-rule="evenodd" d="M174.122 109.163C178.583 103.043 181 95.6788 181 87.9982C181 68.1026 164.899 52 145 52C125.103 52 109 68.1004 109 87.9982C109 95.6766 111.416 103.038 115.874 109.157C130.236 89.4017 159.74 89.3842 174.122 109.163ZM132.344 73.2332C132.344 66.2553 138.021 60.5776 145 60.5776C151.978 60.5776 157.656 66.2553 157.656 73.2332V77.452C157.656 84.4305 151.978 90.1076 145 90.1076C138.021 90.1076 132.344 84.4305 132.344 77.452V73.2332ZM145 85.8891C149.653 85.8891 153.437 82.1043 153.437 77.4521V73.2334C153.437 68.5813 149.653 64.7965 145 64.7965C140.347 64.7965 136.563 68.5813 136.563 73.2334V77.4521C136.563 82.1043 140.347 85.8891 145 85.8891ZM118.669 112.543C132.913 127.815 157.083 127.827 171.34 112.533C158.772 93.8585 131.305 93.9437 118.669 112.543Z" fill="white"/>
<path opacity="0.1" d="M492.615 270.204C446.113 399.615 303.507 466.826 174.096 420.324C44.6851 373.822 206.572 289.041 253.074 159.63C299.576 30.2194 213.084 -94.8169 342.495 -48.3149C471.906 -1.81286 539.117 140.793 492.615 270.204Z" fill="url(#paint1_linear)"/>
<path opacity="0.1" d="M149.396 -77.4985C231.662 -30.0024 259.848 75.1903 212.352 157.456C164.856 239.722 127.093 119.265 44.8272 71.769C-37.4384 24.2729 -133.054 67.723 -85.558 -14.5427C-38.0619 -96.8083 67.1308 -124.995 149.396 -77.4985Z" fill="white"/>
</g>
<defs>
<filter id="filter0_d" x="0" y="0" width="290" height="188" filterUnits="userSpaceOnUse" color-interpolation-filters="sRGB">
<feFlood flood-opacity="0" result="BackgroundImageFix"/>
<feColorMatrix in="SourceAlpha" type="matrix" values="0 0 0 0 0 0 0 0 0 0 0 0 0 0 0 0 0 0 127 0"/>
<feOffset dy="6"/>
<feGaussianBlur stdDeviation="12"/>
<feColorMatrix type="matrix" values="0 0 0 0 0.392157 0 0 0 0 0.686275 0 0 0 0 1 0 0 0 0.4 0"/>
<feBlend mode="normal" in2="BackgroundImageFix" result="effect1_dropShadow"/>
<feBlend mode="normal" in="SourceGraphic" in2="effect1_dropShadow" result="shape"/>
</filter>
<linearGradient id="paint0_linear" x1="24" y1="18" x2="58.1102" y2="176.678" gradientUnits="userSpaceOnUse">
<stop stop-color="#64AFFF"/>
<stop offset="1" stop-color="#2F88E7"/>
</linearGradient>
<linearGradient id="paint1_linear" x1="342.495" y1="-48.3149" x2="174.096" y2="420.324" gradientUnits="userSpaceOnUse">
<stop stop-color="white"/>
<stop offset="1" stop-color="white" stop-opacity="0"/>
</linearGradient>
<clipPath id="clip0">
<rect x="24" y="18" width="242" height="140" rx="12" fill="white"/>
</clipPath>
</defs>
</svg>
