<svg width="35" height="41" viewBox="0 0 35 41" fill="none" xmlns="http://www.w3.org/2000/svg">
<path d="M33.32 31.6726C32.7151 33.0701 31.999 34.3565 31.1694 35.5392C30.0386 37.1515 29.1127 38.2675 28.3991 38.8872C27.293 39.9045 26.1079 40.4255 24.8388 40.4551C23.9277 40.4551 22.829 40.1958 21.55 39.6699C20.2668 39.1465 19.0876 38.8872 18.0094 38.8872C16.8785 38.8872 15.6657 39.1465 14.3685 39.6699C13.0693 40.1958 12.0226 40.4699 11.2224 40.4971C10.0054 40.5489 8.79236 40.0131 7.58154 38.8872C6.80872 38.2132 5.84209 37.0577 4.6841 35.4207C3.44167 33.6726 2.42022 31.6455 1.62 29.3344C0.76299 26.8382 0.333374 24.421 0.333374 22.0808C0.333374 19.4002 0.912615 17.0881 2.07282 15.1507C2.98465 13.5944 4.19769 12.3668 5.71592 11.4656C7.23414 10.5644 8.87458 10.1051 10.6412 10.0758C11.6078 10.0758 12.8754 10.3748 14.4507 10.9624C16.0215 11.552 17.0301 11.851 17.4723 11.851C17.8029 11.851 18.9234 11.5014 20.8228 10.8044C22.6191 10.158 24.1351 9.89034 25.377 9.99576C28.7423 10.2674 31.2707 11.594 32.9521 13.984C29.9423 15.8077 28.4535 18.3619 28.4831 21.6386C28.5103 24.1909 29.4361 26.3148 31.2558 28.0011C32.0805 28.7838 33.0015 29.3888 34.0261 29.8184C33.8039 30.4628 33.5694 31.0801 33.32 31.6726ZM25.6017 1.30072C25.6017 3.30117 24.8709 5.16899 23.4141 6.89783C21.6561 8.95308 19.5298 10.1407 17.2239 9.9533C17.1946 9.7133 17.1775 9.46072 17.1775 9.19529C17.1775 7.27486 18.0135 5.21961 19.4982 3.53917C20.2394 2.68833 21.1821 1.98087 22.3253 1.41651C23.466 0.86058 24.5449 0.553137 25.5597 0.500488C25.5894 0.767918 25.6017 1.03536 25.6017 1.30069V1.30072Z" fill="#0068E1"/>
</svg>
