<svg width="512" height="512" viewBox="0 0 512 512" fill="none" xmlns="http://www.w3.org/2000/svg">
<rect width="512" height="512" rx="128" fill="#0068E1"/>
<path d="M316.457 186.171C292.976 186.171 270.962 192.449 252 203.418C213.467 225.708 187.543 267.369 187.543 315.086V424.167C187.543 435.12 196.422 444 207.376 444H273.486C261.619 444 252 434.381 252 422.514V320.457C252 284.858 280.858 256 316.457 256C352.056 256 380.914 284.858 380.914 320.457V422.514C380.914 434.381 371.295 444 359.429 444H425.538C436.492 444 445.371 435.12 445.371 424.167V315.086C445.371 243.888 387.655 186.171 316.457 186.171Z" fill="white"/>
<path d="M192.914 68C125.335 68 69.9002 120 64.4412 186.171H64V422.514C64 434.38 73.6195 444 85.4857 444H149.943C138.077 444 128.457 434.38 128.457 422.514V250.629H162.05C170.276 225.164 185.617 202.897 205.729 186.171H129.348C134.463 155.686 160.976 132.457 192.914 132.457C215.771 132.457 235.849 144.354 247.294 162.293C262.171 156.89 278.227 153.943 294.971 153.943C301.768 153.943 308.45 154.428 314.987 155.366C297.698 104.554 249.575 68 192.914 68Z" fill="white"/>
<path d="M365.408 112V72.581H352V64H387.866V72.581H374.458V112H365.408Z" fill="white"/>
<path d="M394.302 64H403.218L417.9 89.4078H418.436L433.118 64H442.101V112H433.118V88.3352L433.654 80.2905H433.118L420.917 101.81H415.487L403.218 80.2905H402.682L403.218 88.3352V112H394.302V64Z" fill="white"/>
</svg>
