<svg width="327" height="160" viewBox="0 0 327 160" fill="none" xmlns="http://www.w3.org/2000/svg">
<g clip-path="url(#clip0_4104_12061)">
<rect width="327" height="160" rx="24" fill="url(#paint0_linear_4104_12061)"/>
<g opacity="0.2">
<path d="M36.4638 155.753C40.9098 136.191 68.022 91.9721 141.066 73.3868L140.696 71.9332C67.1826 90.6379 39.5885 135.236 35.0011 155.421L36.4638 155.753ZM141.066 73.3868C177.818 64.0359 197.039 49.274 206.061 34.487C215.084 19.6977 213.835 4.99284 209.861 -4.06404L208.487 -3.46135C212.282 5.18727 213.526 19.3713 204.78 33.7057C196.033 48.0424 177.224 62.6392 140.696 71.9332L141.066 73.3868Z" fill="url(#paint1_linear_4104_12061)"/>
<path d="M45.1361 155.753C49.5821 136.191 76.6944 91.9721 149.739 73.3868L149.369 71.9332C75.8549 90.6379 48.2608 135.236 43.6734 155.421L45.1361 155.753ZM149.739 73.3868C186.49 64.0359 205.711 49.274 214.733 34.487C223.756 19.6977 222.507 4.99284 218.533 -4.06404L217.16 -3.46135C220.954 5.18727 222.198 19.3713 213.453 33.7057C204.706 48.0424 185.896 62.6392 149.369 71.9332L149.739 73.3868Z" fill="url(#paint2_linear_4104_12061)"/>
<path d="M53.8105 155.753C58.2565 136.191 85.3687 91.9721 158.413 73.3868L158.043 71.9332C84.5293 90.6379 56.9352 135.236 52.3478 155.421L53.8105 155.753ZM158.413 73.3868C195.164 64.0359 214.386 49.274 223.408 34.487C232.431 19.6977 231.181 4.99284 227.207 -4.06404L225.834 -3.46135C229.629 5.18727 230.873 19.3713 222.127 33.7057C213.38 48.0424 194.571 62.6392 158.043 71.9332L158.413 73.3868Z" fill="url(#paint3_linear_4104_12061)"/>
<path d="M62.4789 155.753C66.9249 136.191 94.0372 91.9721 167.081 73.3868L166.712 71.9332C93.1977 90.6379 65.6036 135.236 61.0162 155.421L62.4789 155.753ZM167.081 73.3868C203.833 64.0359 223.054 49.274 232.076 34.487C241.099 19.6977 239.85 4.99284 235.876 -4.06404L234.502 -3.46135C238.297 5.18727 239.541 19.3713 230.796 33.7057C222.049 48.0424 203.239 62.6392 166.712 71.9332L167.081 73.3868Z" fill="url(#paint4_linear_4104_12061)"/>
<path d="M71.1513 155.753C75.5973 136.191 102.71 91.9721 175.754 73.3868L175.384 71.9332C101.87 90.6379 74.276 135.236 69.6886 155.421L71.1513 155.753ZM175.754 73.3868C212.505 64.0359 231.727 49.274 240.748 34.487C249.771 19.6977 248.522 4.99284 244.548 -4.06404L243.175 -3.46135C246.97 5.18727 248.213 19.3713 239.468 33.7057C230.721 48.0424 211.912 62.6392 175.384 71.9332L175.754 73.3868Z" fill="url(#paint5_linear_4104_12061)"/>
<path d="M79.8256 155.753C84.2716 136.191 111.384 91.9721 184.428 73.3868L184.058 71.9332C110.544 90.6379 82.9503 135.236 78.3629 155.421L79.8256 155.753ZM184.428 73.3868C221.18 64.0359 240.401 49.274 249.423 34.487C258.446 19.6977 257.197 4.99284 253.223 -4.06404L251.849 -3.46135C255.644 5.18727 256.888 19.3713 248.142 33.7057C239.395 48.0424 220.586 62.6392 184.058 71.9332L184.428 73.3868Z" fill="url(#paint6_linear_4104_12061)"/>
<path d="M88.498 155.753C92.944 136.191 120.056 91.9721 193.1 73.3868L192.731 71.9332C119.217 90.6379 91.6227 135.236 87.0353 155.421L88.498 155.753ZM193.1 73.3868C229.852 64.0359 249.073 49.274 258.095 34.487C267.118 19.6977 265.869 4.99284 261.895 -4.06404L260.521 -3.46135C264.316 5.18727 265.56 19.3713 256.815 33.7057C248.068 48.0424 229.258 62.6392 192.731 71.9332L193.1 73.3868Z" fill="url(#paint7_linear_4104_12061)"/>
<path d="M97.1649 155.753C101.611 136.191 128.723 91.9721 201.767 73.3868L201.398 71.9332C127.884 90.6379 100.29 135.236 95.7022 155.421L97.1649 155.753ZM201.767 73.3868C238.519 64.0359 257.74 49.274 266.762 34.487C275.785 19.6977 274.536 4.99284 270.562 -4.06404L269.188 -3.46135C272.983 5.18727 274.227 19.3713 265.482 33.7057C256.735 48.0424 237.925 62.6392 201.398 71.9332L201.767 73.3868Z" fill="url(#paint8_linear_4104_12061)"/>
<path d="M105.839 155.753C110.285 136.191 137.398 91.9721 210.442 73.3868L210.072 71.9332C136.558 90.6379 108.964 135.236 104.377 155.421L105.839 155.753ZM210.442 73.3868C247.193 64.0359 266.415 49.274 275.436 34.487C284.459 19.6977 283.21 4.99284 279.236 -4.06404L277.863 -3.46135C281.658 5.18727 282.901 19.3713 274.156 33.7057C265.409 48.0424 246.6 62.6392 210.072 71.9332L210.442 73.3868Z" fill="url(#paint9_linear_4104_12061)"/>
<path d="M114.512 155.753C118.958 136.191 146.07 91.9721 219.114 73.3868L218.744 71.9332C145.23 90.6379 117.636 135.236 113.049 155.421L114.512 155.753ZM219.114 73.3868C255.866 64.0359 275.087 49.274 284.109 34.487C293.132 19.6977 291.883 4.99284 287.909 -4.06404L286.535 -3.46135C290.33 5.18727 291.574 19.3713 282.828 33.7057C274.081 48.0424 255.272 62.6392 218.744 71.9332L219.114 73.3868Z" fill="url(#paint10_linear_4104_12061)"/>
<path d="M123.185 155.753C127.631 136.191 154.744 91.9721 227.788 73.3868L227.418 71.9332C153.904 90.6379 126.31 135.236 121.723 155.421L123.185 155.753ZM227.788 73.3868C264.539 64.0359 283.761 49.274 292.783 34.487C301.806 19.6977 300.556 4.99284 296.582 -4.06404L295.209 -3.46135C299.004 5.18727 300.248 19.3713 291.502 33.7057C282.755 48.0424 263.946 62.6392 227.418 71.9332L227.788 73.3868Z" fill="url(#paint11_linear_4104_12061)"/>
<path d="M131.856 155.753C136.302 136.191 163.415 91.9721 236.459 73.3868L236.089 71.9332C162.575 90.6379 134.981 135.236 130.394 155.421L131.856 155.753ZM236.459 73.3868C273.21 64.0359 292.432 49.274 301.453 34.487C310.477 19.6977 309.227 4.99284 305.253 -4.06404L303.88 -3.46135C307.675 5.18727 308.919 19.3713 300.173 33.7057C291.426 48.0424 272.617 62.6392 236.089 71.9332L236.459 73.3868Z" fill="url(#paint12_linear_4104_12061)"/>
<path d="M140.527 155.753C144.973 136.191 172.085 91.9721 245.129 73.3868L244.759 71.9332C171.246 90.6379 143.651 135.236 139.064 155.421L140.527 155.753ZM245.129 73.3868C281.881 64.0359 301.102 49.274 310.124 34.487C319.147 19.6977 317.898 4.99284 313.924 -4.06404L312.55 -3.46135C316.345 5.18727 317.589 19.3713 308.843 33.7057C300.096 48.0424 281.287 62.6392 244.759 71.9332L245.129 73.3868Z" fill="url(#paint13_linear_4104_12061)"/>
<path d="M149.203 155.753C153.649 136.191 180.761 91.9721 253.805 73.3868L253.435 71.9332C179.921 90.6379 152.327 135.236 147.74 155.421L149.203 155.753ZM253.805 73.3868C290.557 64.0359 309.778 49.274 318.8 34.487C327.823 19.6977 326.574 4.99284 322.6 -4.06404L321.226 -3.46135C325.021 5.18727 326.265 19.3713 317.519 33.7057C308.772 48.0424 289.963 62.6392 253.435 71.9332L253.805 73.3868Z" fill="url(#paint14_linear_4104_12061)"/>
<path d="M157.873 155.753C162.319 136.191 189.432 91.9721 262.476 73.3868L262.106 71.9332C188.592 90.6379 160.998 135.236 156.411 155.421L157.873 155.753ZM262.476 73.3868C299.227 64.0359 318.449 49.274 327.471 34.487C336.494 19.6977 335.244 4.99284 331.27 -4.06404L329.897 -3.46135C333.692 5.18727 334.936 19.3713 326.19 33.7057C317.443 48.0424 298.634 62.6392 262.106 71.9332L262.476 73.3868Z" fill="url(#paint15_linear_4104_12061)"/>
<path d="M166.542 155.753C170.988 136.191 198.1 91.9721 271.144 73.3868L270.775 71.9332C197.261 90.6379 169.667 135.236 165.079 155.421L166.542 155.753ZM271.144 73.3868C307.896 64.0359 327.117 49.274 336.139 34.487C345.162 19.6977 343.913 4.99284 339.939 -4.06404L338.565 -3.46135C342.36 5.18727 343.604 19.3713 334.859 33.7057C326.112 48.0424 307.302 62.6392 270.775 71.9332L271.144 73.3868Z" fill="url(#paint16_linear_4104_12061)"/>
<path d="M175.216 155.753C179.662 136.191 206.774 91.9721 279.819 73.3868L279.449 71.9332C205.935 90.6379 178.341 135.236 173.754 155.421L175.216 155.753ZM279.819 73.3868C316.57 64.0359 335.792 49.274 344.813 34.487C353.836 19.6977 352.587 4.99284 348.613 -4.06404L347.24 -3.46135C351.034 5.18727 352.278 19.3713 343.533 33.7057C334.786 48.0424 315.976 62.6392 279.449 71.9332L279.819 73.3868Z" fill="url(#paint17_linear_4104_12061)"/>
<path d="M183.889 155.753C188.335 136.191 215.447 91.9721 288.491 73.3868L288.121 71.9332C214.607 90.6379 187.013 135.236 182.426 155.421L183.889 155.753ZM288.491 73.3868C325.243 64.0359 344.464 49.274 353.486 34.487C362.509 19.6977 361.26 4.99284 357.286 -4.06404L355.912 -3.46135C359.707 5.18727 360.951 19.3713 352.205 33.7057C343.458 48.0424 324.649 62.6392 288.121 71.9332L288.491 73.3868Z" fill="url(#paint18_linear_4104_12061)"/>
<path d="M192.563 155.753C197.009 136.191 224.121 91.9721 297.165 73.3868L296.796 71.9332C223.282 90.6379 195.688 135.236 191.1 155.421L192.563 155.753ZM297.165 73.3868C333.917 64.0359 353.138 49.274 362.16 34.487C371.183 19.6977 369.934 4.99284 365.96 -4.06404L364.586 -3.46135C368.381 5.18727 369.625 19.3713 360.88 33.7057C352.133 48.0424 333.323 62.6392 296.796 71.9332L297.165 73.3868Z" fill="url(#paint19_linear_4104_12061)"/>
<path d="M201.233 155.753C205.679 136.191 232.792 91.9721 305.836 73.3868L305.466 71.9332C231.952 90.6379 204.358 135.236 199.771 155.421L201.233 155.753ZM305.836 73.3868C342.587 64.0359 361.809 49.274 370.83 34.487C379.854 19.6977 378.604 4.99284 374.63 -4.06404L373.257 -3.46135C377.052 5.18727 378.296 19.3713 369.55 33.7057C360.803 48.0424 341.994 62.6392 305.466 71.9332L305.836 73.3868Z" fill="url(#paint20_linear_4104_12061)"/>
<path d="M209.906 155.753C214.352 136.191 241.464 91.9721 314.508 73.3868L314.138 71.9332C240.624 90.6379 213.03 135.236 208.443 155.421L209.906 155.753ZM314.508 73.3868C351.26 64.0359 370.481 49.274 379.503 34.487C388.526 19.6977 387.277 4.99284 383.303 -4.06404L381.929 -3.46135C385.724 5.18727 386.968 19.3713 378.222 33.7057C369.475 48.0424 350.666 62.6392 314.138 71.9332L314.508 73.3868Z" fill="url(#paint21_linear_4104_12061)"/>
<path d="M218.578 155.753C223.024 136.191 250.136 91.9721 323.181 73.3868L322.811 71.9332C249.297 90.6379 221.703 135.236 217.115 155.421L218.578 155.753ZM323.181 73.3868C359.932 64.0359 379.153 49.274 388.175 34.487C397.198 19.6977 395.949 4.99284 391.975 -4.06404L390.601 -3.46135C394.396 5.18727 395.64 19.3713 386.895 33.7057C378.148 48.0424 359.338 62.6392 322.811 71.9332L323.181 73.3868Z" fill="url(#paint22_linear_4104_12061)"/>
<path d="M227.248 155.753C231.694 136.191 258.807 91.9721 331.851 73.3868L331.481 71.9332C257.967 90.6379 230.373 135.236 225.786 155.421L227.248 155.753ZM331.851 73.3868C368.602 64.0359 387.824 49.274 396.846 34.487C405.869 19.6977 404.619 4.99284 400.645 -4.06404L399.272 -3.46135C403.067 5.18727 404.311 19.3713 395.565 33.7057C386.818 48.0424 368.009 62.6392 331.481 71.9332L331.851 73.3868Z" fill="url(#paint23_linear_4104_12061)"/>
<path d="M235.925 155.753C240.371 136.191 267.483 91.9721 340.527 73.3868L340.157 71.9332C266.644 90.6379 239.049 135.236 234.462 155.421L235.925 155.753ZM340.527 73.3868C377.279 64.0359 396.5 49.274 405.522 34.487C414.545 19.6977 413.296 4.99284 409.322 -4.06404L407.948 -3.46135C411.743 5.18727 412.987 19.3713 404.241 33.7057C395.494 48.0424 376.685 62.6392 340.157 71.9332L340.527 73.3868Z" fill="url(#paint24_linear_4104_12061)"/>
<path d="M244.592 155.753C249.038 136.191 276.15 91.9721 349.194 73.3868L348.824 71.9332C275.311 90.6379 247.716 135.236 243.129 155.421L244.592 155.753ZM349.194 73.3868C385.946 64.0359 405.167 49.274 414.189 34.487C423.212 19.6977 421.963 4.99284 417.989 -4.06404L416.615 -3.46135C420.41 5.18727 421.654 19.3713 412.908 33.7057C404.161 48.0424 385.352 62.6392 348.824 71.9332L349.194 73.3868Z" fill="url(#paint25_linear_4104_12061)"/>
<path d="M253.266 155.753C257.712 136.191 284.824 91.9721 357.868 73.3868L357.498 71.9332C283.984 90.6379 256.39 135.236 251.803 155.421L253.266 155.753ZM357.868 73.3868C394.62 64.0359 413.841 49.274 422.863 34.487C431.886 19.6977 430.636 4.99284 426.663 -4.06404L425.289 -3.46135C429.084 5.18727 430.328 19.3713 421.582 33.7057C412.835 48.0424 394.026 62.6392 357.498 71.9332L357.868 73.3868Z" fill="url(#paint26_linear_4104_12061)"/>
<path d="M261.94 155.753C266.386 136.191 293.498 91.9721 366.542 73.3868L366.173 71.9332C292.659 90.6379 265.065 135.236 260.477 155.421L261.94 155.753ZM366.542 73.3868C403.294 64.0359 422.515 49.274 431.537 34.487C440.56 19.6977 439.311 4.99284 435.337 -4.06404L433.963 -3.46135C437.758 5.18727 439.002 19.3713 430.256 33.7057C421.509 48.0424 402.7 62.6392 366.173 71.9332L366.542 73.3868Z" fill="url(#paint27_linear_4104_12061)"/>
<path d="M270.609 155.753C275.055 136.191 302.167 91.9721 375.211 73.3868L374.841 71.9332C301.328 90.6379 273.733 135.236 269.146 155.421L270.609 155.753ZM375.211 73.3868C411.963 64.0359 431.184 49.274 440.206 34.487C449.229 19.6977 447.98 4.99284 444.006 -4.06404L442.632 -3.46135C446.427 5.18727 447.671 19.3713 438.925 33.7057C430.178 48.0424 411.369 62.6392 374.841 71.9332L375.211 73.3868Z" fill="url(#paint28_linear_4104_12061)"/>
<path d="M279.279 155.753C283.725 136.191 310.837 91.9721 383.882 73.3868L383.512 71.9332C309.998 90.6379 282.404 135.236 277.817 155.421L279.279 155.753ZM383.882 73.3868C420.633 64.0359 439.855 49.274 448.876 34.487C457.899 19.6977 456.65 4.99284 452.676 -4.06404L451.303 -3.46135C455.097 5.18727 456.341 19.3713 447.596 33.7057C438.849 48.0424 420.039 62.6392 383.512 71.9332L383.882 73.3868Z" fill="url(#paint29_linear_4104_12061)"/>
<path d="M287.954 155.753C292.4 136.191 319.512 91.9721 392.556 73.3868L392.186 71.9332C318.672 90.6379 291.078 135.236 286.491 155.421L287.954 155.753ZM392.556 73.3868C429.308 64.0359 448.529 49.274 457.551 34.487C466.574 19.6977 465.324 4.99284 461.351 -4.06404L459.977 -3.46135C463.772 5.18727 465.016 19.3713 456.27 33.7057C447.523 48.0424 428.714 62.6392 392.186 71.9332L392.556 73.3868Z" fill="url(#paint30_linear_4104_12061)"/>
<path d="M296.626 155.753C301.072 136.191 328.184 91.9721 401.228 73.3868L400.859 71.9332C327.345 90.6379 299.751 135.236 295.163 155.421L296.626 155.753ZM401.228 73.3868C437.98 64.0359 457.201 49.274 466.223 34.487C475.246 19.6977 473.997 4.99284 470.023 -4.06404L468.649 -3.46135C472.444 5.18727 473.688 19.3713 464.942 33.7057C456.196 48.0424 437.386 62.6392 400.859 71.9332L401.228 73.3868Z" fill="url(#paint31_linear_4104_12061)"/>
<path d="M305.298 155.753C309.744 136.191 336.857 91.9721 409.901 73.3868L409.531 71.9332C336.017 90.6379 308.423 135.236 303.836 155.421L305.298 155.753ZM409.901 73.3868C446.652 64.0359 465.874 49.274 474.895 34.487C483.918 19.6977 482.669 4.99284 478.695 -4.06404L477.322 -3.46135C481.116 5.18727 482.36 19.3713 473.615 33.7057C464.868 48.0424 446.059 62.6392 409.531 71.9332L409.901 73.3868Z" fill="url(#paint32_linear_4104_12061)"/>
<path d="M313.971 155.753C318.417 136.191 345.529 91.9721 418.573 73.3868L418.203 71.9332C344.689 90.6379 317.095 135.236 312.508 155.421L313.971 155.753ZM418.573 73.3868C455.325 64.0359 474.546 49.274 483.568 34.487C492.591 19.6977 491.342 4.99284 487.368 -4.06404L485.994 -3.46135C489.789 5.18727 491.033 19.3713 482.287 33.7057C473.54 48.0424 454.731 62.6392 418.203 71.9332L418.573 73.3868Z" fill="url(#paint33_linear_4104_12061)"/>
<path d="M322.641 155.753C327.087 136.191 354.199 91.9721 427.244 73.3868L426.874 71.9332C353.36 90.6379 325.766 135.236 321.178 155.421L322.641 155.753ZM427.244 73.3868C463.995 64.0359 483.216 49.274 492.238 34.487C501.261 19.6977 500.012 4.99284 496.038 -4.06404L494.664 -3.46135C498.459 5.18727 499.703 19.3713 490.958 33.7057C482.211 48.0424 463.401 62.6392 426.874 71.9332L427.244 73.3868Z" fill="url(#paint34_linear_4104_12061)"/>
</g>

<rect x="64.5728" y="45" width="32" height="47.5721" rx="5" transform="rotate(90 64.5728 45)" fill="url(#paint35_linear_4104_12061)" stroke="#FFEBCC"/>
<rect x="45.7734" y="49.8521" width="22.2955" height="9.97585" rx="4.98792" transform="rotate(90 45.7734 49.8521)" stroke="#FFEBCC"/>
<path d="M17 51.52H36.8957" stroke="#FFEBCC"/>
<path d="M44.7761 51.52H64.6718" stroke="#FFEBCC"/>
<path d="M17 60.9995H35.7982" stroke="#FFEBCC"/>
<path d="M45.8438 61H64.6419" stroke="#FFEBCC"/>
<path d="M17 70.4795H36.8957" stroke="#FFEBCC"/>
<path d="M44.7761 70.4795H64.6718" stroke="#FFEBCC"/>
<ellipse cx="288.667" cy="31.0002" rx="10.6667" ry="10.6667" fill="#FF5247"/>
<circle opacity="0.7" cx="299.333" cy="31.0002" r="10.6667" fill="#FFB323"/>

</g>
<defs>
<linearGradient id="paint0_linear_4104_12061" x1="163.5" y1="0" x2="163.5" y2="160" gradientUnits="userSpaceOnUse">
<stop stop-color="#3EB0E5"/>
<stop offset="1" stop-color="#0050AD"/>
</linearGradient>
<linearGradient id="paint1_linear_4104_12061" x1="72.2146" y1="-3.7627" x2="72.2146" y2="155.587" gradientUnits="userSpaceOnUse">
<stop stop-color="white"/>
<stop offset="1" stop-color="white" stop-opacity="0"/>
</linearGradient>
<linearGradient id="paint2_linear_4104_12061" x1="80.887" y1="-3.7627" x2="80.887" y2="155.587" gradientUnits="userSpaceOnUse">
<stop stop-color="white"/>
<stop offset="1" stop-color="white" stop-opacity="0"/>
</linearGradient>
<linearGradient id="paint3_linear_4104_12061" x1="89.5613" y1="-3.7627" x2="89.5613" y2="155.587" gradientUnits="userSpaceOnUse">
<stop stop-color="white"/>
<stop offset="1" stop-color="white" stop-opacity="0"/>
</linearGradient>
<linearGradient id="paint4_linear_4104_12061" x1="98.2298" y1="-3.7627" x2="98.2298" y2="155.587" gradientUnits="userSpaceOnUse">
<stop stop-color="white"/>
<stop offset="1" stop-color="white" stop-opacity="0"/>
</linearGradient>
<linearGradient id="paint5_linear_4104_12061" x1="106.902" y1="-3.7627" x2="106.902" y2="155.587" gradientUnits="userSpaceOnUse">
<stop stop-color="white"/>
<stop offset="1" stop-color="white" stop-opacity="0"/>
</linearGradient>
<linearGradient id="paint6_linear_4104_12061" x1="115.576" y1="-3.7627" x2="115.576" y2="155.587" gradientUnits="userSpaceOnUse">
<stop stop-color="white"/>
<stop offset="1" stop-color="white" stop-opacity="0"/>
</linearGradient>
<linearGradient id="paint7_linear_4104_12061" x1="124.249" y1="-3.7627" x2="124.249" y2="155.587" gradientUnits="userSpaceOnUse">
<stop stop-color="white"/>
<stop offset="1" stop-color="white" stop-opacity="0"/>
</linearGradient>
<linearGradient id="paint8_linear_4104_12061" x1="132.916" y1="-3.7627" x2="132.916" y2="155.587" gradientUnits="userSpaceOnUse">
<stop stop-color="white"/>
<stop offset="1" stop-color="white" stop-opacity="0"/>
</linearGradient>
<linearGradient id="paint9_linear_4104_12061" x1="141.59" y1="-3.7627" x2="141.59" y2="155.587" gradientUnits="userSpaceOnUse">
<stop stop-color="white"/>
<stop offset="1" stop-color="white" stop-opacity="0"/>
</linearGradient>
<linearGradient id="paint10_linear_4104_12061" x1="150.262" y1="-3.7627" x2="150.262" y2="155.587" gradientUnits="userSpaceOnUse">
<stop stop-color="white"/>
<stop offset="1" stop-color="white" stop-opacity="0"/>
</linearGradient>
<linearGradient id="paint11_linear_4104_12061" x1="158.936" y1="-3.7627" x2="158.936" y2="155.587" gradientUnits="userSpaceOnUse">
<stop stop-color="white"/>
<stop offset="1" stop-color="white" stop-opacity="0"/>
</linearGradient>
<linearGradient id="paint12_linear_4104_12061" x1="167.607" y1="-3.7627" x2="167.607" y2="155.587" gradientUnits="userSpaceOnUse">
<stop stop-color="white"/>
<stop offset="1" stop-color="white" stop-opacity="0"/>
</linearGradient>
<linearGradient id="paint13_linear_4104_12061" x1="176.278" y1="-3.7627" x2="176.278" y2="155.587" gradientUnits="userSpaceOnUse">
<stop stop-color="white"/>
<stop offset="1" stop-color="white" stop-opacity="0"/>
</linearGradient>
<linearGradient id="paint14_linear_4104_12061" x1="184.953" y1="-3.7627" x2="184.953" y2="155.587" gradientUnits="userSpaceOnUse">
<stop stop-color="white"/>
<stop offset="1" stop-color="white" stop-opacity="0"/>
</linearGradient>
<linearGradient id="paint15_linear_4104_12061" x1="193.624" y1="-3.7627" x2="193.624" y2="155.587" gradientUnits="userSpaceOnUse">
<stop stop-color="white"/>
<stop offset="1" stop-color="white" stop-opacity="0"/>
</linearGradient>
<linearGradient id="paint16_linear_4104_12061" x1="202.293" y1="-3.7627" x2="202.293" y2="155.587" gradientUnits="userSpaceOnUse">
<stop stop-color="white"/>
<stop offset="1" stop-color="white" stop-opacity="0"/>
</linearGradient>
<linearGradient id="paint17_linear_4104_12061" x1="210.967" y1="-3.7627" x2="210.967" y2="155.587" gradientUnits="userSpaceOnUse">
<stop stop-color="white"/>
<stop offset="1" stop-color="white" stop-opacity="0"/>
</linearGradient>
<linearGradient id="paint18_linear_4104_12061" x1="219.639" y1="-3.7627" x2="219.639" y2="155.587" gradientUnits="userSpaceOnUse">
<stop stop-color="white"/>
<stop offset="1" stop-color="white" stop-opacity="0"/>
</linearGradient>
<linearGradient id="paint19_linear_4104_12061" x1="228.314" y1="-3.7627" x2="228.314" y2="155.587" gradientUnits="userSpaceOnUse">
<stop stop-color="white"/>
<stop offset="1" stop-color="white" stop-opacity="0"/>
</linearGradient>
<linearGradient id="paint20_linear_4104_12061" x1="236.984" y1="-3.7627" x2="236.984" y2="155.587" gradientUnits="userSpaceOnUse">
<stop stop-color="white"/>
<stop offset="1" stop-color="white" stop-opacity="0"/>
</linearGradient>
<linearGradient id="paint21_linear_4104_12061" x1="245.657" y1="-3.7627" x2="245.657" y2="155.587" gradientUnits="userSpaceOnUse">
<stop stop-color="white"/>
<stop offset="1" stop-color="white" stop-opacity="0"/>
</linearGradient>
<linearGradient id="paint22_linear_4104_12061" x1="254.329" y1="-3.7627" x2="254.329" y2="155.587" gradientUnits="userSpaceOnUse">
<stop stop-color="white"/>
<stop offset="1" stop-color="white" stop-opacity="0"/>
</linearGradient>
<linearGradient id="paint23_linear_4104_12061" x1="262.999" y1="-3.7627" x2="262.999" y2="155.587" gradientUnits="userSpaceOnUse">
<stop stop-color="white"/>
<stop offset="1" stop-color="white" stop-opacity="0"/>
</linearGradient>
<linearGradient id="paint24_linear_4104_12061" x1="271.676" y1="-3.7627" x2="271.676" y2="155.587" gradientUnits="userSpaceOnUse">
<stop stop-color="white"/>
<stop offset="1" stop-color="white" stop-opacity="0"/>
</linearGradient>
<linearGradient id="paint25_linear_4104_12061" x1="280.343" y1="-3.7627" x2="280.343" y2="155.587" gradientUnits="userSpaceOnUse">
<stop stop-color="white"/>
<stop offset="1" stop-color="white" stop-opacity="0"/>
</linearGradient>
<linearGradient id="paint26_linear_4104_12061" x1="289.016" y1="-3.7627" x2="289.016" y2="155.587" gradientUnits="userSpaceOnUse">
<stop stop-color="white"/>
<stop offset="1" stop-color="white" stop-opacity="0"/>
</linearGradient>
<linearGradient id="paint27_linear_4104_12061" x1="297.691" y1="-3.7627" x2="297.691" y2="155.587" gradientUnits="userSpaceOnUse">
<stop stop-color="white"/>
<stop offset="1" stop-color="white" stop-opacity="0"/>
</linearGradient>
<linearGradient id="paint28_linear_4104_12061" x1="306.36" y1="-3.7627" x2="306.36" y2="155.587" gradientUnits="userSpaceOnUse">
<stop stop-color="white"/>
<stop offset="1" stop-color="white" stop-opacity="0"/>
</linearGradient>
<linearGradient id="paint29_linear_4104_12061" x1="315.03" y1="-3.7627" x2="315.03" y2="155.587" gradientUnits="userSpaceOnUse">
<stop stop-color="white"/>
<stop offset="1" stop-color="white" stop-opacity="0"/>
</linearGradient>
<linearGradient id="paint30_linear_4104_12061" x1="323.704" y1="-3.7627" x2="323.704" y2="155.587" gradientUnits="userSpaceOnUse">
<stop stop-color="white"/>
<stop offset="1" stop-color="white" stop-opacity="0"/>
</linearGradient>
<linearGradient id="paint31_linear_4104_12061" x1="332.377" y1="-3.7627" x2="332.377" y2="155.587" gradientUnits="userSpaceOnUse">
<stop stop-color="white"/>
<stop offset="1" stop-color="white" stop-opacity="0"/>
</linearGradient>
<linearGradient id="paint32_linear_4104_12061" x1="341.049" y1="-3.7627" x2="341.049" y2="155.587" gradientUnits="userSpaceOnUse">
<stop stop-color="white"/>
<stop offset="1" stop-color="white" stop-opacity="0"/>
</linearGradient>
<linearGradient id="paint33_linear_4104_12061" x1="349.721" y1="-3.7627" x2="349.721" y2="155.587" gradientUnits="userSpaceOnUse">
<stop stop-color="white"/>
<stop offset="1" stop-color="white" stop-opacity="0"/>
</linearGradient>
<linearGradient id="paint34_linear_4104_12061" x1="358.392" y1="-3.7627" x2="358.392" y2="155.587" gradientUnits="userSpaceOnUse">
<stop stop-color="white"/>
<stop offset="1" stop-color="white" stop-opacity="0"/>
</linearGradient>
<linearGradient id="paint35_linear_4104_12061" x1="80.5728" y1="45" x2="80.5728" y2="92.5721" gradientUnits="userSpaceOnUse">
<stop stop-color="#FE9900"/>
<stop offset="1" stop-color="#FE9900" stop-opacity="0.2"/>
</linearGradient>
<clipPath id="clip0_4104_12061">
<rect width="327" height="160" rx="24" fill="white"/>
</clipPath>
</defs>
</svg>
