<svg width="286" height="106" viewBox="0 0 286 106" fill="none" xmlns="http://www.w3.org/2000/svg">
<g clip-path="url(#clip0_1_965)">
<path d="M275.766 85.6228C275.766 86.6056 274.976 87.4034 274.002 87.4034C273.029 87.4034 272.239 86.6056 272.239 85.6228V72.4758C272.239 71.4929 273.029 70.6951 274.002 70.6951C274.976 70.6951 275.766 71.4929 275.766 72.4758V85.6228Z" fill="#F0851D"/>
<path d="M285.36 71.3206C285.36 72.0028 284.811 72.5694 284.135 72.5694C283.46 72.5694 282.899 72.0144 282.899 71.3206V62.1397C282.899 61.4575 283.448 60.8909 284.135 60.8909C284.811 60.8909 285.36 61.4459 285.36 62.1397V71.3206Z" fill="#F7971E"/>
<path d="M1.43115 89.393C1.43115 92.0062 3.52636 94.1338 6.12533 94.1338H29.1955C31.7831 94.1338 33.8897 92.0178 33.8897 89.393V82.2818C33.8897 79.6686 31.7831 77.541 29.1955 77.541H6.12533C3.53781 77.541 1.43115 79.657 1.43115 82.2818V89.393Z" fill="#333333"/>
<path d="M53.8567 66.013C53.8567 68.6262 55.9519 70.7538 58.5509 70.7538H60.0049C62.5924 70.7538 64.6991 68.6378 64.6991 66.013V22.1087C64.6991 19.4955 62.5924 17.3679 60.0049 17.3679H58.5509C55.9633 17.3679 53.8567 19.4839 53.8567 22.1087V66.013Z" fill="#1A1A1A"/>
<path d="M53.8567 66.013C53.8567 68.6262 55.9519 70.7538 58.5509 70.7538H60.0049C62.5924 70.7538 64.6991 68.6378 64.6991 66.013V22.1087C64.6991 19.4955 62.5924 17.3679 60.0049 17.3679H58.5509C55.9633 17.3679 53.8567 19.4839 53.8567 22.1087V66.013Z" fill="#1A1A1A"/>
<path d="M0 44.3441V60.4512C0 65.0186 1.94637 69.1349 5.06056 72.0025C7.80837 74.5464 11.4721 76.0842 15.4794 76.0842H42.2133C50.7544 76.0842 57.6926 69.0656 57.6926 60.4512V16.9748C57.6926 16.3966 57.3492 15.8879 56.834 15.6566C54.0174 14.4772 50.3537 13.8528 46.2549 13.8528C41.4004 13.8528 36.0422 14.72 30.7412 16.3388C29.5962 16.6857 28.3712 17.102 27.0202 17.6107C22.4519 18.5126 16.3724 21.5305 11.4836 25.3347C9.11358 27.1732 7.08707 29.1158 5.42693 31.1162C5.03766 31.5787 4.67128 32.0528 4.31636 32.5268C1.49985 36.3773 0 40.4127 0 44.3441Z" fill="#EA9620"/>
<path d="M0 44.3435V58.4386L4.75143 57.9183L5.06056 57.8836L9.96083 57.3517L13.5788 56.9586L23.906 55.8254L27.7987 55.3976C32.7562 55.3976 36.7635 52.8885 36.7635 49.8012V36.7351C36.7635 33.6594 32.7562 31.1387 27.7987 31.1387H5.43838C5.04911 31.6012 4.68273 32.0753 4.32781 32.5493C3.0226 34.3185 2.00361 36.1454 1.29376 37.9723C0.435071 40.0883 0 42.239 0 44.3435Z" fill="#4D4D4D"/>
<path d="M12.4222 23.0568C12.4222 25.2075 13.8534 27.0229 15.7883 27.601C16.2119 27.7282 16.647 27.786 17.1164 27.786H53.0098C55.5973 27.786 57.7039 25.6584 57.7039 23.0452V11.0545C57.7039 8.44129 55.6087 6.31372 53.0098 6.31372L25.5545 11.0545C10.556 13.5637 12.4222 23.0568 12.4222 23.0568Z" fill="#CCCCCC"/>
<path d="M15.7881 27.6002C16.2117 27.7274 16.6468 27.7852 17.1162 27.7852H53.0095C55.597 27.7852 57.7037 25.6577 57.7037 23.0444V11.204C57.2915 11.0769 56.8564 11.019 56.3985 11.019L28.9547 15.7598C15.0668 18.0724 15.6278 26.3746 15.7881 27.6002Z" fill="#E6E6E6"/>
<path d="M0 69.2504V84.9644C0 86.0629 0.366375 87.0573 0.984633 87.8667C1.00753 87.9014 1.03043 87.9476 1.06478 87.9708C1.79753 88.8611 2.83941 89.4855 4.01868 89.6474C4.23621 89.6821 4.4652 89.7052 4.69418 89.7052H53.0099C55.5974 89.7052 57.7041 87.5892 57.7041 84.9644V58.5663C57.7041 57.04 57.7041 55.9878 57.7041 55.9878L4.82012 64.4981L4.69418 64.5097C3.53781 64.5097 2.48448 64.9259 1.67159 65.6312C1.06478 66.1516 0.58391 66.8222 0.29768 67.5969C0.103043 68.1173 0 68.6723 0 69.2504Z" fill="#EA9620"/>
<path d="M129.274 88.8962C129.274 95.1748 134.311 100.263 140.54 100.263C146.757 100.263 151.794 95.1748 151.794 88.8962C151.794 82.6175 146.757 77.5183 140.54 77.5183C134.311 77.5183 129.274 82.606 129.274 88.8962Z" fill="#333333"/>
<path d="M130.385 88.7345C130.385 94.4003 134.93 98.9907 140.529 98.9907C146.139 98.9907 150.673 94.4003 150.673 88.7345C150.673 83.0802 146.127 78.4897 140.529 78.4897C134.93 78.4897 130.385 83.0686 130.385 88.7345Z" fill="#1A1A1A"/>
<path d="M134.369 88.8505C134.369 92.2847 137.128 95.0713 140.528 95.0713C143.929 95.0713 146.688 92.2847 146.688 88.8505C146.688 85.4163 143.929 82.6296 140.528 82.6296C137.128 82.6412 134.369 85.4163 134.369 88.8505Z" fill="#666666"/>
<path d="M133.899 88.8502C133.899 85.1616 136.876 82.1553 140.528 82.1553C144.181 82.1553 147.157 85.1616 147.157 88.8502C147.157 92.5387 144.181 95.5451 140.528 95.5451C136.876 95.5451 133.899 92.5503 133.899 88.8502ZM134.838 88.8502C134.838 92.0184 137.391 94.5969 140.528 94.5969C143.665 94.5969 146.219 92.0184 146.219 88.8502C146.219 85.6819 143.665 83.1034 140.528 83.1034C137.391 83.115 134.838 85.6819 134.838 88.8502Z" fill="#808080"/>
<path d="M183.955 88.8962C183.955 95.1748 188.993 100.263 195.221 100.263C201.438 100.263 206.487 95.1748 206.487 88.8962C206.487 82.6175 201.45 77.5183 195.221 77.5183C189.004 77.5183 183.955 82.606 183.955 88.8962Z" fill="#333333"/>
<path d="M185.066 88.7345C185.066 94.4003 189.611 98.9907 195.21 98.9907C200.82 98.9907 205.354 94.4003 205.354 88.7345C205.354 83.0802 200.809 78.4897 195.21 78.4897C189.611 78.4897 185.066 83.0686 185.066 88.7345Z" fill="#1A1A1A"/>
<path d="M189.062 88.8505C189.062 92.2847 191.821 95.0713 195.221 95.0713C198.622 95.0713 201.381 92.2847 201.381 88.8505C201.381 85.4163 198.622 82.6296 195.221 82.6296C191.821 82.6412 189.062 85.4163 189.062 88.8505Z" fill="#666666"/>
<path d="M188.592 88.8502C188.592 85.1616 191.569 82.1553 195.221 82.1553C198.873 82.1553 201.85 85.1616 201.85 88.8502C201.85 92.5387 198.873 95.5451 195.221 95.5451C191.569 95.5451 188.592 92.5503 188.592 88.8502ZM189.531 88.8502C189.531 92.0184 192.084 94.5969 195.221 94.5969C198.358 94.5969 200.911 92.0184 200.911 88.8502C200.911 85.6819 198.358 83.1034 195.221 83.1034C192.084 83.115 189.531 85.6819 189.531 88.8502Z" fill="#808080"/>
<path d="M238.648 88.8962C238.648 95.1748 243.685 100.263 249.914 100.263C256.131 100.263 261.18 95.1748 261.18 88.8962C261.18 82.6175 256.131 77.5183 249.914 77.5183C243.685 77.5183 238.648 82.606 238.648 88.8962Z" fill="#333333"/>
<path d="M239.759 88.7345C239.759 94.4003 244.304 98.9907 249.903 98.9907C255.501 98.9907 260.047 94.4003 260.047 88.7345C260.047 83.0802 255.501 78.4897 249.903 78.4897C244.304 78.4897 239.759 83.0686 239.759 88.7345Z" fill="#1A1A1A"/>
<path d="M243.754 88.8505C243.754 92.2847 246.513 95.0713 249.914 95.0713C253.314 95.0713 256.074 92.2847 256.074 88.8505C256.074 85.4163 253.314 82.6296 249.914 82.6296C246.502 82.6412 243.754 85.4163 243.754 88.8505Z" fill="#666666"/>
<path d="M243.285 88.8502C243.285 85.1616 246.261 82.1553 249.914 82.1553C253.566 82.1553 256.543 85.1616 256.543 88.8502C256.543 92.5387 253.566 95.5451 249.914 95.5451C246.25 95.5451 243.285 92.5503 243.285 88.8502ZM244.223 88.8502C244.223 92.0184 246.777 94.5969 249.914 94.5969C253.051 94.5969 255.604 92.0184 255.604 88.8502C255.604 85.6819 253.051 83.1034 249.914 83.1034C246.777 83.115 244.223 85.6819 244.223 88.8502Z" fill="#808080"/>
<path d="M72.8167 79.276C72.8167 81.8892 74.9233 84.0168 77.5108 84.0168H110.038C112.626 84.0168 114.732 81.9007 114.732 79.276V71.1473C114.732 68.5341 112.637 66.4065 110.038 66.4065H77.5108C74.9233 66.4065 72.8167 68.5225 72.8167 71.1473V79.276Z" fill="#1A1A1A"/>
<path d="M93.8727 78.4897H38.4126V95.0825H93.8727V78.4897Z" fill="#808080"/>
<path d="M121.293 86.86C121.293 89.4733 123.388 91.6008 125.987 91.6008H269.022C271.61 91.6008 273.716 89.4848 273.716 86.86V75.4937C273.716 72.8805 271.61 70.7529 269.022 70.7529H125.987C123.4 70.7529 121.293 72.8689 121.293 75.4937V86.86V86.86Z" fill="#4D4D4D"/>
<path d="M27.1577 88.8962C27.1577 95.1748 32.1954 100.263 38.4238 100.263C44.6407 100.263 49.6783 95.1748 49.6783 88.8962C49.6783 82.6175 44.6407 77.5183 38.4238 77.5183C32.1954 77.5183 27.1577 82.606 27.1577 88.8962Z" fill="#333333"/>
<path d="M28.2686 88.7345C28.2686 94.4003 32.8139 98.9907 38.4126 98.9907C44.0227 98.9907 48.5566 94.4003 48.5566 88.7345C48.5566 83.0802 44.0112 78.4897 38.4126 78.4897C32.8139 78.4897 28.2686 83.0686 28.2686 88.7345Z" fill="#1A1A1A"/>
<path d="M32.2642 88.8505C32.2642 92.2847 35.0234 95.0713 38.4238 95.0713C41.8243 95.0713 44.5835 92.2847 44.5835 88.8505C44.5835 85.4163 41.8243 82.6296 38.4238 82.6296C35.012 82.6412 32.2642 85.4163 32.2642 88.8505Z" fill="#666666"/>
<path d="M31.7947 88.8502C31.7947 85.1616 34.7715 82.1553 38.4238 82.1553C42.0761 82.1553 45.0529 85.1616 45.0529 88.8502C45.0529 92.5387 42.0761 95.5451 38.4238 95.5451C34.76 95.5451 31.7947 92.5503 31.7947 88.8502ZM32.7335 88.8502C32.7335 92.0184 35.2867 94.5969 38.4238 94.5969C41.5609 94.5969 44.114 92.0184 44.114 88.8502C44.114 85.6819 41.5609 83.1034 38.4238 83.1034C35.2867 83.1034 32.7335 85.6819 32.7335 88.8502Z" fill="#808080"/>
<path d="M35.2754 88.8956C35.2754 90.6532 36.6836 92.0754 38.4239 92.0754C40.1642 92.0754 41.5725 90.6532 41.5725 88.8956C41.5725 87.1381 40.1642 85.7158 38.4239 85.7158C36.6836 85.7158 35.2754 87.1381 35.2754 88.8956Z" fill="#808080"/>
<path d="M87.1516 88.8962C87.1516 95.1748 92.1893 100.263 98.4176 100.263C104.635 100.263 109.672 95.1748 109.672 88.8962C109.672 82.6175 104.635 77.5183 98.4176 77.5183C92.1893 77.5183 87.1516 82.606 87.1516 88.8962Z" fill="#333333"/>
<path d="M88.2625 88.7345C88.2625 94.4003 92.8078 98.9907 98.4065 98.9907C104.005 98.9907 108.55 94.4003 108.55 88.7345C108.55 83.0802 104.005 78.4897 98.4065 78.4897C92.8078 78.4897 88.2625 83.0686 88.2625 88.7345Z" fill="#1A1A1A"/>
<path d="M92.2581 88.8505C92.2581 92.2847 95.0173 95.0713 98.4177 95.0713C101.818 95.0713 104.577 92.2847 104.577 88.8505C104.577 85.4163 101.818 82.6296 98.4177 82.6296C95.0173 82.6412 92.2581 85.4163 92.2581 88.8505Z" fill="#666666"/>
<path d="M91.7886 88.8502C91.7886 85.1616 94.7654 82.1553 98.4177 82.1553C102.07 82.1553 105.047 85.1616 105.047 88.8502C105.047 92.5387 102.07 95.5451 98.4177 95.5451C94.7654 95.5451 91.7886 92.5503 91.7886 88.8502ZM92.7274 88.8502C92.7274 92.0184 95.2806 94.5969 98.4177 94.5969C101.555 94.5969 104.108 92.0184 104.108 88.8502C104.108 85.6819 101.555 83.1034 98.4177 83.1034C95.2806 83.115 92.7274 85.6819 92.7274 88.8502Z" fill="#808080"/>
<path d="M95.2693 88.8956C95.2693 90.6532 96.6775 92.0754 98.4178 92.0754C100.158 92.0754 101.566 90.6532 101.566 88.8956C101.566 87.1381 100.158 85.7158 98.4178 85.7158C96.6775 85.7158 95.2693 87.1381 95.2693 88.8956Z" fill="#808080"/>
<path d="M23.0933 41.3724V53.1434C23.0933 54.1378 23.3909 55.0513 23.9176 55.8144L27.8103 55.3866C32.7679 55.3866 36.7751 52.8774 36.7751 49.7902V37.7763C35.9622 37.0594 34.886 36.6316 33.7296 36.6316H27.776C25.1885 36.6316 23.0933 38.7592 23.0933 41.3724Z" fill="#333333"/>
<path d="M0 44.344V58.4391L4.75143 57.9188L13.5788 56.9475C13.6704 56.1959 13.5902 55.3981 13.2925 54.6465L7.77402 40.4588C6.82374 38.0306 4.11027 36.8281 1.69449 37.7878L1.29376 37.9497C0.435071 40.0888 0 42.2395 0 44.344Z" fill="#333333"/>
<path d="M5.06019 57.8831L9.96046 57.3512L15.5133 52.807C16.2575 52.1942 16.372 51.1073 15.7652 50.3673C15.4332 49.9394 14.9409 49.7197 14.4371 49.7197C14.0478 49.7197 13.67 49.8469 13.3494 50.1129L5.6899 56.3684C5.22048 56.7384 5.01439 57.3281 5.06019 57.8831Z" fill="#1A1A1A"/>
<path d="M2.81665 44.3437V58.4388L6.41171 58.0457V44.3437C6.41171 40.4123 7.91156 36.3768 10.7395 32.5264C11.083 32.0523 11.4494 31.5782 11.8501 31.1157H8.24358C7.85431 31.5782 7.48793 32.0523 7.13301 32.5264C4.3165 36.3768 2.81665 40.4123 2.81665 44.3437Z" fill="#B2B2B2"/>
<path d="M0 69.4807C0 69.4923 0 69.4923 0 69.5038V88.1548C0 88.7676 0.160289 89.3342 0.44652 89.843C0.44652 89.8545 0.44652 89.8661 0.457969 89.8661C1.05333 90.9068 2.15245 91.6005 3.41187 91.6005C3.61796 91.6005 3.82404 91.5774 4.01868 91.5427C4.71708 91.4155 5.34679 91.0802 5.81621 90.5945C6.42302 89.9702 6.81229 89.1029 6.81229 88.1548V69.5038C6.81229 68.1163 5.99939 66.9253 4.82012 66.3819C4.38505 66.1737 3.90419 66.0581 3.40042 66.0581C2.62187 66.0581 1.88912 66.3356 1.31666 66.775C1.19072 66.8675 1.08768 66.96 0.984633 67.0641C0.389274 67.7 0.0114492 68.5441 0 69.4807Z" fill="#808080"/>
<path d="M0 72.3487V88.1552C0 88.768 0.160289 89.3346 0.44652 89.8434C0.629707 89.8202 0.812895 89.7971 0.996083 89.7624C1.84333 89.5774 2.59897 89.1496 3.19433 88.5483C3.6981 88.0396 4.08737 87.392 4.30491 86.6751C4.4423 86.2589 4.49955 85.8195 4.49955 85.357V76.8467C4.49955 75.9101 4.21331 75.0429 3.73245 74.3029C2.91955 73.1234 1.57999 72.3372 0.0457969 72.3372H0V72.3487Z" fill="#F7971E"/>
<path d="M0 69.4819C0 69.4935 0 69.4935 0 69.5051V75.2056H1.64869C2.46158 75.2056 3.19433 74.8703 3.70955 74.3037C4.19042 73.7949 4.47665 73.1127 4.47665 72.338C4.47665 71.9217 4.3965 71.5286 4.23621 71.1817C4.09882 70.8579 3.89274 70.5573 3.6523 70.3145C3.51491 70.1757 3.35462 70.0485 3.18288 69.9329C2.73637 69.6438 2.22115 69.4819 1.64869 69.4819H0Z" fill="white"/>
<path d="M0 85.3569V88.1552C0 88.768 0.160289 89.3346 0.44652 89.8433C0.309129 89.8549 0.171738 89.8665 0.0343477 89.8665H2.2555C3.49201 89.8665 4.4881 88.8605 4.4881 87.6117C4.4881 87.2764 4.4194 86.9642 4.29346 86.6867C4.17897 86.4438 4.03013 86.2126 3.83549 86.0276C3.43477 85.6113 2.87376 85.3569 2.2555 85.3569H0Z" fill="#F15723"/>
<path d="M15.6508 64.4631C15.8111 65.4344 16.7041 66.0935 17.6659 65.9316L22.9897 65.0644C23.9515 64.9025 24.6041 64.0006 24.4438 63.0293C24.295 62.058 23.3905 61.3989 22.4287 61.5608L17.1048 62.428C16.1546 62.5784 15.502 63.4918 15.6508 64.4631Z" fill="#4D4D4D"/>
<path d="M57.7036 27.7849H46.4719V78.4882H57.7036V27.7849Z" fill="#FEA629"/>
<path d="M24.0323 92.0637C25.6466 92.0637 26.9633 90.7339 26.9633 89.1035C26.9633 82.7208 32.104 77.5406 38.4125 77.5406C44.7325 77.5406 49.8617 82.7324 49.8617 89.1035C49.8617 90.7339 51.1784 92.0637 52.7927 92.0637C54.4185 92.0637 55.7237 90.7339 55.7237 89.1035C55.7237 79.4601 47.9497 71.6089 38.401 71.6089C28.8524 71.6089 21.0784 79.4601 21.0784 89.1035C21.1013 90.7455 22.4065 92.0637 24.0323 92.0637Z" fill="#B2B2B2"/>
<path d="M84.0262 92.0637C85.652 92.0637 86.9572 90.7339 86.9572 89.1035C86.9572 82.7208 92.0979 77.5406 98.4064 77.5406C104.715 77.5406 109.856 82.7324 109.856 89.1035C109.856 90.7339 111.172 92.0637 112.787 92.0637C114.401 92.0637 115.718 90.7339 115.718 89.1035C115.718 79.4601 107.944 71.6089 98.3949 71.6089C88.8463 71.6089 81.0723 79.4601 81.0723 89.1035C81.0952 90.7455 82.4004 92.0637 84.0262 92.0637Z" fill="#B2B2B2"/>
<path d="M11.8386 40.239C11.8386 42.8523 13.9338 44.9798 16.5328 44.9798H25.2457C27.8332 44.9798 29.9398 42.8638 29.9398 40.239V37.9727C29.9398 35.3595 27.8332 33.2319 25.2457 33.2319H16.5328C13.9453 33.2319 11.8386 35.3479 11.8386 37.9727V40.239V40.239Z" fill="white"/>
<path d="M36.7636 13.6906C36.901 14.7428 37.8513 15.4828 38.8932 15.3441L46.8733 14.315C47.9151 14.1762 48.6479 13.2165 48.5105 12.1759C48.3731 11.1236 47.4228 10.3836 46.3809 10.5108L38.4008 11.5399C37.3704 11.6787 36.6377 12.6384 36.7636 13.6906Z" fill="white"/>
<path d="M32.2642 73.1699C32.2642 74.0371 32.9511 74.7309 33.8098 74.7309H36.8782C37.7369 74.7309 38.4238 74.0371 38.4238 73.1699C38.4238 72.3027 37.7369 71.6089 36.8782 71.6089H33.8098C32.9511 71.6089 32.2642 72.3142 32.2642 73.1699Z" fill="white"/>
<path d="M49.8848 89.0812C49.8848 91.6944 51.9914 93.822 54.5789 93.822H82.4693C85.0568 93.822 87.1635 91.706 87.1635 89.0812V86.5721C87.1635 83.9589 85.0682 81.8313 82.4693 81.8313H54.5789C51.9914 81.8313 49.8848 83.9473 49.8848 86.5721V89.0812Z" fill="#B2B2B2"/>
<path d="M53.9485 90.1217C53.9485 91.1624 54.7843 92.018 55.8262 92.018H81.1976C82.2395 92.018 83.0753 91.1624 83.0753 90.1217V85.5428C83.0753 84.5021 82.2395 83.6465 81.1976 83.6465H55.8262C54.7957 83.6465 53.9485 84.5021 53.9485 85.5428V90.1217Z" fill="#CCCCCC"/>
<path d="M124.11 86.9878C124.11 88.0401 124.945 88.8841 125.987 88.8841H269.961C270.992 88.8841 271.839 88.0401 271.839 86.9878V75.0665C271.839 74.0143 271.003 73.1702 269.961 73.1702H125.987C124.945 73.1702 124.11 74.0143 124.11 75.0665V86.9878Z" fill="#333333"/>
<path d="M60.6238 71.8518C60.6238 74.465 62.719 76.5926 65.318 76.5926H279.029C281.617 76.5926 283.723 74.4766 283.723 71.8518V4.74078C283.723 2.12757 281.617 0 279.029 0H65.318C62.7304 0 60.6238 2.11601 60.6238 4.74078V71.8518V71.8518Z" fill="#FEA629"/>
<g opacity="0.1">
<path d="M64.459 9.40045V67.2033C64.459 69.8165 66.5656 71.9441 69.1532 71.9441H275.205C277.792 71.9441 279.899 69.8165 279.899 67.2033V9.40045C279.899 6.78724 277.792 4.65967 275.205 4.65967H69.1417C66.5542 4.65967 64.459 6.78724 64.459 9.40045Z" fill="#EA9620"/>
</g>
<g opacity="0.5">
<path d="M64.459 59.9069V67.1915C64.459 69.8048 66.5656 71.9323 69.1532 71.9323H275.205C277.792 71.9323 279.899 69.8048 279.899 67.1915V11.019C269.16 13.2391 229.809 18.4193 208.799 29.3C165.327 51.7898 100.845 62.5201 64.459 59.9069Z" fill="#EA9620"/>
</g>
<path d="M16.1543 25.0803V27.786H57.6234C57.6463 27.786 57.6806 27.786 57.7035 27.7745V21.2877C57.7035 20.247 56.8563 19.3914 55.8259 19.3914L18.032 23.184C17.2076 23.184 16.5092 23.7274 16.2573 24.479C16.1886 24.664 16.1543 24.8722 16.1543 25.0803Z" fill="#666666"/>
<path d="M5.0603 26.1326C5.0603 27.0576 5.79305 27.7861 6.69754 27.7861H57.6237C57.6466 27.7861 57.681 27.7861 57.7039 27.7745V24.4791C57.681 24.4675 57.6581 24.4675 57.6237 24.4675H6.69754C5.79305 24.4791 5.0603 25.2191 5.0603 26.1326Z" fill="#4D4D4D"/>
</g>
<path opacity="0.1" d="M280.219 101.547C280.219 103.67 219.232 105.403 143.966 105.403C68.7314 105.403 7.7124 103.67 7.7124 101.547C7.7124 99.4247 68.6992 97.6909 143.966 97.6909C219.2 97.6909 280.219 99.4247 280.219 101.547Z" fill="#1D1D1B"/>
<defs>
<clipPath id="clip0_1_965">
<rect width="285.361" height="100.262" fill="white"/>
</clipPath>
</defs>
</svg>
