<svg width="258" height="113" viewBox="0 0 258 113" fill="none" xmlns="http://www.w3.org/2000/svg">
<path d="M257.082 65.5708C257.082 66.0307 256.711 66.3959 256.244 66.3959C255.778 66.3959 255.407 66.0307 255.407 65.5708V57.1444C255.407 56.6845 255.778 56.3193 256.244 56.3193C256.711 56.3193 257.082 56.6845 257.082 57.1444V65.5708Z" fill="#F0851D"/>
<path d="M232.14 87.0913C232.14 89.3771 230.26 91.2301 227.94 91.2301H61.5077C59.1879 91.2301 57.3074 89.3771 57.3074 87.0913V70.6713C57.3074 68.3855 59.1879 66.5325 61.5077 66.5325H227.94C230.26 66.5325 232.14 68.3855 232.14 70.6713V87.0913Z" fill="#333333"/>
<path d="M232.14 87.0913C232.14 89.3771 230.26 91.2301 227.94 91.2301H61.5077C59.1879 91.2301 57.3074 89.3771 57.3074 87.0913V70.6713C57.3074 68.3855 59.1879 66.5325 61.5077 66.5325H227.94C230.26 66.5325 232.14 68.3855 232.14 70.6713V87.0913Z" fill="#333333"/>
<path d="M232.141 73.8909H100.381V78.8953H232.141V73.8909Z" fill="#1A1A1A"/>
<path d="M43.1004 16.5272C43.4573 16.8788 43.4573 17.4469 43.1004 17.7986L21.4127 39.1689C21.0558 39.5206 20.4793 39.5206 20.1224 39.1689C19.7655 38.8172 19.7655 38.2492 20.1224 37.8975L41.8101 16.5272C42.167 16.1755 42.7435 16.1755 43.1004 16.5272Z" fill="#4D4D4D"/>
<path d="M27.727 31.4195C28.3859 32.0688 28.3859 33.1102 27.727 33.7595L21.5913 39.8054C20.9325 40.4546 19.8756 40.4546 19.2167 39.8054C18.5578 39.1561 18.5578 38.1147 19.2167 37.4654L25.3524 31.4195C25.9975 30.7703 27.0682 30.7703 27.727 31.4195Z" fill="#333333"/>
<path d="M101.164 29.2681H92.6121V76.7156H101.164V29.2681Z" fill="#1A1A1A"/>
<path d="M101.15 4.76154C101.15 5.72185 100.368 6.49281 99.3932 6.49281H98.6245C97.65 6.49281 96.8676 5.72185 96.8676 4.76154C96.8676 3.81475 97.65 3.03027 98.6245 3.03027H99.3932C100.368 3.03027 101.15 3.81475 101.15 4.76154Z" fill="#4D4D4D"/>
<path d="M47.6035 87.091C47.6035 89.3768 45.723 91.2298 43.4032 91.2298H9.1147C6.79494 91.2298 4.91443 89.3768 4.91443 87.091V83.0333C4.91443 80.7475 6.79494 78.8945 9.1147 78.8945H43.4032C45.723 78.8945 47.6035 80.7475 47.6035 83.0333V87.091Z" fill="#FEA629"/>
<path d="M94.8086 67.1127C94.8086 69.3985 92.928 71.2515 90.6083 71.2515H9.1147C6.79494 71.2515 4.91443 69.3985 4.91443 67.1127V56.3058C4.91443 54.02 6.79494 52.167 9.1147 52.167H90.5946C92.9143 52.167 94.7948 54.02 94.7948 56.3058V67.1127H94.8086Z" fill="#FEA629"/>
<path d="M94.8077 78.016C94.8077 80.3018 92.9272 82.1548 90.6075 82.1548H51.803C49.4832 82.1548 6.25879 55.5906 6.25879 53.3048L47.6027 12.6471C47.6027 10.3613 49.4832 8.5083 51.803 8.5083H90.5937C92.9135 8.5083 94.794 10.3613 94.794 12.6471V78.016H94.8077Z" fill="#FEA629"/>
<path d="M211.633 85.5759C210.151 85.5759 208.943 84.7238 208.943 83.6688C208.943 76.2433 200.405 70.1974 189.932 70.1974C179.445 70.1974 170.921 76.2298 170.921 83.6688C170.921 84.7238 169.713 85.5759 168.231 85.5759C166.748 85.5759 165.54 84.7238 165.54 83.6688C165.54 74.1469 176.48 66.3967 189.918 66.3967C203.356 66.3967 214.296 74.1469 214.296 83.6688C214.324 84.7238 213.116 85.5759 211.633 85.5759Z" fill="white"/>
<path d="M88.9602 19.2608V36.4112C88.9602 38.9675 86.8601 41.0369 84.2658 41.0369H35.5097C34.6998 41.0369 33.986 41.0099 33.3546 40.9423C29.2504 40.55 28.6602 38.9269 30.8152 36.3977L39.257 27.836L47.7399 19.2473C47.7399 16.691 49.84 14.6216 52.4343 14.6216H84.2795C86.8601 14.6351 88.9602 16.7045 88.9602 19.2608Z" fill="#4D4D4D"/>
<path d="M25.8738 63.0155C25.8738 65.3013 23.9933 67.1543 21.6735 67.1543H10.4591C8.1393 67.1543 6.25879 65.3013 6.25879 63.0155V57.443C6.25879 55.1572 8.1393 53.3042 10.4591 53.3042H21.6735C23.9933 53.3042 25.8738 55.1572 25.8738 57.443V63.0155Z" fill="#999999"/>
<path d="M95.2062 80.3815C95.2062 82.6673 93.3257 84.5203 91.006 84.5203H4.20028C1.88052 84.5203 0 82.6673 0 80.3815V73.0236C0 70.7378 1.88052 68.8848 4.20028 68.8848H91.006C93.3257 68.8848 95.2062 70.7378 95.2062 73.0236V80.3815Z" fill="#EA9620"/>
<path d="M55.5913 17.5837C55.5913 18.5169 55.2344 19.4231 54.5206 20.1265L33.7252 40.6176C33.6016 40.7394 33.4781 40.8476 33.3408 40.9422C29.2366 40.55 28.6464 38.9269 30.8014 36.3977L47.7261 19.2473C47.7261 16.691 49.8262 14.6216 52.4205 14.6216H54.0128C54.1912 14.7298 54.3696 14.8786 54.5206 15.0409C55.2344 15.7442 55.5913 16.6775 55.5913 17.5837Z" fill="#1A1A1A"/>
<path d="M41.8649 41.0356H35.4959C34.686 41.0356 33.9722 41.0086 33.3408 40.941C29.2366 40.5487 28.6464 38.9256 30.8014 36.3964L39.2432 27.8347C40.3276 28.3352 41.1786 29.2549 41.508 30.4316L43.2376 36.8833C43.6493 38.4252 43.0728 40.0077 41.8649 41.0356Z" fill="#1A1A1A"/>
<path d="M55.2764 40.2532C55.8254 40.7942 55.8254 41.6599 55.2764 42.2009C54.7273 42.7419 53.8488 42.7419 53.2998 42.2009L45.7914 34.8024C45.2424 34.2614 45.2424 33.3958 45.7914 32.8547C46.3405 32.3137 47.219 32.3137 47.768 32.8547L55.2764 40.2532Z" fill="#1A1A1A"/>
<path d="M90.3606 61.2973C90.3606 63.5831 88.4801 65.4361 86.1603 65.4361H58.1447C55.825 65.4361 53.9445 63.5831 53.9445 61.2973V39.7511C53.9445 37.4653 55.825 35.6123 58.1447 35.6123H86.1603C88.4801 35.6123 90.3606 37.4653 90.3606 39.7511V61.2973Z" fill="#EA9620"/>
<path d="M90.3749 39.9004H29.5807V79.5167H90.3749V39.9004Z" fill="#FEA629"/>
<path d="M84.4857 26.2251C84.4857 28.5109 82.6052 30.3639 80.2854 30.3639H58.1447C55.825 30.3639 53.9445 28.5109 53.9445 26.2251V20.9772C53.9445 18.6914 55.825 16.8384 58.1447 16.8384H80.2854C82.6052 16.8384 84.4857 18.6914 84.4857 20.9772V26.2251Z" fill="white"/>
<path d="M85.1581 50.6929C85.1581 51.5044 84.4855 52.1671 83.6619 52.1671H74.3966C73.573 52.1671 72.9004 51.5044 72.9004 50.6929V48.9616C72.9004 48.1501 73.573 47.4873 74.3966 47.4873H83.6619C84.4855 47.4873 85.1581 48.1501 85.1581 48.9616V50.6929Z" fill="#1A1A1A"/>
<path d="M61.0137 84.6692C61.0137 85.1561 60.6156 85.5484 60.1214 85.5484H57.3899C56.8957 85.5484 56.4977 85.1561 56.4977 84.6692C56.4977 84.1823 56.8957 83.79 57.3899 83.79H60.1214C60.6156 83.79 61.0137 84.1823 61.0137 84.6692Z" fill="#4D4D4D"/>
<path d="M92.6122 69.2109C92.6122 70.347 91.6788 71.2668 90.5258 71.2668H29.965C28.8119 71.2668 27.8785 70.347 27.8785 69.2109C27.8785 68.0748 28.8119 67.155 29.965 67.155H90.5258C91.6788 67.155 92.6122 68.0748 92.6122 69.2109Z" fill="#EA9620"/>
<path d="M91.4864 65.7348C91.4864 66.5193 90.8412 67.1414 90.0588 67.1414H29.8961C29.0999 67.1414 28.4685 66.5057 28.4685 65.7348C28.4685 64.9503 29.1136 64.3281 29.8961 64.3281H90.0451C90.8412 64.3281 91.4864 64.9638 91.4864 65.7348Z" fill="#EA9620"/>
<path d="M92.1585 9.18401C92.1585 10.6718 90.9368 11.8756 89.4269 11.8756H54.5207C53.0108 11.8756 51.7892 10.6718 51.7892 9.18401C51.7892 7.6962 53.0108 6.49243 54.5207 6.49243H89.4269C90.9231 6.49243 92.1585 7.6962 92.1585 9.18401Z" fill="#EA9620"/>
<path d="M24.6933 63.3121C24.6933 65.0163 23.2932 66.3959 21.5637 66.3959H9.38841C7.65888 66.3959 6.25879 65.0163 6.25879 63.3121C6.25879 61.6079 7.65888 60.2283 9.38841 60.2283H21.55C23.2932 60.2283 24.6933 61.6079 24.6933 63.3121Z" fill="#EA9620"/>
<path d="M17.4327 58.1595C17.4327 60.1207 15.813 61.7167 13.8226 61.7167H11.0087C9.0184 61.7167 7.39868 60.1207 7.39868 58.1595C7.39868 56.1983 9.0184 54.6023 11.0087 54.6023H13.8226C15.813 54.6023 17.4327 56.1983 17.4327 58.1595Z" fill="white"/>
<path d="M24.241 58.1595C24.241 60.1207 22.6213 61.7167 20.631 61.7167H14.6188C12.6285 61.7167 11.0088 60.1207 11.0088 58.1595C11.0088 56.1983 12.6285 54.6023 14.6188 54.6023H20.631C22.6213 54.6023 24.241 56.1983 24.241 58.1595Z" fill="#E6E6E6"/>
<path d="M90.5946 78.0141C90.5946 80.2999 88.7141 82.1529 86.3943 82.1529H6.58907C4.26931 82.1529 2.38879 80.2999 2.38879 78.0141V75.4037C2.38879 73.1179 4.26931 71.2649 6.58907 71.2649H86.3943C88.7141 71.2649 90.5946 73.1179 90.5946 75.4037V78.0141Z" fill="#FEA629"/>
<path d="M75.5089 91.2304C75.5089 100.468 67.9045 107.962 58.5293 107.962C49.1405 107.962 41.5498 100.468 41.5498 91.2304C41.5498 81.9925 49.1542 74.4858 58.5293 74.4858C67.9182 74.4994 75.5089 81.9925 75.5089 91.2304Z" fill="#333333"/>
<path d="M77.9795 93.8548C76.648 93.8548 75.5773 92.7998 75.5773 91.4878C75.5773 82.2228 67.9317 74.6891 58.5292 74.6891C49.1266 74.6891 41.481 82.2228 41.481 91.4878C41.481 92.7998 40.3966 93.8548 39.0789 93.8548C37.7474 93.8548 36.6768 92.7998 36.6768 91.4878C36.6768 79.6124 46.4774 69.9417 58.5429 69.9417C70.5947 69.9417 80.409 79.5989 80.409 91.4878C80.3953 92.7998 79.3109 93.8548 77.9795 93.8548Z" fill="#1A1A1A"/>
<path d="M73.6829 91.6348C73.6829 99.8854 66.902 106.567 58.5289 106.567C50.1558 106.567 43.375 99.8854 43.375 91.6348C43.375 83.3842 50.1558 76.7026 58.5289 76.7026C66.902 76.7026 73.6829 83.3978 73.6829 91.6348Z" fill="#1A1A1A"/>
<path d="M68.3846 91.6083C68.3846 96.9644 63.9784 101.32 58.529 101.32C53.0796 101.32 48.6735 96.9779 48.6735 91.6083C48.6735 86.2387 53.0796 81.897 58.529 81.897C63.9784 81.897 68.3846 86.2522 68.3846 91.6083Z" fill="#B2B2B2"/>
<path d="M63.2515 91.5685C63.2515 94.1384 61.1376 96.2213 58.5296 96.2213C55.9216 96.2213 53.8077 94.1384 53.8077 91.5685C53.8077 88.9987 55.9216 86.9158 58.5296 86.9158C61.1376 86.9158 63.2515 88.9987 63.2515 91.5685Z" fill="#CCCCCC"/>
<path d="M62.016 91.6091C62.016 93.5026 60.4649 95.0445 58.5295 95.0445C56.6078 95.0445 55.043 93.5162 55.043 91.6091C55.043 89.7155 56.5941 88.1736 58.5295 88.1736C60.4512 88.1736 62.016 89.7155 62.016 91.6091Z" fill="#999999"/>
<path d="M58.53 99.1146C54.3297 99.1146 50.9119 95.7468 50.9119 91.608C50.9119 87.4692 54.3297 84.1013 58.53 84.1013C62.7303 84.1013 66.1482 87.4692 66.1482 91.608C66.1482 95.7468 62.7303 99.1146 58.53 99.1146ZM58.53 84.9399C54.7964 84.9399 51.7629 87.929 51.7629 91.608C51.7629 95.2869 54.7964 98.2761 58.53 98.2761C62.2636 98.2761 65.2971 95.2869 65.2971 91.608C65.3108 87.929 62.2636 84.9399 58.53 84.9399Z" fill="#CCCCCC"/>
<path d="M61.0137 84.6689C61.0137 85.1559 60.6156 85.5481 60.1214 85.5481H57.3899C56.8957 85.5481 56.4977 85.1559 56.4977 84.6689C56.4977 84.182 56.8957 83.7898 57.3899 83.7898H60.1214C60.6156 83.7898 61.0137 84.182 61.0137 84.6689Z" fill="#4D4D4D"/>
<path d="M52.4485 86.9553C52.9152 87.0906 53.1897 87.5775 53.0525 88.0509L52.2838 90.6342C52.1465 91.0941 51.6524 91.3646 51.172 91.2294C50.7053 91.0941 50.4307 90.6072 50.568 90.1338L51.3367 87.5504C51.4877 87.0906 51.9818 86.82 52.4485 86.9553Z" fill="#4D4D4D"/>
<path d="M65.6261 90.5652C65.2005 90.7951 64.6515 90.6463 64.4181 90.2135L63.1141 87.8465C62.8808 87.4137 63.0318 86.8862 63.471 86.6563C63.9102 86.4264 64.4456 86.5887 64.6789 87.008L65.9829 89.3749C66.23 89.8077 66.0653 90.3352 65.6261 90.5652Z" fill="#4D4D4D"/>
<path d="M60.5199 98.6144C60.2042 98.2357 60.2591 97.6812 60.6435 97.3701L62.7573 95.6659C63.1417 95.3548 63.7045 95.4089 64.0202 95.7876C64.3359 96.1663 64.281 96.7209 63.8966 97.0319L61.769 98.7361C61.3984 99.0337 60.8357 98.9796 60.5199 98.6144Z" fill="#4D4D4D"/>
<path d="M51.9 95.4212C52.2157 95.0425 52.7784 94.9883 53.1628 95.2859L55.2904 96.9766C55.6747 97.2877 55.7296 97.8422 55.4139 98.2209C55.0982 98.5997 54.5354 98.6538 54.1511 98.3427L52.0235 96.652C51.6529 96.3544 51.598 95.7999 51.9 95.4212Z" fill="#4D4D4D"/>
<path d="M206.926 91.2304C206.926 100.468 199.321 107.962 189.946 107.962C180.571 107.962 172.966 100.468 172.966 91.2304C172.966 81.9925 180.571 74.4858 189.946 74.4858C199.321 74.4994 206.926 81.9925 206.926 91.2304Z" fill="#333333"/>
<path d="M209.396 93.8548C208.065 93.8548 206.994 92.7998 206.994 91.4878C206.994 82.2228 199.348 74.6891 189.946 74.6891C180.543 74.6891 172.898 82.2228 172.898 91.4878C172.898 92.7998 171.827 93.8548 170.496 93.8548C169.164 93.8548 168.093 92.7998 168.093 91.4878C168.093 79.6124 177.894 69.9417 189.96 69.9417C202.011 69.9417 211.826 79.5989 211.826 91.4878C211.798 92.7998 210.728 93.8548 209.396 93.8548Z" fill="#1A1A1A"/>
<path d="M205.086 91.6348C205.086 99.8854 198.305 106.567 189.932 106.567C181.559 106.567 174.778 99.8854 174.778 91.6348C174.778 83.3842 181.559 76.7026 189.932 76.7026C198.305 76.7026 205.086 83.3978 205.086 91.6348Z" fill="#1A1A1A"/>
<path d="M24.6933 61.7702C24.6933 62.6223 23.9933 63.3121 23.1285 63.3121H10.9669C10.1021 63.3121 9.4021 62.6223 9.4021 61.7702C9.4021 60.9181 10.1021 60.2283 10.9669 60.2283H23.1285C23.9933 60.2283 24.6933 60.9181 24.6933 61.7702Z" fill="#F7971E"/>
<path d="M103.249 63.3671C103.249 64.5167 102.316 65.4365 101.149 65.4365C99.9826 65.4365 99.0492 64.5167 99.0492 63.3671V2.0694C99.0492 0.919735 99.9963 0 101.149 0C102.302 0 103.249 0.933261 103.249 2.0694V63.3671Z" fill="#E6E6E6"/>
<path d="M126.502 77.0697C126.502 79.3555 124.621 81.2085 122.302 81.2085L103.249 84.5223C100.93 84.5223 99.0492 82.6693 99.0492 80.3834V69.5766C99.0492 67.2907 100.93 65.4377 103.249 65.4377H122.302C124.621 65.4377 126.502 67.2907 126.502 69.5766V77.0697Z" fill="#B2B2B2"/>
<path d="M118.102 74.7413C118.102 77.0271 116.222 78.8801 113.902 78.8801H108.851C106.531 78.8801 104.65 77.0271 104.65 74.7413V73.0236C104.65 70.7378 106.531 68.8848 108.851 68.8848H113.902C116.222 68.8848 118.102 70.7378 118.102 73.0236V74.7413Z" fill="#333333"/>
<path d="M255.393 68.7509C255.393 71.0367 253.512 72.8897 251.192 72.8897H103.249C100.93 72.8897 99.0492 71.0367 99.0492 68.7509V56.3209C99.0492 54.0351 100.93 52.1821 103.249 52.1821H251.192C253.512 52.1821 255.393 54.0351 255.393 56.3209V68.7509Z" fill="#E6E6E6"/>
<path d="M255.393 56.3193H99.0492V68.7493H255.393V56.3193Z" fill="#CCCCCC"/>
<path d="M253.718 72.5771C253.718 73.3075 253.128 73.8891 252.387 73.8891H100.381C99.6394 73.8891 99.0492 73.3075 99.0492 72.5771C99.0492 71.8467 99.6394 71.2651 100.381 71.2651H252.373C253.114 71.2516 253.718 71.8467 253.718 72.5771Z" fill="#999999"/>
<path d="M199.801 91.6083C199.801 96.9644 195.395 101.32 189.946 101.32C184.496 101.32 180.09 96.9779 180.09 91.6083C180.09 86.2387 184.496 81.897 189.946 81.897C195.381 81.897 199.801 86.2522 199.801 91.6083Z" fill="#B2B2B2"/>
<path d="M194.654 91.5685C194.654 94.1384 192.54 96.2213 189.932 96.2213C187.324 96.2213 185.21 94.1384 185.21 91.5685C185.21 88.9987 187.324 86.9158 189.932 86.9158C192.54 86.9158 194.654 88.9987 194.654 91.5685Z" fill="#CCCCCC"/>
<path d="M193.418 91.6091C193.418 93.5026 191.854 95.0445 189.932 95.0445C188.01 95.0445 186.445 93.5162 186.445 91.6091C186.445 89.7155 188.01 88.1736 189.932 88.1736C191.854 88.1736 193.418 89.7155 193.418 91.6091Z" fill="#999999"/>
<path d="M189.945 99.1146C185.745 99.1146 182.327 95.7468 182.327 91.608C182.327 87.4692 185.745 84.1013 189.945 84.1013C194.145 84.1013 197.563 87.4692 197.563 91.608C197.549 95.7468 194.131 99.1146 189.945 99.1146ZM189.945 84.9399C186.211 84.9399 183.164 87.929 183.164 91.608C183.164 95.2869 186.198 98.2761 189.945 98.2761C193.679 98.2761 196.712 95.2869 196.712 91.608C196.712 87.929 193.679 84.9399 189.945 84.9399Z" fill="#CCCCCC"/>
<path d="M192.416 84.6689C192.416 85.1559 192.018 85.5481 191.524 85.5481H188.793C188.298 85.5481 187.9 85.1559 187.9 84.6689C187.9 84.182 188.298 83.7898 188.793 83.7898H191.524C192.018 83.7898 192.416 84.182 192.416 84.6689Z" fill="#4D4D4D"/>
<path d="M183.865 86.9553C184.332 87.0906 184.606 87.5775 184.469 88.0509L183.7 90.6342C183.563 91.0941 183.069 91.3646 182.588 91.2294C182.108 91.0941 181.847 90.6072 181.984 90.1338L182.753 87.5504C182.89 87.0906 183.384 86.82 183.865 86.9553Z" fill="#4D4D4D"/>
<path d="M197.043 90.5652C196.603 90.7951 196.068 90.6463 195.835 90.2135L194.531 87.8465C194.297 87.4137 194.448 86.8862 194.888 86.6563C195.327 86.4264 195.862 86.5887 196.096 87.008L197.4 89.3749C197.633 89.8077 197.468 90.3352 197.043 90.5652Z" fill="#4D4D4D"/>
<path d="M191.923 98.6144C191.607 98.2357 191.662 97.6812 192.046 97.3701L194.16 95.6659C194.545 95.3548 195.107 95.4089 195.423 95.7876C195.739 96.1663 195.684 96.7209 195.299 97.0319L193.186 98.7361C192.801 99.0337 192.238 98.9796 191.923 98.6144Z" fill="#4D4D4D"/>
<path d="M183.316 95.4212C183.632 95.0425 184.195 94.9883 184.579 95.2859L186.693 96.9766C187.077 97.2877 187.132 97.8422 186.83 98.2209C186.514 98.5997 185.952 98.6538 185.581 98.3427L183.453 96.652C183.069 96.3544 183 95.7999 183.316 95.4212Z" fill="#4D4D4D"/>
<path d="M254.555 60.2283H99.0492V65.5709H254.555V60.2283Z" fill="#B2B2B2"/>
<path d="M115.508 56.3193H114.177V69.2092H115.508V56.3193Z" fill="#F2F2F2"/>
<path d="M136.55 56.3193H135.219V69.2092H136.55V56.3193Z" fill="#F2F2F2"/>
<path d="M157.593 56.3193H156.261V69.2092H157.593V56.3193Z" fill="#F2F2F2"/>
<path d="M178.635 56.3193H177.303V69.2092H178.635V56.3193Z" fill="#F2F2F2"/>
<path d="M199.677 56.3193H198.346V69.2092H199.677V56.3193Z" fill="#F2F2F2"/>
<path d="M220.721 56.3193H219.389V69.2092H220.721V56.3193Z" fill="#F2F2F2"/>
<path d="M241.763 56.3193H240.432V69.2092H241.763V56.3193Z" fill="#F2F2F2"/>
<path d="M87.3551 38.7097C87.3551 39.3589 86.8198 39.8864 86.1609 39.8864H62.2084C61.5495 39.8864 61.0142 39.3589 61.0142 38.7097C61.0142 38.0605 61.5495 37.533 62.2084 37.533H86.1472C86.8198 37.533 87.3551 38.0605 87.3551 38.7097Z" fill="#EA9620"/>
<path d="M27.8779 74.4446C27.8779 75.2967 27.1778 76 26.2993 76H7.83732C6.97256 76 6.25879 75.3102 6.25879 74.4446C6.25879 73.5925 6.95884 72.8892 7.83732 72.8892H26.313C27.1778 72.8892 27.8779 73.579 27.8779 74.4446Z" fill="#EA9620"/>
<path opacity="0.1" d="M235.332 108.72C235.332 110.545 186.693 112.037 126.664 112.037C66.6613 112.037 17.9957 110.545 17.9957 108.72C17.9957 106.895 66.6356 105.404 126.664 105.404C186.667 105.404 235.332 106.895 235.332 108.72Z" fill="#1D1D1B"/>
</svg>
