<svg width="228" height="102" viewBox="0 0 228 102" fill="none" xmlns="http://www.w3.org/2000/svg">
<path d="M180.137 28.5352H163.221H95.9172V30.7461H106.2V40.0267H107.434V30.7461H121.497V40.0267H122.731V30.7461H136.793V40.0267H138.027V30.7461H152.09V40.0267H153.324V30.7461H163.247H167.386V40.0267H167.669H168.594H168.877V30.7461H180.137H182.939V40.0267H184.173V30.7461H198.236V40.0267H199.47V30.7461H209.187C211.604 30.7461 213.532 32.6999 213.532 35.0907V40.001H214.766V34.7051C214.766 31.3116 212.015 28.5352 208.596 28.5352H180.137Z" fill="#DAD1D1"/>
<path d="M222.402 44.1152V83.4744H12.6491L7.22465 81.7519C5.91354 81.3149 4.8595 80.3637 4.29392 79.1811C3.98543 78.5384 3.83118 77.8186 3.83118 77.073L3.85688 71.5201L3.88259 69.2321V68.1523L3.9083 65.8643V64.8102L3.93401 62.5222V60.08C3.95972 58.2547 4.37105 54.964 5.09088 51.9562C5.93925 48.4599 8.86997 45.8376 12.4434 45.4263L43.7817 40.1561C44.2444 40.079 44.6814 39.8991 45.0413 39.6677C45.2727 39.5134 45.4784 39.3335 45.6841 39.1278C45.8383 38.9736 45.9668 38.7936 46.0954 38.5879C46.3268 38.2023 46.481 37.7653 46.5324 37.3025C47.1494 32.2123 48.9747 16.916 48.9747 16.916C49.4117 13.651 49.6945 10.6175 50.3629 8.04665C50.4144 7.86669 50.4658 7.68674 50.5172 7.50678C50.5686 7.32682 50.62 7.14687 50.6971 6.96691C52.034 2.72506 54.9133 0 62.2144 0L87.2027 0.0257082C92.0358 0.0514163 95.9178 3.95906 95.9178 8.79219V39.4106H217.697C220.294 39.4106 222.402 41.5187 222.402 44.1152Z" fill="#FEA629"/>
<path d="M217.593 49.4883H130.391C115.943 49.4883 104.246 61.1855 104.246 75.6335V77.9215H217.593V49.4883Z" fill="#EA9620"/>
<path d="M3.93274 78.179C4.00986 78.5389 4.1384 78.8731 4.29265 79.2073C4.85823 80.3899 5.91227 81.3411 7.22338 81.7781L12.6478 83.5005H222.401V78.2047H3.93274V78.179Z" fill="#614F49"/>
<path d="M222.144 45.3754C224.844 45.1697 224.844 60.3632 222.17 60.3889C221.913 57.5867 221.887 48.2033 222.144 45.3754Z" fill="#FF4515"/>
<path d="M53.1904 80.4414V83.475H14.3453V80.4414C14.3453 69.7211 23.0347 61.0317 33.755 61.0317C44.4753 61.0317 53.1904 69.7211 53.1904 80.4414Z" fill="#614F49"/>
<path d="M188.929 80.4414V83.475H150.084V80.4414C150.084 69.7211 158.773 61.0317 169.494 61.0317C180.24 61.0317 188.929 69.7211 188.929 80.4414Z" fill="#614F49"/>
<path d="M51.3643 82.3695V83.4492H16.1442V82.4209C16.1442 82.061 16.1442 81.7268 16.1699 81.3669C16.7097 72.1891 24.3451 64.8879 33.6771 64.8879H33.8828C43.5491 64.9136 51.3643 72.7289 51.3643 82.3695Z" fill="#3E312C"/>
<path d="M3.18796 46.9439C0.437187 46.7896 0.437188 58.7696 3.13654 58.7953C3.39363 56.5844 3.41933 49.1805 3.18796 46.9439Z" fill="#FFE697"/>
<path d="M11.363 76.8409C11.363 78.5634 9.97476 79.9516 8.25232 79.9516H3.11069C1.38824 79.9516 0 78.5634 0 76.8409C0 75.1185 1.38824 73.7302 3.11069 73.7302H8.25232C9.97476 73.7302 11.363 75.1185 11.363 76.8409Z" fill="#EDEDED"/>
<path d="M10.9517 63.7053C10.9517 64.3223 10.4375 64.8622 9.79478 64.8622H3.8562V62.5742H9.82049C10.4375 62.5485 10.9517 63.0626 10.9517 63.7053Z" fill="#614F49"/>
<path d="M10.9523 67.0465C10.9523 67.6635 10.4382 68.1777 9.79547 68.1777H3.83118V65.8896H9.82118C10.4382 65.9154 10.9523 66.4038 10.9523 67.0465Z" fill="#614F49"/>
<path d="M10.9517 70.3899C10.9517 71.0326 10.4375 71.5468 9.79481 71.5468H3.80481V69.2588H9.79481C10.4375 69.2588 10.9517 69.7729 10.9517 70.3899Z" fill="#614F49"/>
<path d="M187.129 82.3695V83.4492H151.909V82.4209C151.909 82.061 151.909 81.7268 151.935 81.3669C152.475 72.1891 160.11 64.8879 169.442 64.8879H169.648C179.288 64.9136 187.129 72.7289 187.129 82.3695Z" fill="#3E312C"/>
<path d="M9.66624 45.426C7.37821 45.426 5.68148 45.6317 4.52461 46.0687L4.62744 46.7886C4.88452 49.128 4.85882 56.6348 4.57603 58.9742L4.4989 59.7198C5.65577 60.1825 7.37821 60.4396 9.64053 60.4653C17.6615 60.491 41.5444 57.0204 41.5701 52.8814C41.5444 48.7167 17.7129 45.4517 9.66624 45.426Z" fill="#EA9620"/>
<path d="M4.62698 46.7892L4.54986 46.0437C3.93286 46.2751 3.44441 46.5836 3.13591 46.9435C2.00475 48.306 2.75029 50.5426 2.75029 52.8821C2.75029 55.2472 1.92763 57.381 3.08449 58.7692C3.39299 59.1292 3.85574 59.4376 4.47274 59.6947L4.54986 58.9492C4.85836 56.6355 4.88407 49.1287 4.62698 46.7892Z" fill="#614F49"/>
<path d="M3.18796 46.9439C0.437187 46.7896 0.437188 58.7696 3.13654 58.7953C3.39363 56.5844 3.41933 49.1805 3.18796 46.9439Z" fill="#FFE697"/>
<path d="M217.594 77.9481C217.594 79.6705 218.777 81.0588 220.216 81.0588H224.587C226.052 81.0588 227.209 79.6705 227.209 77.9481C227.209 76.2256 226.027 74.8374 224.587 74.8374H220.216C218.777 74.8374 217.594 76.2256 217.594 77.9481Z" fill="#EDEDED"/>
<path d="M68.3066 76.4823H59.8743C57.6891 76.4823 55.9153 74.7084 55.9153 72.5232V11.0036C55.9153 7.99574 58.3576 5.55347 61.3654 5.55347H84.3742C87.3821 5.55347 89.8243 7.99574 89.8243 11.0036V72.5232C89.8243 74.7084 88.0505 76.4823 85.8653 76.4823H77.433H68.3066Z" fill="#FEA629"/>
<path d="M53.1897 9.89769V36.0172C53.1897 37.7396 51.8015 39.1279 50.079 39.1279H45.6572C45.8115 38.9736 45.94 38.7937 46.0686 38.588C46.2999 38.2024 46.4542 37.7653 46.5056 37.3026C47.1226 32.2124 48.9479 16.916 48.9479 16.916C49.3849 13.6511 49.6677 10.6175 50.3361 8.04671C50.3875 7.86675 50.4389 7.68679 50.4904 7.50684H50.7989C52.11 7.50684 53.1897 8.58658 53.1897 9.89769Z" fill="#ABEDE3"/>
<path d="M50.7736 6.9668H50.6451C50.5679 7.14675 50.5165 7.32671 50.4651 7.50667C50.4137 7.68663 50.3623 7.86658 50.3108 8.04654H50.7736C51.8019 8.04654 52.6246 8.8692 52.6246 9.89753V36.017C52.6246 37.431 51.4677 38.5878 50.0538 38.5878H46.0433C45.9405 38.7935 45.7862 38.9734 45.632 39.1277C45.452 39.3334 45.2206 39.5133 44.9893 39.6676H50.0538C52.0847 39.6676 53.73 38.0222 53.73 35.9913V9.89753C53.73 8.27791 52.3932 6.9668 50.7736 6.9668Z" fill="#614F49"/>
<path d="M84.6315 39.1276H61.1343C59.4632 39.1276 58.1007 37.7651 58.1007 36.0941V10.5402C58.1007 8.86912 59.4632 7.50659 61.1343 7.50659H84.6315C86.3025 7.50659 87.6651 8.86912 87.6651 10.5402V36.0941C87.6651 37.7651 86.3283 39.1276 84.6315 39.1276Z" fill="#ABEDE3"/>
<path d="M84.6316 39.6676H61.1343C59.1548 39.6676 57.5609 38.0737 57.5609 36.0941V10.5402C57.5609 8.5607 59.1548 6.9668 61.1343 6.9668H84.6316C86.6111 6.9668 88.205 8.5607 88.205 10.5402V36.0941C88.2307 38.0737 86.6111 39.6676 84.6316 39.6676ZM61.1343 8.04654C59.7461 8.04654 58.6407 9.1777 58.6407 10.5402V36.0941C58.6407 37.4824 59.7718 38.5878 61.1343 38.5878H84.6316C86.0198 38.5878 87.1253 37.4567 87.1253 36.0941V10.5402C87.1253 9.15199 85.9941 8.04654 84.6316 8.04654H61.1343Z" fill="#614F49"/>
<path d="M86.0194 44.0893C86.0194 44.8348 83.9884 45.4261 81.4947 45.4261C79.001 45.4261 76.9701 44.8348 76.9701 44.0893C76.9701 43.3437 79.001 42.7524 81.4947 42.7524C83.9884 42.7524 86.0194 43.3437 86.0194 44.0893Z" fill="#614F49"/>
<path d="M203.659 66.9181C203.685 69.2833 208.981 71.2885 217.13 71.2628C220.627 71.2628 224.252 70.9286 225.126 70.3373C226.283 69.5404 226.205 64.3473 225.049 63.5761C224.175 62.9591 220.575 62.6763 217.028 62.6763C208.904 62.6763 203.634 64.5273 203.659 66.9181Z" fill="#FEA629"/>
<path d="M224.971 63.2921C226.771 63.1893 226.796 70.5418 224.997 70.5418C224.817 69.205 224.791 64.6546 224.971 63.2921Z" fill="#FFE697"/>
<g opacity="0.65">
<path opacity="0.65" d="M86.2254 10.5412V12.0322L74.6568 37.689H64.4249L77.3047 8.94727H84.6572C85.5056 8.94727 86.2254 9.66709 86.2254 10.5412Z" fill="white"/>
<path opacity="0.65" d="M75.9937 8.94727L63.1653 37.689H61.1087C60.6973 37.689 60.3117 37.5347 60.0289 37.2777L72.6259 8.94727H75.9937V8.94727Z" fill="white"/>
</g>
<path d="M62.1871 36.1443C62.1871 36.6842 61.7501 37.1212 61.2102 37.1212H58.0224C57.4825 37.1212 57.0198 36.6842 57.0198 36.1186V23.5987C57.0198 22.7761 57.6882 22.1077 58.5108 22.1077H60.7989C61.5701 22.1077 62.1871 22.7247 62.1871 23.4959V36.1443Z" fill="#614F49"/>
<path d="M52.9585 42.7525C52.8299 42.7525 52.6757 42.7268 52.5471 42.6497C52.1101 42.4183 51.9302 41.8784 52.1615 41.4414L58.1515 29.8727C58.3829 29.4357 58.9228 29.2557 59.3598 29.4871C59.7968 29.7185 59.9768 30.2583 59.7454 30.6954L53.7554 42.264C53.6012 42.5725 53.2927 42.7525 52.9585 42.7525Z" fill="#3C3C3B"/>
<path d="M27.38 82.8825C27.38 86.4045 30.2336 89.2581 33.7556 89.2581C37.2776 89.2581 40.1312 86.4045 40.1312 82.8825C40.1312 79.3604 37.2776 76.5068 33.7556 76.5068C30.2336 76.5068 27.38 79.3604 27.38 82.8825Z" fill="white"/>
<path d="M33.7552 66.8914C24.9116 66.8914 17.7648 74.0382 17.7648 82.8818C17.7648 91.7254 24.9373 98.8723 33.7552 98.8723C42.5731 98.8723 49.7457 91.6997 49.7457 82.8818C49.7457 74.0382 42.5988 66.8914 33.7552 66.8914ZM33.7552 93.7307C27.7652 93.7307 22.8807 88.8718 22.8807 82.8818C22.8807 76.8918 27.7395 72.033 33.7552 72.033C39.7452 72.033 44.6041 76.8918 44.6041 82.8818C44.6041 88.8718 39.7452 93.7307 33.7552 93.7307Z" fill="#1D1715"/>
<path d="M22.5209 82.8807C22.5209 89.0764 27.5597 94.1152 33.7553 94.1152C39.951 94.1152 44.9898 89.0764 44.9898 82.8807C44.9898 76.685 39.951 71.6462 33.7553 71.6462C27.5597 71.6462 22.5209 76.6593 22.5209 82.8807ZM28.5623 86.2485C28.1253 85.6058 27.8425 84.8602 27.6625 84.089C27.5854 83.7034 27.534 83.292 27.534 82.8807C27.534 82.4437 27.5854 82.0066 27.6882 81.5696C27.8425 80.7983 28.151 80.0785 28.588 79.4358C29.0507 78.7417 29.6677 78.1247 30.3619 77.6619C31.0046 77.2506 31.7244 76.9421 32.4956 76.7879C32.907 76.7107 33.3183 76.6593 33.7553 76.6593C34.1924 76.6593 34.6037 76.7107 35.015 76.7879C35.7863 76.9421 36.5061 77.2506 37.1488 77.6619C37.8686 78.1247 38.4599 78.7417 38.9227 79.4358C39.3597 80.0785 39.6682 80.7983 39.8225 81.5696C39.8996 81.9809 39.951 82.418 39.951 82.8807C39.951 83.292 39.8996 83.7034 39.8225 84.089C39.6682 84.8602 39.3597 85.6058 38.9484 86.2485C38.4856 86.9683 37.8944 87.5596 37.1745 88.048C36.5318 88.4851 35.7863 88.7936 35.015 88.9478C34.6037 89.0249 34.1924 89.0764 33.7553 89.0764C33.3183 89.0764 32.907 89.0249 32.4956 88.9478C31.6987 88.7936 30.9789 88.4594 30.3104 88.048C29.6163 87.5596 29.025 86.9683 28.5623 86.2485ZM27.5083 74.8083C28.9222 73.7029 30.6189 72.9574 32.4956 72.7517V75.811C31.4416 75.9909 30.4904 76.4022 29.642 76.9935L27.5083 74.8083ZM35.015 72.726C36.8917 72.9574 38.5885 73.7029 40.0024 74.7826L37.8429 76.9421C36.9946 76.3508 36.0434 75.9652 34.9893 75.7595V72.726H35.015ZM41.802 76.5822C42.9074 77.9962 43.653 79.7186 43.9101 81.5953H40.8508C40.6451 80.5413 40.2338 79.5901 39.6425 78.7417L41.802 76.5822ZM43.9101 84.089C43.6787 85.9657 42.9589 87.6881 41.8277 89.1278L39.6682 86.9683C40.2595 86.1199 40.6708 85.143 40.8508 84.089H43.9101ZM40.0538 90.9274C38.6399 92.0585 36.8917 92.804 35.015 93.0354V89.9762C36.0691 89.7962 37.0717 89.3849 37.8943 88.7679L40.0538 90.9274ZM32.4956 93.0097C30.5932 92.7783 28.8708 92.0328 27.4568 90.9016L29.6163 88.7422C30.4647 89.3335 31.4416 89.7705 32.4956 89.9504V93.0097ZM25.683 89.1278C24.5775 87.7138 23.832 85.9657 23.6006 84.089H26.6599C26.8398 85.143 27.2512 86.1199 27.8425 86.9683L25.683 89.1278ZM23.6263 81.5696C23.8577 79.6929 24.6032 77.9962 25.7087 76.5822L27.8682 78.7417C27.2769 79.5901 26.8656 80.5413 26.6599 81.5953H23.6263V81.5696Z" fill="#DAD1D1"/>
<path d="M163.145 82.8825C163.145 86.4045 165.999 89.2581 169.521 89.2581C173.043 89.2581 175.896 86.4045 175.896 82.8825C175.896 79.3604 173.043 76.5068 169.521 76.5068C165.973 76.5068 163.145 79.3604 163.145 82.8825Z" fill="white"/>
<path d="M169.52 66.8914C160.677 66.8914 153.53 74.0382 153.53 82.8818C153.53 91.7254 160.702 98.8723 169.52 98.8723C178.338 98.8723 185.511 91.6997 185.511 82.8818C185.511 74.0382 178.338 66.8914 169.52 66.8914ZM169.52 93.7307C163.53 93.7307 158.646 88.8718 158.646 82.8818C158.646 76.8918 163.504 72.033 169.52 72.033C175.51 72.033 180.369 76.8918 180.369 82.8818C180.369 88.8718 175.51 93.7307 169.52 93.7307Z" fill="#1D1715"/>
<path d="M158.26 82.8807C158.26 89.0764 163.298 94.1152 169.494 94.1152C175.69 94.1152 180.729 89.0764 180.729 82.8807C180.729 76.685 175.69 71.6462 169.494 71.6462C163.298 71.6462 158.26 76.6593 158.26 82.8807ZM164.301 86.2485C163.864 85.6058 163.581 84.8602 163.401 84.089C163.324 83.7034 163.273 83.292 163.273 82.8807C163.273 82.4437 163.324 82.0066 163.427 81.5696C163.581 80.7983 163.89 80.0785 164.327 79.4358C164.79 78.7417 165.407 78.1247 166.126 77.6619C166.769 77.2506 167.489 76.9421 168.26 76.7879C168.671 76.7107 169.083 76.6593 169.52 76.6593C169.957 76.6593 170.368 76.7107 170.78 76.7879C171.551 76.9421 172.271 77.2506 172.913 77.6619C173.633 78.1247 174.224 78.7417 174.713 79.4358C175.124 80.0785 175.458 80.7983 175.613 81.5696C175.69 81.9809 175.741 82.418 175.741 82.8807C175.741 83.292 175.69 83.7034 175.613 84.089C175.458 84.8602 175.15 85.6058 174.739 86.2485C174.276 86.9683 173.685 87.5596 172.965 88.048C172.322 88.4851 171.576 88.7936 170.805 88.9478C170.394 89.0249 169.983 89.0764 169.546 89.0764C169.108 89.0764 168.697 89.0249 168.286 88.9478C167.489 88.7936 166.769 88.4594 166.101 88.048C165.381 87.5596 164.764 86.9683 164.301 86.2485ZM163.247 74.8083C164.661 73.7029 166.383 72.9574 168.234 72.7517V75.811C167.18 75.9909 166.229 76.4022 165.381 76.9935L163.247 74.8083ZM170.754 72.726C172.63 72.9574 174.327 73.7029 175.741 74.7826L173.582 76.9421C172.733 76.3508 171.782 75.9652 170.728 75.7595V72.726H170.754ZM177.541 76.5822C178.646 77.9962 179.392 79.7186 179.649 81.5953H176.59C176.41 80.5413 175.973 79.5901 175.381 78.7417L177.541 76.5822ZM179.649 84.089C179.417 85.9657 178.698 87.6881 177.566 89.1278L175.407 86.9683C175.998 86.1199 176.41 85.143 176.59 84.089H179.649ZM175.818 90.9274C174.404 92.0585 172.656 92.804 170.78 93.0354V89.9762C171.834 89.7962 172.836 89.3849 173.685 88.7679L175.818 90.9274ZM168.26 93.0097C166.358 92.7783 164.635 92.0328 163.221 90.9016L165.381 88.7422C166.229 89.3335 167.206 89.7705 168.26 89.9504V93.0097ZM161.422 89.1278C160.316 87.7138 159.571 85.9657 159.339 84.089H162.399C162.579 85.143 162.99 86.1199 163.581 86.9683L161.422 89.1278ZM159.365 81.5696C159.596 79.6929 160.342 77.9704 161.473 76.5565L163.633 78.716C163.041 79.5644 162.63 80.5156 162.424 81.5696H159.365Z" fill="#DAD1D1"/>
<path opacity="0.1" d="M113.115 101.984C173.387 101.984 222.246 100.592 222.246 98.8736C222.246 97.1556 173.387 95.7629 113.115 95.7629C52.8439 95.7629 3.98425 97.1556 3.98425 98.8736C3.98425 100.592 52.8439 101.984 113.115 101.984Z" fill="#1D1D1B"/>
</svg>
