<svg width="252" height="146" viewBox="0 0 252 146" fill="none" xmlns="http://www.w3.org/2000/svg">
<path opacity="0.1" d="M217.337 142.14C217.337 143.966 168.697 145.457 108.668 145.457C48.6655 145.457 0 143.966 0 142.14C0 140.315 48.6398 138.824 108.668 138.824C168.671 138.824 217.337 140.315 217.337 142.14Z" fill="#1D1D1B"/>
<g clip-path="url(#clip0_1_1175)">
<path d="M251.939 39.6619H186.242V44.2567H248.066L251.939 39.6619Z" fill="#C6C6C5"/>
<path d="M249.431 42.627H186.242V44.1881H248.066L249.431 42.627Z" fill="#D5D5D5"/>
<path d="M248.066 44.2563H182.369L177.068 48.8407C177.068 48.8407 229.298 48.8407 236.986 48.8407C244.669 48.8407 248.066 44.2563 248.066 44.2563Z" fill="#352E35"/>
<path d="M209.17 69.168C211.218 69.4813 213.52 65.6958 214.324 60.7094C215.123 55.7229 213.25 51.6398 209.636 51.3057L209.17 69.168Z" fill="#F8B133"/>
<path d="M33.1124 104.568C38.0915 104.568 41.9225 93.8018 42.6421 91.6401L40.4303 90.9248C38.8641 95.6397 35.5623 102.276 33.1124 102.276C30.5938 102.276 27.7417 95.6815 26.5247 90.9927L24.2706 91.5618C24.8315 93.7391 27.9163 104.568 33.1124 104.568Z" fill="#9C9B9B"/>
<path d="M26.4985 132.377C28.0647 127.663 31.3771 121.026 33.8164 121.026C36.3403 121.026 39.1923 127.616 40.4093 132.304L42.6634 131.735C42.0973 129.568 39.0177 118.739 33.8164 118.739C28.8425 118.739 25.0063 129.506 24.292 131.662L26.4985 132.377Z" fill="#9C9B9B"/>
<path d="M21.1329 110.453C23.7839 110.453 26.1332 109.905 27.1597 108.249C29.7578 104.067 22.4558 95.2117 20.9636 93.4834L19.191 94.9663C22.4399 98.7466 26.456 104.997 25.1755 107.049C23.8738 109.148 15.8416 107.868 10.8202 106.338L10.1376 108.526C11.6086 108.975 16.7782 110.453 21.1329 110.453Z" fill="#9C9B9B"/>
<path d="M45.9648 129.824L47.7374 128.336C44.3457 124.405 39.9169 117.653 41.1762 115.622C42.4673 113.539 50.1291 114.959 54.9072 116.573L55.6638 114.406C53.3939 113.638 41.9276 110.025 39.1973 114.427C36.5939 118.614 44.3775 127.986 45.9648 129.824Z" fill="#9C9B9B"/>
<path d="M46.0176 110.944C49.9914 110.944 54.3515 109.952 55.6743 109.628L55.1134 107.399C50.1978 108.605 42.3719 109.44 41.192 107.388C39.9379 105.216 44.5625 99.1124 48.2453 95.4731L46.605 93.8545C44.9117 95.5253 36.615 104.073 39.176 108.527C40.2395 110.375 43.0175 110.944 46.0176 110.944Z" fill="#9C9B9B"/>
<path d="M19.4024 129.923C21.1856 128.288 29.9797 119.929 27.3976 115.449C24.9265 111.157 12.6613 113.674 10.2167 114.222L10.7352 116.462C15.9419 115.292 24.1857 114.52 25.3763 116.572C26.5986 118.702 21.593 124.79 17.8203 128.231L19.4024 129.923Z" fill="#9C9B9B"/>
<path d="M5.56592 111.643C5.56592 126.446 17.7254 138.439 32.721 138.439C47.7165 138.439 59.8707 126.446 59.8707 111.643C59.8707 96.8508 47.7165 84.8521 32.721 84.8521C17.7254 84.8521 5.56592 96.8508 5.56592 111.643ZM13.3653 111.643C13.3653 100.939 22.1595 92.2664 33.012 92.2664C43.8539 92.2664 52.648 100.944 52.648 111.643C52.648 122.352 43.8486 131.03 33.012 131.03C22.1542 131.03 13.3653 122.352 13.3653 111.643Z" fill="#9C9B9B"/>
<path d="M2.5708 111.643C2.5708 128.075 16.0689 141.394 32.7154 141.394C49.3672 141.394 62.86 128.075 62.86 111.643C62.86 95.2114 49.3672 81.9021 32.7154 81.9021C16.0689 81.9021 2.5708 95.2166 2.5708 111.643ZM11.2327 111.643C11.2327 99.7644 20.9952 90.131 33.0382 90.131C45.0812 90.131 54.849 99.7644 54.849 111.643C54.849 123.532 45.0812 133.166 33.0382 133.166C20.9952 133.166 11.2327 123.532 11.2327 111.643Z" fill="#352E35"/>
<path d="M24.699 111.644C24.699 116.191 28.4294 119.878 33.0381 119.878C37.6415 119.878 41.3719 116.191 41.3719 111.644C41.3719 107.106 37.6415 103.42 33.0381 103.42C28.4294 103.42 24.699 107.106 24.699 111.644Z" fill="#828281"/>
<path d="M30.0437 111.642C30.0437 113.277 31.3824 114.598 33.0333 114.598C34.6895 114.598 36.0282 113.277 36.0282 111.642C36.0282 110.008 34.6895 108.698 33.0333 108.698C31.3877 108.698 30.0437 110.013 30.0437 111.642Z" fill="#C6C6C5"/>
<path d="M27.1492 111.644C27.1492 114.86 29.7842 117.455 33.0384 117.455C36.2873 117.455 38.9276 114.855 38.9276 111.644C38.9276 108.438 36.2926 105.837 33.0384 105.837C29.7842 105.843 27.1492 108.438 27.1492 111.644Z" stroke="#9C9B9B" stroke-width="0.33" stroke-linecap="round" stroke-linejoin="round"/>
<path d="M31.8638 111.644C31.8638 112.286 32.3876 112.808 33.0384 112.808C33.6893 112.808 34.2184 112.286 34.2184 111.644C34.2184 111.007 33.6893 110.484 33.0384 110.484C32.3876 110.49 31.8638 111.007 31.8638 111.644Z" fill="#6F6F6E"/>
<path d="M51.9813 71.7995C50.4045 71.0215 48.5102 71.6585 47.7271 73.2353L30.1441 108.657C29.3715 110.224 30.0118 112.135 31.5833 112.907C33.1495 113.696 35.0544 113.043 35.8375 111.477L53.4206 76.0549C54.1931 74.478 53.5476 72.5774 51.9813 71.7995Z" fill="#C6C6C5"/>
<path d="M33.6043 109.952L51.1874 74.5304C51.6795 73.5383 51.5948 72.4157 51.0815 71.5281C51.3884 71.5751 51.69 71.6586 51.9758 71.7996C53.542 72.5776 54.1875 74.4781 53.415 76.0498L35.8373 111.477C35.0541 113.043 33.1546 113.696 31.583 112.907C31.0063 112.631 30.5512 112.182 30.2496 111.665C31.5936 111.884 32.9694 111.231 33.6043 109.952Z" fill="#D5D5D5"/>
<path d="M45.3032 16.0035C43.3348 15.3874 42.885 11.3199 44.3031 6.91833C45.7212 2.52193 49.1553 2.90017e-06 52.5417 1.27924L45.3032 16.0035Z" fill="#F8B133"/>
<path d="M71.014 122.05H137.589L142.568 93.8542C142.568 93.8542 152.686 82.6283 170.041 80.6494C201.879 79.0099 209.398 122.05 209.398 122.05H218.853C218.853 122.05 222.864 119.241 222.864 114.604C222.864 106.62 218.536 80.3256 205.879 69.4756C205.847 59.6124 205.847 42.4498 205.847 42.4498C205.847 42.4498 125.583 48.6371 119.927 48.6371C119.938 64.2125 130.933 66.3324 130.6 84.8578C130.271 103.378 125.292 108.699 125.292 108.699H81.9671L52.5474 61.0274L59.8705 26.4985C59.8705 26.4985 63.8231 13.5495 64.6909 10.0825C65.564 6.61548 65.6063 3.48266 62.2622 2.5898C58.9181 1.69173 52.5421 0 52.5421 0L44.4411 17.1835L49.1609 22.6712C49.1609 22.6712 45.1342 34.5603 42.642 41.6718C37.3137 56.866 27.7152 65.3194 27.7152 65.3194L28.3343 74.6343L57.9868 89.5257L70.9135 119.538L71.014 122.05Z" fill="#FEA629"/>
<path d="M173.105 104.568C178.084 104.568 181.915 93.8018 182.629 91.6401L180.423 90.9248C178.857 95.6397 175.544 102.276 173.105 102.276C170.586 102.276 167.734 95.6815 166.512 90.9927L164.263 91.5618C164.819 93.7391 167.909 104.568 173.105 104.568Z" fill="#9C9B9B"/>
<path d="M166.49 132.377C168.062 127.663 171.369 121.026 173.813 121.026C176.332 121.026 179.184 127.616 180.406 132.304L182.655 131.735C182.089 129.568 179.015 118.739 173.813 118.739C168.834 118.739 165.003 129.506 164.284 131.662L166.49 132.377Z" fill="#9C9B9B"/>
<path d="M161.131 110.453C163.776 110.453 166.126 109.905 167.157 108.249C169.755 104.067 162.453 95.2117 160.961 93.4834L159.189 94.9663C162.438 98.7466 166.454 104.997 165.173 107.049C163.871 109.148 155.845 107.868 150.823 106.338L150.135 108.526C151.601 108.975 156.776 110.453 161.131 110.453Z" fill="#9C9B9B"/>
<path d="M185.957 129.824L187.724 128.336C184.338 124.405 179.904 117.653 181.163 115.622C182.454 113.539 190.116 114.959 194.894 116.573L195.651 114.406C193.381 113.638 181.914 110.025 179.184 114.427C176.586 118.614 184.375 127.986 185.957 129.824Z" fill="#9C9B9B"/>
<path d="M186.01 110.944C189.984 110.944 194.344 109.952 195.672 109.628L195.106 107.399C190.185 108.605 182.365 109.44 181.185 107.388C179.931 105.216 184.555 99.1124 188.238 95.4731L186.592 93.8545C184.899 95.5253 176.602 104.073 179.163 108.527C180.232 110.375 183.005 110.944 186.01 110.944Z" fill="#9C9B9B"/>
<path d="M159.395 129.923C161.183 128.288 169.967 119.929 167.39 115.449C164.919 111.157 152.648 113.674 150.214 114.222L150.728 116.462C155.934 115.292 164.183 114.52 165.369 116.572C166.591 118.702 161.58 124.79 157.813 128.231L159.395 129.923Z" fill="#9C9B9B"/>
<path d="M145.558 111.643C145.558 126.446 157.712 138.439 172.713 138.439C187.704 138.439 199.863 126.446 199.863 111.643C199.863 96.8508 187.709 84.8521 172.713 84.8521C157.712 84.8521 145.558 96.8508 145.558 111.643ZM153.358 111.643C153.358 100.939 162.152 92.2664 172.999 92.2664C183.846 92.2664 192.646 100.944 192.646 111.643C192.646 122.352 183.846 131.03 172.999 131.03C162.152 131.03 153.358 122.352 153.358 111.643Z" fill="#9C9B9B"/>
<path d="M142.568 111.643C142.568 128.075 156.061 141.394 172.713 141.394C189.36 141.394 202.847 128.075 202.847 111.643C202.847 95.2114 189.36 81.9021 172.713 81.9021C156.061 81.9021 142.568 95.2166 142.568 111.643ZM151.225 111.643C151.225 99.7644 160.988 90.131 173.036 90.131C185.079 90.131 194.841 99.7644 194.841 111.643C194.841 123.532 185.079 133.166 173.036 133.166C160.988 133.166 151.225 123.532 151.225 111.643Z" fill="#352E35"/>
<path d="M164.692 111.644C164.692 116.191 168.427 119.878 173.036 119.878C177.634 119.878 181.37 116.191 181.37 111.644C181.37 107.106 177.634 103.42 173.036 103.42C168.422 103.42 164.692 107.106 164.692 111.644Z" fill="#828281"/>
<path d="M170.041 111.642C170.041 113.277 171.375 114.598 173.036 114.598C174.692 114.598 176.026 113.277 176.026 111.642C176.026 110.008 174.692 108.698 173.036 108.698C171.375 108.698 170.041 110.013 170.041 111.642Z" fill="#C6C6C5"/>
<path d="M167.142 111.644C167.142 114.86 169.777 117.455 173.031 117.455C176.28 117.455 178.915 114.855 178.915 111.644C178.915 108.438 176.28 105.837 173.031 105.837C169.777 105.843 167.142 108.438 167.142 111.644Z" stroke="#9C9B9B" stroke-width="0.33" stroke-linecap="round" stroke-linejoin="round"/>
<path d="M171.856 111.644C171.856 112.286 172.385 112.808 173.03 112.808C173.681 112.808 174.205 112.286 174.205 111.644C174.205 111.007 173.681 110.484 173.03 110.484C172.379 110.49 171.856 111.007 171.856 111.644Z" fill="#6F6F6E"/>
<path d="M28.3339 83.9911C25.1591 83.9911 22.1007 84.4558 19.1905 85.2808C19.1905 85.2808 18.6826 78.0178 28.3339 74.6292C51.9067 74.6292 71.0137 93.4835 71.0137 116.75C71.0137 117.685 70.9713 118.609 70.9131 119.528C67.8124 118.16 64.6853 116.839 61.4787 115.721C60.9231 98.1097 46.3138 83.9911 28.3339 83.9911Z" fill="#241E23"/>
<path d="M175.11 75.6887C175.115 75.6731 175.121 75.6574 175.126 75.647C174.306 75.5948 173.475 75.553 172.639 75.553C172.623 75.553 172.613 75.553 172.597 75.553H172.549C171.713 75.553 170.882 75.5895 170.062 75.647C170.068 75.6574 170.073 75.6731 170.078 75.6887C150.442 77.0306 134.917 93.5772 134.917 113.847C134.917 116.666 135.224 119.407 135.796 122.049H144.458C143.717 119.444 143.304 116.692 143.304 113.847C143.304 97.7125 155.956 84.6016 171.729 84.1108H173.47C189.243 84.6016 201.895 97.7125 201.895 113.847C201.895 116.697 201.477 119.444 200.741 122.049H209.403C209.969 119.407 210.276 116.666 210.276 113.847C210.271 93.5772 194.746 77.0306 175.11 75.6887Z" fill="#EA9620"/>
<path d="M119.927 48.6372H205.842C205.842 48.6372 205.715 34.4873 199.307 34.4873C192.9 34.4873 169.803 34.4873 162.771 34.4873C155.749 34.4873 147.045 37.5366 132.018 37.5366C116.98 37.5366 119.927 48.6372 119.927 48.6372Z" fill="#241E23"/>
<path d="M210.271 50.7412H202.847V69.8044H210.271V50.7412Z" fill="#EA9620"/>
<path d="M72.0827 16.0506C72.3738 14.9489 71.7071 13.8211 70.5906 13.5287L54.9971 9.49255C53.8806 9.21059 52.7377 9.86327 52.4414 10.9702C52.1504 12.0719 52.8118 13.1997 53.9282 13.4869L69.527 17.523C70.6435 17.8206 71.7864 17.1575 72.0827 16.0506Z" fill="#B1B1B1"/>
<path d="M68.5378 14.9021C69.104 12.777 71.3051 11.5082 73.4587 12.0669C75.6123 12.6203 76.8981 14.7924 76.3319 16.9227C75.7657 19.0426 73.5698 20.3114 71.4163 19.7579C69.2627 19.1993 67.9769 17.0272 68.5378 14.9021Z" fill="#B1B1B1"/>
</g>
<defs>
<clipPath id="clip0_1_1175">
<rect width="249.369" height="141.395" fill="white" transform="translate(2.5708)"/>
</clipPath>
</defs>
</svg>
