<svg width="273" height="80" viewBox="0 0 273 80" fill="none" xmlns="http://www.w3.org/2000/svg">
<rect width="80.0001" height="80" rx="20" fill="white"/>
<path d="M49.4465 29.089C45.7776 29.089 42.3378 30.0699 39.375 31.7838C33.3543 35.2666 29.3036 41.7762 29.3036 49.2319V66.2759C29.3036 67.9873 30.691 69.3748 32.4025 69.3748H42.7322C40.8781 69.3748 39.375 67.8717 39.375 66.0176V50.0712C39.375 44.5089 43.8842 39.9998 49.4465 39.9998C55.0088 39.9998 59.5179 44.5089 59.5179 50.0712V66.0176C59.5179 67.8717 58.0149 69.3748 56.1608 69.3748H66.4905C68.2019 69.3748 69.5894 67.9873 69.5894 66.2759V49.2319C69.5894 38.1073 60.5711 29.089 49.4465 29.089Z" fill="#0068E1"/>
<path d="M30.1429 10.6248C19.5835 10.6248 10.9219 18.7498 10.0689 29.089H10V66.0176C10 67.8717 11.503 69.3748 13.3571 69.3748H23.4286C21.5745 69.3748 20.0714 67.8717 20.0714 66.0176V39.1605H25.3203C26.6057 35.1816 29.0027 31.7025 32.1452 29.089H20.2107C21.0098 24.3257 25.1525 20.6962 30.1429 20.6962C33.7142 20.6962 36.8514 22.555 38.6397 25.358C40.9643 24.5138 43.473 24.0533 46.0893 24.0533C47.1512 24.0533 48.1954 24.1292 49.2167 24.2758C46.5153 16.3363 38.9961 10.6248 30.1429 10.6248Z" fill="#0068E1"/>
<path d="M57.095 17.4998V11.3405H55V9.99976H60.6041V11.3405H58.5091V17.4998H57.095Z" fill="#0068E1"/>
<path d="M61.6097 9.99976H63.0029L65.2969 13.9697H65.3807L67.6747 9.99976H69.0783V17.4998H67.6747V13.8021L67.7585 12.5451H67.6747L65.7683 15.9076H64.9198L63.0029 12.5451H62.9191L63.0029 13.8021V17.4998H61.6097V9.99976Z" fill="#0068E1"/>
<path d="M108.714 8.75C101.525 8.75 95.6275 14.2821 95.0469 21.3217H95V46.6987C95 47.8316 95.9184 48.75 97.0513 48.75H103.908C102.776 48.75 101.857 47.8316 101.857 46.6987V28.1789H105.431C106.306 25.4699 107.938 23.1011 110.078 21.3217H101.952C102.496 18.0785 105.316 15.6071 108.714 15.6071C111.146 15.6071 113.282 16.8727 114.499 18.7812C116.082 18.2063 117.79 17.8929 119.571 17.8929C120.294 17.8929 121.005 17.9445 121.701 18.0443C119.861 12.6387 114.742 8.75 108.714 8.75Z" fill="white"/>
<path d="M128.084 45.2058C128.084 45.0968 127.996 45.0085 127.887 45.0085C127.825 45.0085 127.767 45.0374 127.729 45.0862C127.016 46.0077 126.1 46.8515 124.983 47.6177C123.834 48.3726 122.374 48.75 120.601 48.75C119.321 48.75 118.123 48.5367 117.007 48.11C115.892 47.7162 114.923 47.1582 114.103 46.4362C113.282 45.6813 112.626 44.8115 112.134 43.8269C111.674 42.8095 111.444 41.6936 111.444 40.4792C111.444 39.1992 111.69 38.0505 112.183 37.0331C112.708 36.0156 113.414 35.1623 114.3 34.4731C115.219 33.7838 116.302 33.2587 117.549 32.8977C118.796 32.5038 120.142 32.3069 121.586 32.3069C123.194 32.3069 124.54 32.471 125.623 32.7992C126.239 32.9673 126.771 33.1301 127.217 33.2876C127.627 33.4324 128.084 33.1359 128.084 32.7008C128.084 31.9787 127.92 31.3059 127.592 30.6823C127.297 30.0587 126.87 29.5336 126.312 29.1069C125.787 28.6474 125.18 28.3028 124.491 28.0731C123.801 27.8105 123.079 27.6792 122.324 27.6792C121.11 27.6792 120.011 27.9254 119.026 28.4177C118.325 28.7563 117.677 29.2552 117.082 29.9145C116.714 30.3233 116.103 30.4431 115.643 30.1403L113.031 28.4187C112.543 28.0965 112.419 27.4275 112.805 26.9873C113.824 25.8249 115.028 24.9232 116.417 24.2823C118.123 23.4618 120.06 23.0515 122.226 23.0515C125.803 23.0515 128.56 23.9377 130.497 25.71C132.466 27.4823 133.451 30.0095 133.451 33.2915V46.9367C133.451 47.5031 132.991 47.9623 132.425 47.9623H129.11C128.544 47.9623 128.084 47.5031 128.084 46.9367V45.2058ZM128.055 38.5036C128.092 38.1427 127.895 37.8023 127.572 37.6371C126.987 37.338 126.354 37.0874 125.672 36.8854C124.786 36.6228 123.768 36.4915 122.62 36.4915C120.913 36.4915 119.551 36.8854 118.534 37.6731C117.516 38.4608 117.007 39.4126 117.007 40.5285C117.007 41.1192 117.139 41.6444 117.401 42.1038C117.664 42.5305 117.992 42.9079 118.386 43.2362C118.813 43.5644 119.288 43.8105 119.814 43.9746C120.372 44.1387 120.929 44.2208 121.487 44.2208C122.374 44.2208 123.211 44.0567 123.998 43.7285C124.819 43.3674 125.524 42.9079 126.115 42.35C126.706 41.7592 127.182 41.0864 127.543 40.3315C127.82 39.7513 127.991 39.142 128.055 38.5036Z" fill="white"/>
<path d="M138.592 24.8649C138.592 24.2984 139.051 23.8392 139.618 23.8392H142.736C143.302 23.8392 143.761 24.2984 143.761 24.8649V27.3014C143.761 27.4013 143.842 27.4823 143.942 27.4823C144.012 27.4823 144.076 27.4419 144.107 27.3793C144.396 26.7953 144.773 26.2553 145.238 25.7592C145.763 25.2013 146.338 24.7418 146.961 24.3808C147.618 23.9869 148.291 23.6915 148.98 23.4946C149.702 23.2649 150.391 23.15 151.047 23.15C151.835 23.15 152.508 23.2156 153.066 23.3469C153.317 23.4059 153.558 23.4749 153.788 23.5538C154.264 23.7162 154.483 24.2407 154.334 24.7205L153.362 27.8485C153.179 28.4381 152.513 28.7329 151.904 28.6327C151.865 28.6263 151.826 28.6203 151.786 28.6146C151.359 28.5162 150.834 28.4669 150.211 28.4669C149.324 28.4669 148.504 28.6474 147.749 29.0085C147.027 29.3695 146.387 29.8618 145.829 30.4854C145.271 31.109 144.828 31.8474 144.5 32.7008C144.204 33.5541 144.057 34.4567 144.057 35.4085V46.9367C144.057 47.5031 143.597 47.9623 143.031 47.9623H139.618C139.051 47.9623 138.592 47.5031 138.592 46.9367V24.8649Z" fill="white"/>
<path d="M177.439 41.7296C177.961 41.9876 178.167 42.6303 177.847 43.1167C176.881 44.5869 175.62 45.8411 174.062 46.8792C172.192 48.1264 169.894 48.75 167.17 48.75C165.365 48.75 163.691 48.4382 162.149 47.8146C160.639 47.1582 159.326 46.2556 158.21 45.1069C157.094 43.9582 156.225 42.6126 155.601 41.07C154.977 39.4946 154.666 37.7715 154.666 35.9008C154.666 34.1613 154.961 32.5203 155.552 30.9777C156.142 29.4023 156.963 28.0403 158.013 26.8915C159.096 25.71 160.393 24.7746 161.902 24.0854C163.412 23.3962 165.086 23.0515 166.924 23.0515C168.795 23.0515 170.452 23.3633 171.896 23.9869C173.373 24.6105 174.62 25.4803 175.638 26.5962C176.655 27.712 177.427 29.0577 177.952 30.6331C178.51 32.2085 178.789 33.9315 178.789 35.8023C178.789 35.9254 178.789 36.0392 178.789 36.1438C178.789 36.2114 178.781 36.2787 178.77 36.3453C178.753 36.4528 178.742 36.5527 178.74 36.6449C178.739 36.6738 178.736 36.7034 178.729 36.7316C178.687 36.9226 178.532 37.0823 178.336 37.0823H161.247C160.646 37.0823 160.167 37.5992 160.29 38.1875C160.436 38.8854 160.662 39.518 160.967 40.0854C161.427 40.9387 161.985 41.6444 162.641 42.2023C163.33 42.7603 164.085 43.1705 164.906 43.4331C165.726 43.6956 166.53 43.8269 167.318 43.8269C168.893 43.8269 170.19 43.4495 171.207 42.6946C171.972 42.1272 172.635 41.4578 173.195 40.6864C173.512 40.2514 174.091 40.0731 174.573 40.3115L177.439 41.7296ZM172.153 32.8977C172.773 32.8977 173.246 32.3479 173.032 31.7656C172.973 31.6054 172.906 31.4412 172.832 31.2731C172.602 30.6495 172.225 30.0915 171.699 29.5992C171.207 29.0741 170.551 28.631 169.73 28.27C168.942 27.909 167.974 27.7285 166.826 27.7285C165.25 27.7285 163.888 28.2044 162.739 29.1562C161.936 29.8181 161.319 30.6503 160.89 31.6528C160.627 32.2663 161.121 32.8977 161.788 32.8977H172.153Z" fill="white"/>
<path d="M221.596 23.0515C223.434 23.0515 225.124 23.3797 226.666 24.0362C228.209 24.6597 229.538 25.5459 230.654 26.6946C231.77 27.8433 232.64 29.2054 233.263 30.7808C233.887 32.3562 234.199 34.0628 234.199 35.9008C234.199 37.7387 233.887 39.4454 233.263 41.0208C232.64 42.5962 231.77 43.9582 230.654 45.1069C229.538 46.2556 228.209 47.1582 226.666 47.8146C225.124 48.4382 223.434 48.75 221.596 48.75C219.758 48.75 218.067 48.4382 216.525 47.8146C214.982 47.1582 213.653 46.2556 212.537 45.1069C211.421 43.9582 210.552 42.5962 209.928 41.0208C209.304 39.4454 208.993 37.7387 208.993 35.9008C208.993 34.0628 209.304 32.3562 209.928 30.7808C210.552 29.2054 211.421 27.8433 212.537 26.6946C213.653 25.5459 214.982 24.6597 216.525 24.0362C218.067 23.3797 219.758 23.0515 221.596 23.0515ZM221.596 43.6792C222.515 43.6792 223.401 43.4987 224.254 43.1377C225.107 42.7767 225.862 42.2679 226.519 41.6115C227.208 40.9551 227.749 40.151 228.143 39.1992C228.537 38.2146 228.734 37.1151 228.734 35.9008C228.734 34.6864 228.537 33.6033 228.143 32.6515C227.749 31.6669 227.208 30.8464 226.519 30.19C225.862 29.5336 225.107 29.0249 224.254 28.6638C223.401 28.3028 222.515 28.1223 221.596 28.1223C220.677 28.1223 219.79 28.3028 218.937 28.6638C218.084 29.0249 217.313 29.5336 216.623 30.19C215.967 30.8464 215.442 31.6669 215.048 32.6515C214.654 33.6033 214.457 34.6864 214.457 35.9008C214.457 37.1151 214.654 38.2146 215.048 39.1992C215.442 40.151 215.967 40.9551 216.623 41.6115C217.313 42.2679 218.084 42.7767 218.937 43.1377C219.79 43.4987 220.677 43.6792 221.596 43.6792Z" fill="white"/>
<path d="M235.74 25.1778C235.528 24.5159 236.022 23.8392 236.717 23.8392H240.49C240.95 23.8392 241.354 24.1453 241.478 24.5881L245.918 40.4316C245.934 40.4889 245.986 40.5285 246.045 40.5285C246.103 40.5285 246.154 40.4914 246.172 40.4368L251.327 24.5483C251.464 24.1255 251.858 23.8392 252.303 23.8392H256.471C256.917 23.8392 257.311 24.1268 257.448 24.5509L262.555 40.4367C262.573 40.4914 262.624 40.5285 262.681 40.5285C262.741 40.5285 262.793 40.4888 262.809 40.4316L267.201 24.5908C267.324 24.1467 267.729 23.8392 268.189 23.8392H271.862C272.557 23.8392 273.051 24.5159 272.839 25.1778L265.767 47.2496C265.631 47.6742 265.236 47.9623 264.79 47.9623H260.525C260.08 47.9623 259.686 47.6756 259.549 47.2525L254.344 31.1694C254.326 31.1138 254.275 31.0762 254.216 31.0762C254.157 31.0762 254.105 31.1143 254.088 31.1705L249.026 47.2447C248.892 47.6718 248.496 47.9623 248.048 47.9623H243.789C243.343 47.9623 242.948 47.6742 242.812 47.2496L235.74 25.1778Z" fill="white"/>
<path d="M182.692 34.6534V47.7244H188.333V35.4167C188.333 32.3012 190.859 29.7756 193.974 29.7756C197.09 29.7756 199.616 32.3012 199.616 35.4167V47.7244H205.257V34.391C205.257 28.1601 200.205 23.109 193.974 23.109C191.973 23.109 190.094 23.6299 188.465 24.5436V24.6534C185.014 26.6495 182.692 30.3803 182.692 34.6534Z" fill="white"/>
<path d="M101.611 69.5438C99.7275 69.5438 98.1517 68.91 96.8839 67.6422C95.628 66.3744 95 64.7927 95 62.8969C95 61.0012 95.628 59.4254 96.8839 58.1694C98.1398 56.8898 99.7156 56.25 101.611 56.25C103.531 56.25 105.089 56.9431 106.286 58.3294L105.113 59.4668C104.2 58.3649 103.033 57.814 101.611 57.814C100.201 57.814 99.0225 58.2879 98.0746 59.2358C97.1386 60.1718 96.6706 61.3922 96.6706 62.8969C96.6706 64.4017 97.1386 65.622 98.0746 66.5581C99.0225 67.5059 100.201 67.9799 101.611 67.9799C103.092 67.9799 104.378 67.3578 105.468 66.1137L106.659 67.269C106.055 67.9917 105.314 68.5545 104.437 68.9573C103.56 69.3483 102.618 69.5438 101.611 69.5438Z" fill="white"/>
<path d="M107.44 64.9052C107.44 63.5664 107.861 62.4585 108.702 61.5818C109.555 60.705 110.628 60.2666 111.919 60.2666C113.211 60.2666 114.277 60.705 115.118 61.5818C115.971 62.4585 116.398 63.5664 116.398 64.9052C116.398 66.2559 115.971 67.3637 115.118 68.2287C114.277 69.1054 113.211 69.5438 111.919 69.5438C110.628 69.5438 109.555 69.1054 108.702 68.2287C107.861 67.3519 107.44 66.2441 107.44 64.9052ZM109.076 64.9052C109.076 65.8412 109.348 66.5995 109.893 67.1801C110.438 67.7607 111.113 68.0509 111.919 68.0509C112.725 68.0509 113.4 67.7607 113.945 67.1801C114.49 66.5995 114.763 65.8412 114.763 64.9052C114.763 63.981 114.49 63.2287 113.945 62.6481C113.388 62.0557 112.713 61.7595 111.919 61.7595C111.125 61.7595 110.45 62.0557 109.893 62.6481C109.348 63.2287 109.076 63.981 109.076 64.9052Z" fill="white"/>
<path d="M117.71 60.5509H119.274V61.7595H119.345C119.593 61.3329 119.973 60.9775 120.482 60.6931C121.003 60.4088 121.542 60.2666 122.099 60.2666C123.166 60.2666 123.983 60.5746 124.552 61.1908C125.133 61.795 125.423 62.66 125.423 63.7855V69.2595H123.788V63.8922C123.752 62.4704 123.035 61.7595 121.637 61.7595C120.986 61.7595 120.441 62.0261 120.002 62.5592C119.564 63.0806 119.345 63.7085 119.345 64.4431V69.2595H117.71V60.5509Z" fill="white"/>
<path d="M127.342 60.5509H128.906V61.7595H128.977C129.226 61.3329 129.605 60.9775 130.115 60.6931C130.636 60.4088 131.175 60.2666 131.732 60.2666C132.798 60.2666 133.616 60.5746 134.185 61.1908C134.765 61.795 135.055 62.66 135.055 63.7855V69.2595H133.42V63.8922C133.385 62.4704 132.668 61.7595 131.27 61.7595C130.618 61.7595 130.073 62.0261 129.635 62.5592C129.196 63.0806 128.977 63.7085 128.977 64.4431V69.2595H127.342V60.5509Z" fill="white"/>
<path d="M140.885 69.5438C139.605 69.5438 138.551 69.1054 137.721 68.2287C136.892 67.3519 136.477 66.2441 136.477 64.9052C136.477 63.5782 136.88 62.4763 137.686 61.5995C138.491 60.7109 139.522 60.2666 140.778 60.2666C142.069 60.2666 143.094 60.6872 143.853 61.5284C144.623 62.3578 145.008 63.5249 145.008 65.0296L144.99 65.2073H138.148C138.171 66.0604 138.456 66.7476 139.001 67.269C139.546 67.7903 140.197 68.0509 140.956 68.0509C141.998 68.0509 142.816 67.5296 143.408 66.487L144.866 67.1979C144.475 67.9325 143.93 68.5071 143.231 68.9218C142.543 69.3365 141.761 69.5438 140.885 69.5438ZM138.272 63.8566H143.266C143.219 63.2524 142.97 62.7547 142.52 62.3637C142.081 61.9609 141.489 61.7595 140.742 61.7595C140.126 61.7595 139.593 61.9491 139.143 62.3282C138.705 62.7073 138.414 63.2168 138.272 63.8566Z" fill="white"/>
<path d="M150.571 69.5438C149.279 69.5438 148.207 69.1054 147.354 68.2287C146.513 67.3282 146.092 66.2204 146.092 64.9052C146.092 63.5664 146.513 62.4585 147.354 61.5818C148.207 60.705 149.279 60.2666 150.571 60.2666C151.46 60.2666 152.236 60.4917 152.899 60.9419C153.563 61.3803 154.06 61.9905 154.392 62.7725L152.899 63.3945C152.437 62.3045 151.625 61.7595 150.464 61.7595C149.718 61.7595 149.072 62.0616 148.527 62.6659C147.994 63.2701 147.727 64.0166 147.727 64.9052C147.727 65.7938 147.994 66.5403 148.527 67.1445C149.072 67.7488 149.718 68.0509 150.464 68.0509C151.661 68.0509 152.502 67.5059 152.988 66.4159L154.445 67.0379C154.125 67.8199 153.622 68.436 152.935 68.8863C152.259 69.3246 151.471 69.5438 150.571 69.5438Z" fill="white"/>
<path d="M159.236 69.4017C158.526 69.4017 157.933 69.1825 157.459 68.7441C156.997 68.3057 156.76 67.6955 156.748 66.9135V62.0438H155.22V60.5509H156.748V57.8851H158.383V60.5509H160.516V62.0438H158.383V66.3803C158.383 66.9609 158.496 67.3578 158.721 67.5711C158.946 67.7725 159.201 67.8732 159.485 67.8732C159.616 67.8732 159.74 67.8614 159.858 67.8377C159.989 67.8021 160.107 67.7607 160.214 67.7133L160.729 69.1706C160.303 69.3246 159.805 69.4017 159.236 69.4017Z" fill="white"/>
<path d="M162.622 71.25L161.858 70.7524L162.818 69.2595C162.569 69.2121 162.356 69.0877 162.178 68.8863C162.012 68.6848 161.929 68.4419 161.929 68.1576C161.929 67.814 162.048 67.5296 162.285 67.3045C162.522 67.0675 162.806 66.9491 163.138 66.9491C163.481 66.9491 163.766 67.0675 163.991 67.3045C164.228 67.5296 164.346 67.814 164.346 68.1576C164.346 68.4775 164.228 68.827 163.991 69.2062L162.622 71.25Z" fill="white"/>
<path d="M182.441 60.5509L179.633 69.2595H177.963L175.794 62.577L173.644 69.2595H171.991L169.183 60.5509H170.889L172.826 67.1268H172.844L174.995 60.5509H176.683L178.834 67.1268H178.851L180.771 60.5509H182.441Z" fill="white"/>
<path d="M182.835 64.9052C182.835 63.5664 183.256 62.4585 184.097 61.5818C184.95 60.705 186.022 60.2666 187.314 60.2666C188.605 60.2666 189.671 60.705 190.513 61.5818C191.366 62.4585 191.792 63.5664 191.792 64.9052C191.792 66.2559 191.366 67.3637 190.513 68.2287C189.671 69.1054 188.605 69.5438 187.314 69.5438C186.022 69.5438 184.95 69.1054 184.097 68.2287C183.256 67.3519 182.835 66.2441 182.835 64.9052ZM184.47 64.9052C184.47 65.8412 184.742 66.5995 185.288 67.1801C185.833 67.7607 186.508 68.0509 187.314 68.0509C188.119 68.0509 188.795 67.7607 189.34 67.1801C189.885 66.5995 190.157 65.8412 190.157 64.9052C190.157 63.981 189.885 63.2287 189.34 62.6481C188.783 62.0557 188.107 61.7595 187.314 61.7595C186.52 61.7595 185.844 62.0557 185.288 62.6481C184.742 63.2287 184.47 63.981 184.47 64.9052Z" fill="white"/>
<path d="M194.739 69.2595H193.104V60.5509H194.668V61.9727H194.739C194.905 61.5107 195.243 61.1197 195.752 60.7998C196.273 60.468 196.783 60.3021 197.28 60.3021C197.754 60.3021 198.157 60.3732 198.489 60.5154L197.991 62.0972C197.79 62.0142 197.47 61.9727 197.032 61.9727C196.416 61.9727 195.876 62.2216 195.414 62.7192C194.964 63.2168 194.739 63.7974 194.739 64.4609V69.2595Z" fill="white"/>
<path d="M207.307 69.2595H205.334L202.615 65.154L201.282 66.4692V69.2595H199.647V56.5344H201.282V64.372L205.05 60.5509H207.147V60.622L203.753 63.9988L207.307 69.1884V69.2595Z" fill="white"/>
<path d="M213.334 66.5936C213.334 67.0201 213.512 67.3756 213.867 67.66C214.235 67.9443 214.661 68.0865 215.147 68.0865C215.834 68.0865 216.444 67.8318 216.978 67.3223C217.523 66.8128 217.795 66.2145 217.795 65.5273C217.286 65.1244 216.575 64.923 215.662 64.923C214.999 64.923 214.442 65.0829 213.992 65.4028C213.553 65.7227 213.334 66.1197 213.334 66.5936ZM215.449 60.2666C216.658 60.2666 217.611 60.5924 218.311 61.2441C219.01 61.8839 219.359 62.7666 219.359 63.8922V69.2595H217.795V68.0509H217.724C217.049 69.0462 216.148 69.5438 215.023 69.5438C214.063 69.5438 213.257 69.2595 212.606 68.6908C211.966 68.122 211.646 67.4111 211.646 66.5581C211.646 65.6576 211.984 64.9408 212.659 64.4076C213.346 63.8744 214.258 63.6078 215.396 63.6078C216.367 63.6078 217.167 63.7855 217.795 64.141V63.7678C217.795 63.1991 217.57 62.7192 217.12 62.3282C216.67 61.9254 216.142 61.7239 215.538 61.7239C214.626 61.7239 213.903 62.109 213.37 62.8791L211.93 61.9727C212.724 60.8353 213.897 60.2666 215.449 60.2666Z" fill="white"/>
<path d="M221.203 60.5509H222.767V61.7595H222.838C223.087 61.3329 223.466 60.9775 223.976 60.6931C224.497 60.4088 225.036 60.2666 225.593 60.2666C226.659 60.2666 227.477 60.5746 228.046 61.1908C228.626 61.795 228.917 62.66 228.917 63.7855V69.2595H227.281V63.8922C227.246 62.4704 226.529 61.7595 225.131 61.7595C224.479 61.7595 223.934 62.0261 223.496 62.5592C223.058 63.0806 222.838 63.7085 222.838 64.4431V69.2595H221.203V60.5509Z" fill="white"/>
<path d="M234.746 68.0509C235.551 68.0509 236.209 67.7607 236.719 67.1801C237.252 66.5995 237.518 65.8412 237.518 64.9052C237.518 63.9929 237.252 63.2405 236.719 62.6481C236.197 62.0557 235.54 61.7595 234.746 61.7595C233.964 61.7595 233.306 62.0557 232.773 62.6481C232.24 63.2405 231.973 63.9929 231.973 64.9052C231.973 65.8294 232.24 66.5818 232.773 67.1623C233.306 67.7547 233.964 68.0509 234.746 68.0509ZM234.479 69.5438C233.342 69.5438 232.364 69.0936 231.547 68.1931C230.741 67.2808 230.338 66.1848 230.338 64.9052C230.338 63.6256 230.741 62.5296 231.547 61.6173C232.364 60.7168 233.342 60.2666 234.479 60.2666C235.119 60.2666 235.7 60.4028 236.221 60.6754C236.754 60.9479 237.163 61.3092 237.447 61.7595H237.518L237.447 60.5509V56.5344H239.082V69.2595H237.518V68.0509H237.447C237.163 68.5012 236.754 68.8626 236.221 69.1351C235.7 69.4076 235.119 69.5438 234.479 69.5438Z" fill="white"/>
<path d="M246.616 56.5344V69.2595H244.981V56.5344H246.616Z" fill="white"/>
<path d="M250.723 57.5474C250.723 57.8673 250.611 58.1398 250.386 58.3649C250.161 58.59 249.888 58.7026 249.568 58.7026C249.248 58.7026 248.976 58.59 248.751 58.3649C248.525 58.1398 248.413 57.8673 248.413 57.5474C248.413 57.2275 248.525 56.955 248.751 56.7299C248.976 56.5047 249.248 56.3922 249.568 56.3922C249.888 56.3922 250.161 56.5047 250.386 56.7299C250.611 56.955 250.723 57.2275 250.723 57.5474ZM250.386 60.5509V69.2595H248.751V60.5509H250.386Z" fill="white"/>
<path d="M256.743 69.2595H255.108L251.589 60.5509H253.367L255.926 67.3045H255.961L258.556 60.5509H260.298L256.743 69.2595Z" fill="white"/>
<path d="M265.015 69.5438C263.735 69.5438 262.681 69.1054 261.851 68.2287C261.022 67.3519 260.607 66.2441 260.607 64.9052C260.607 63.5782 261.01 62.4763 261.816 61.5995C262.621 60.7109 263.652 60.2666 264.908 60.2666C266.199 60.2666 267.224 60.6872 267.983 61.5284C268.753 62.3578 269.138 63.5249 269.138 65.0296L269.12 65.2073H262.278C262.301 66.0604 262.586 66.7476 263.131 67.269C263.676 67.7903 264.327 68.0509 265.086 68.0509C266.128 68.0509 266.946 67.5296 267.538 66.487L268.996 67.1979C268.605 67.9325 268.06 68.5071 267.361 68.9218C266.673 69.3365 265.891 69.5438 265.015 69.5438ZM262.402 63.8566H267.396C267.349 63.2524 267.1 62.7547 266.65 62.3637C266.211 61.9609 265.619 61.7595 264.872 61.7595C264.256 61.7595 263.723 61.9491 263.273 62.3282C262.835 62.7073 262.544 63.2168 262.402 63.8566Z" fill="white"/>
</svg>
