<svg width="192" height="58" viewBox="0 0 192 58" fill="none" xmlns="http://www.w3.org/2000/svg">
<rect y="0.875" width="56.25" height="56.25" rx="14.0625" fill="#0068E1"/>
<path d="M34.767 21.3284C32.1874 21.3284 29.7688 22.0181 27.6856 23.2232C23.4522 25.672 20.6041 30.2491 20.6041 35.4914V47.4754C20.6041 48.6788 21.5796 49.6543 22.783 49.6543H30.0461C28.7424 49.6543 27.6856 48.5975 27.6856 47.2938V36.0815C27.6856 32.1705 30.8561 29 34.767 29C38.678 29 41.8485 32.1705 41.8485 36.0815V47.2938C41.8485 48.5975 40.7917 49.6543 39.488 49.6543H46.7511C47.9545 49.6543 48.93 48.6788 48.93 47.4754V35.4914C48.93 27.6694 42.589 21.3284 34.767 21.3284Z" fill="white"/>
<path d="M21.1942 8.3457C13.7697 8.3457 7.67947 14.0586 7.07973 21.3284H7.03125V47.2938C7.03125 48.5975 8.08808 49.6543 9.39174 49.6543H16.4732C15.1696 49.6543 14.1127 48.5975 14.1127 47.2938V28.4099H17.8034C18.7071 25.6122 20.3925 23.166 22.6021 21.3284H14.2106C14.7725 17.9792 17.6853 15.4272 21.1942 15.4272C23.7053 15.4272 25.9111 16.7342 27.1685 18.705C28.803 18.1114 30.567 17.7877 32.4066 17.7877C33.1532 17.7877 33.8874 17.841 34.6055 17.9441C32.7061 12.3617 27.4191 8.3457 21.1942 8.3457Z" fill="white"/>
<path d="M40.1449 13.1797V8.84899H38.6719V7.90625H42.6122V8.84899H41.1392V13.1797H40.1449Z" fill="white"/>
<path d="M43.3193 7.90625H44.2989L45.9119 10.6976H45.9708L47.5838 7.90625H48.5707V13.1797H47.5838V10.5798L47.6427 9.69598H47.5838L46.2433 12.0602H45.6467L44.2989 9.69598H44.24L44.2989 10.5798V13.1797H43.3193V7.90625Z" fill="white"/>
<path d="M76.4397 7.02734C71.3847 7.02734 67.2381 10.9171 66.8299 15.8669H66.7969V33.71C66.7969 34.5066 67.4426 35.1523 68.2392 35.1523H73.0606C72.2641 35.1523 71.6183 34.5066 71.6183 33.71V20.6883H74.1311C74.7464 18.7835 75.8939 17.118 77.3983 15.8669H71.6849C72.0674 13.5864 74.0506 11.8488 76.4397 11.8488C78.1494 11.8488 79.6513 12.7387 80.5074 14.0805C81.6202 13.6763 82.8212 13.4559 84.0737 13.4559C84.582 13.4559 85.0819 13.4922 85.5708 13.5624C84.2776 9.76162 80.678 7.02734 76.4397 7.02734Z" fill="#151415"/>
<path d="M90.0593 32.6603C90.0593 32.5837 89.9972 32.5216 89.9205 32.5216C89.8771 32.5216 89.8363 32.5419 89.8097 32.5763C89.3079 33.2242 88.6642 33.8175 87.8785 34.3562C87.0708 34.887 86.0439 35.1523 84.7978 35.1523C83.8978 35.1523 83.0555 35.0023 82.2708 34.7023C81.4862 34.4254 80.8055 34.0331 80.2285 33.5254C79.6516 32.9947 79.1901 32.3831 78.8439 31.6908C78.5208 30.9754 78.3593 30.1908 78.3593 29.337C78.3593 28.437 78.5324 27.6293 78.8785 26.9139C79.2478 26.1985 79.7439 25.5985 80.367 25.1139C81.0131 24.6293 81.7747 24.26 82.6516 24.0062C83.5285 23.7293 84.4747 23.5908 85.4901 23.5908C86.6208 23.5908 87.567 23.7062 88.3285 23.937C88.7619 24.0552 89.1355 24.1696 89.4494 24.2803C89.7379 24.3821 90.0593 24.1737 90.0593 23.8677C90.0593 23.36 89.9439 22.887 89.7132 22.4485C89.5055 22.01 89.2055 21.6408 88.8132 21.3408C88.4439 21.0177 88.017 20.7754 87.5324 20.6139C87.0478 20.4293 86.5401 20.337 86.0093 20.337C85.1555 20.337 84.3824 20.51 83.6901 20.8562C83.1969 21.0942 82.7414 21.4451 82.3235 21.9087C82.0644 22.1961 81.6349 22.2803 81.3118 22.0674L79.4752 20.8569C79.1315 20.6303 79.0445 20.1599 79.3159 19.8504C80.0325 19.0331 80.8791 18.3991 81.8555 17.9485C83.0555 17.3716 84.417 17.0831 85.9401 17.0831C88.4555 17.0831 90.3939 17.7062 91.7555 18.9523C93.1401 20.1985 93.8324 21.9754 93.8324 24.2831V33.8773C93.8324 34.2756 93.5095 34.5985 93.1112 34.5985H90.7805C90.3822 34.5985 90.0593 34.2756 90.0593 33.8773V32.6603ZM90.0389 27.9478C90.0644 27.694 89.9259 27.4548 89.6988 27.3386C89.2878 27.1283 88.8425 26.9521 88.3632 26.81C87.7401 26.6254 87.0247 26.5331 86.217 26.5331C85.017 26.5331 84.0593 26.81 83.3439 27.3639C82.6285 27.9177 82.2708 28.587 82.2708 29.3716C82.2708 29.787 82.3631 30.1562 82.5478 30.4793C82.7324 30.7793 82.9631 31.0446 83.2401 31.2754C83.5401 31.5062 83.8747 31.6793 84.2439 31.7947C84.6362 31.91 85.0285 31.9677 85.4208 31.9677C86.0439 31.9677 86.6324 31.8523 87.1862 31.6216C87.7632 31.3677 88.2593 31.0447 88.6747 30.6523C89.0901 30.237 89.4247 29.7639 89.6785 29.2331C89.8737 28.8251 89.9938 28.3967 90.0389 27.9478Z" fill="#151415"/>
<path d="M97.4475 18.3581C97.4475 17.9598 97.7704 17.637 98.1687 17.637H100.361C100.759 17.637 101.082 17.9598 101.082 18.3581V20.0713C101.082 20.1415 101.139 20.1985 101.209 20.1985C101.259 20.1985 101.303 20.1701 101.325 20.1261C101.528 19.7155 101.794 19.3358 102.121 18.987C102.49 18.5946 102.894 18.2716 103.332 18.0177C103.794 17.7408 104.267 17.5331 104.751 17.3947C105.259 17.2331 105.744 17.1523 106.205 17.1523C106.759 17.1523 107.232 17.1985 107.624 17.2908C107.801 17.3323 107.97 17.3808 108.132 17.4362C108.467 17.5505 108.621 17.9192 108.516 18.2566L107.832 20.456C107.704 20.8705 107.236 21.0778 106.807 21.0074C106.78 21.0029 106.752 20.9986 106.724 20.9946C106.424 20.9254 106.055 20.8908 105.617 20.8908C104.994 20.8908 104.417 21.0177 103.886 21.2716C103.378 21.5254 102.928 21.8716 102.536 22.31C102.144 22.7485 101.832 23.2677 101.601 23.8677C101.394 24.4677 101.29 25.1023 101.29 25.7716V33.8773C101.29 34.2756 100.967 34.5985 100.569 34.5985H98.1687C97.7704 34.5985 97.4475 34.2756 97.4475 33.8773V18.3581Z" fill="#151415"/>
<path d="M124.762 30.2161C125.129 30.3976 125.274 30.8494 125.049 31.1914C124.37 32.2252 123.483 33.107 122.388 33.837C121.072 34.7139 119.457 35.1523 117.542 35.1523C116.272 35.1523 115.095 34.9331 114.011 34.4947C112.949 34.0331 112.026 33.3985 111.242 32.5908C110.457 31.7831 109.845 30.837 109.407 29.7523C108.968 28.6446 108.749 27.4331 108.749 26.1177C108.749 24.8947 108.957 23.7408 109.372 22.6562C109.788 21.5485 110.365 20.5908 111.103 19.7831C111.865 18.9523 112.776 18.2947 113.838 17.81C114.899 17.3254 116.076 17.0831 117.368 17.0831C118.684 17.0831 119.849 17.3023 120.865 17.7408C121.903 18.1793 122.78 18.7908 123.495 19.5754C124.211 20.36 124.753 21.3062 125.122 22.4139C125.515 23.5216 125.711 24.7331 125.711 26.0485C125.711 26.135 125.711 26.2151 125.711 26.2886C125.711 26.3361 125.706 26.3834 125.698 26.4303C125.685 26.5059 125.678 26.5761 125.677 26.6409C125.676 26.6613 125.673 26.682 125.669 26.7019C125.639 26.8362 125.53 26.9485 125.392 26.9485H113.377C112.955 26.9485 112.617 27.312 112.704 27.7256C112.806 28.2163 112.965 28.6611 113.18 29.06C113.503 29.66 113.895 30.1562 114.357 30.5485C114.842 30.9408 115.372 31.2293 115.949 31.4139C116.526 31.5985 117.092 31.6908 117.645 31.6908C118.753 31.6908 119.665 31.4254 120.38 30.8946C120.918 30.4957 121.384 30.025 121.778 29.4826C122 29.1768 122.408 29.0514 122.747 29.219L124.762 30.2161ZM121.045 24.0062C121.481 24.0062 121.813 23.6196 121.663 23.2102C121.622 23.0976 121.575 22.9821 121.522 22.8639C121.361 22.4254 121.095 22.0331 120.726 21.687C120.38 21.3177 119.918 21.0062 119.342 20.7523C118.788 20.4985 118.107 20.3716 117.299 20.3716C116.192 20.3716 115.234 20.7062 114.426 21.3754C113.861 21.8408 113.428 22.426 113.126 23.1309C112.941 23.5622 113.288 24.0062 113.757 24.0062H121.045Z" fill="#151415"/>
<path d="M155.809 17.0831C157.102 17.0831 158.29 17.3139 159.375 17.7754C160.459 18.2139 161.394 18.837 162.179 19.6447C162.963 20.4523 163.575 21.41 164.013 22.5177C164.452 23.6254 164.671 24.8254 164.671 26.1177C164.671 27.41 164.452 28.61 164.013 29.7177C163.575 30.8254 162.963 31.7831 162.179 32.5908C161.394 33.3985 160.459 34.0331 159.375 34.4947C158.29 34.9331 157.102 35.1523 155.809 35.1523C154.517 35.1523 153.329 34.9331 152.244 34.4947C151.159 34.0331 150.225 33.3985 149.44 32.5908C148.656 31.7831 148.044 30.8254 147.606 29.7177C147.167 28.61 146.948 27.41 146.948 26.1177C146.948 24.8254 147.167 23.6254 147.606 22.5177C148.044 21.41 148.656 20.4523 149.44 19.6447C150.225 18.837 151.159 18.2139 152.244 17.7754C153.329 17.3139 154.517 17.0831 155.809 17.0831ZM155.809 31.587C156.456 31.587 157.079 31.46 157.679 31.2062C158.279 30.9523 158.809 30.5947 159.271 30.1331C159.756 29.6716 160.136 29.1062 160.413 28.437C160.69 27.7447 160.829 26.9716 160.829 26.1177C160.829 25.2639 160.69 24.5023 160.413 23.8331C160.136 23.1408 159.756 22.5639 159.271 22.1023C158.809 21.6408 158.279 21.2831 157.679 21.0293C157.079 20.7754 156.456 20.6485 155.809 20.6485C155.163 20.6485 154.54 20.7754 153.94 21.0293C153.34 21.2831 152.798 21.6408 152.313 22.1023C151.852 22.5639 151.482 23.1408 151.206 23.8331C150.929 24.5023 150.79 25.2639 150.79 26.1177C150.79 26.9716 150.929 27.7447 151.206 28.437C151.482 29.1062 151.852 29.6716 152.313 30.1331C152.798 30.5947 153.34 30.9523 153.94 31.2062C154.54 31.46 155.163 31.587 155.809 31.587Z" fill="#151415"/>
<path d="M165.755 18.5782C165.605 18.1128 165.953 17.637 166.441 17.637H169.095C169.418 17.637 169.702 17.8522 169.789 18.1635L172.911 29.3035C172.922 29.3438 172.959 29.3716 173.001 29.3716C173.041 29.3716 173.077 29.3455 173.089 29.3071L176.714 18.1355C176.811 17.8383 177.088 17.637 177.4 17.637H180.331C180.645 17.637 180.922 17.8392 181.018 18.1374L184.609 29.3071C184.622 29.3455 184.657 29.3716 184.698 29.3716C184.74 29.3716 184.776 29.3437 184.787 29.3034L187.876 18.1654C187.962 17.8531 188.247 17.637 188.571 17.637H191.153C191.642 17.637 191.989 18.1128 191.84 18.5782L186.867 34.0974C186.772 34.3959 186.494 34.5985 186.181 34.5985H183.182C182.869 34.5985 182.592 34.3969 182.495 34.0994L178.836 22.791C178.823 22.7519 178.787 22.7254 178.746 22.7254C178.704 22.7254 178.668 22.7523 178.655 22.7917L175.097 34.0939C175.002 34.3942 174.724 34.5985 174.409 34.5985H171.414C171.1 34.5985 170.823 34.3959 170.727 34.0974L165.755 18.5782Z" fill="#151415"/>
<path d="M128.456 25.2407V34.4312H132.422V25.7773C132.422 23.5868 134.198 21.811 136.388 21.811C138.579 21.811 140.355 23.5868 140.355 25.7773V34.4312H144.321V25.0562C144.321 20.6751 140.769 17.1235 136.388 17.1235C134.981 17.1235 133.66 17.4898 132.514 18.1322V18.2094C130.088 19.6129 128.456 22.2362 128.456 25.2407Z" fill="#151415"/>
<path d="M71.4455 49.773C70.1209 49.773 69.0129 49.3273 68.1215 48.4359C67.2384 47.5445 66.7969 46.4323 66.7969 45.0994C66.7969 43.7665 67.2384 42.6585 68.1215 41.7754C69.0046 40.8756 70.1126 40.4258 71.4455 40.4258C72.7951 40.4258 73.8906 40.9131 74.732 41.8878L73.9073 42.6876C73.2658 41.9128 72.4452 41.5255 71.4455 41.5255C70.4541 41.5255 69.6252 41.8587 68.9587 42.5252C68.3006 43.1833 67.9715 44.0414 67.9715 45.0994C67.9715 46.1574 68.3006 47.0155 68.9587 47.6736C69.6252 48.3401 70.4541 48.6733 71.4455 48.6733C72.4869 48.6733 73.3908 48.236 74.1572 47.3612L74.9945 48.1735C74.5696 48.6817 74.0489 49.0774 73.4324 49.3606C72.8159 49.6356 72.1536 49.773 71.4455 49.773Z" fill="#555555"/>
<path d="M75.5441 46.5115C75.5441 45.5701 75.8398 44.7912 76.4313 44.1747C77.0312 43.5582 77.7851 43.2499 78.6932 43.2499C79.6012 43.2499 80.351 43.5582 80.9425 44.1747C81.5423 44.7912 81.8422 45.5701 81.8422 46.5115C81.8422 47.4612 81.5423 48.2401 80.9425 48.8483C80.351 49.4648 79.6012 49.773 78.6932 49.773C77.7851 49.773 77.0312 49.4648 76.4313 48.8483C75.8398 48.2318 75.5441 47.4529 75.5441 46.5115ZM76.6938 46.5115C76.6938 47.1696 76.8854 47.7028 77.2686 48.111C77.6518 48.5192 78.1267 48.7233 78.6932 48.7233C79.2597 48.7233 79.7345 48.5192 80.1177 48.111C80.501 47.7028 80.6926 47.1696 80.6926 46.5115C80.6926 45.8617 80.501 45.3327 80.1177 44.9244C79.7262 44.5079 79.2513 44.2996 78.6932 44.2996C78.135 44.2996 77.6601 44.5079 77.2686 44.9244C76.8854 45.3327 76.6938 45.8617 76.6938 46.5115Z" fill="#555555"/>
<path d="M82.7645 43.4499H83.8642V44.2996H83.9142C84.0891 43.9997 84.3557 43.7498 84.7139 43.5499C85.0805 43.3499 85.4596 43.2499 85.8511 43.2499C86.6009 43.2499 87.1757 43.4665 87.5756 43.8998C87.9838 44.3246 88.1879 44.9328 88.1879 45.7242V49.5731H87.0383V45.7992C87.0133 44.7995 86.5092 44.2996 85.5262 44.2996C85.068 44.2996 84.6848 44.4871 84.3765 44.862C84.0683 45.2285 83.9142 45.6701 83.9142 46.1866V49.5731H82.7645V43.4499Z" fill="#555555"/>
<path d="M89.5374 43.4499H90.6371V44.2996H90.6871C90.862 43.9997 91.1286 43.7498 91.4868 43.5499C91.8534 43.3499 92.2325 43.2499 92.624 43.2499C93.3738 43.2499 93.9486 43.4665 94.3485 43.8998C94.7567 44.3246 94.9608 44.9328 94.9608 45.7242V49.5731H93.8112V45.7992C93.7862 44.7995 93.2821 44.2996 92.2991 44.2996C91.8409 44.2996 91.4577 44.4871 91.1494 44.862C90.8412 45.2285 90.6871 45.6701 90.6871 46.1866V49.5731H89.5374V43.4499Z" fill="#555555"/>
<path d="M99.0595 49.773C98.1598 49.773 97.4183 49.4648 96.8352 48.8483C96.252 48.2318 95.9604 47.4529 95.9604 46.5115C95.9604 45.5784 96.2437 44.8037 96.8102 44.1872C97.3767 43.5624 98.1015 43.2499 98.9845 43.2499C99.8926 43.2499 100.613 43.5457 101.146 44.1372C101.688 44.7203 101.959 45.5409 101.959 46.599L101.946 46.7239H97.1351C97.1517 47.3237 97.3517 47.8069 97.7349 48.1735C98.1181 48.54 98.5763 48.7233 99.1095 48.7233C99.8426 48.7233 100.417 48.3568 100.834 47.6236L101.859 48.1235C101.584 48.64 101.201 49.0441 100.709 49.3356C100.226 49.6272 99.676 49.773 99.0595 49.773ZM97.2225 45.7742H100.734C100.701 45.3493 100.526 44.9994 100.209 44.7245C99.9009 44.4413 99.4844 44.2996 98.9595 44.2996C98.5263 44.2996 98.1514 44.4329 97.8349 44.6995C97.5266 44.9661 97.3225 45.3243 97.2225 45.7742Z" fill="#555555"/>
<path d="M105.87 49.773C104.962 49.773 104.208 49.4648 103.608 48.8483C103.017 48.2151 102.721 47.4362 102.721 46.5115C102.721 45.5701 103.017 44.7912 103.608 44.1747C104.208 43.5582 104.962 43.2499 105.87 43.2499C106.495 43.2499 107.041 43.4082 107.507 43.7248C107.974 44.033 108.324 44.4621 108.557 45.0119L107.507 45.4493C107.182 44.6829 106.612 44.2996 105.795 44.2996C105.27 44.2996 104.816 44.5121 104.433 44.9369C104.058 45.3618 103.871 45.8867 103.871 46.5115C103.871 47.1363 104.058 47.6611 104.433 48.086C104.816 48.5109 105.27 48.7233 105.795 48.7233C106.637 48.7233 107.228 48.3401 107.57 47.5737L108.594 48.011C108.369 48.5609 108.015 48.9941 107.532 49.3106C107.057 49.6189 106.503 49.773 105.87 49.773Z" fill="#555555"/>
<path d="M111.963 49.673C111.463 49.673 111.047 49.5189 110.713 49.2107C110.389 48.9024 110.222 48.4734 110.214 47.9236V44.4996H109.139V43.4499H110.214V41.5754H111.363V43.4499H112.863V44.4996H111.363V47.5487C111.363 47.9569 111.442 48.236 111.601 48.3859C111.759 48.5275 111.938 48.5984 112.138 48.5984C112.23 48.5984 112.317 48.59 112.4 48.5734C112.492 48.5484 112.575 48.5192 112.65 48.4859L113.013 49.5106C112.713 49.6189 112.363 49.673 111.963 49.673Z" fill="#555555"/>
<path d="M114.344 50.9727L113.807 50.6228L114.481 49.5731C114.306 49.5397 114.156 49.4523 114.031 49.3106C113.915 49.169 113.856 48.9982 113.856 48.7983C113.856 48.5567 113.94 48.3568 114.106 48.1985C114.273 48.0319 114.473 47.9486 114.706 47.9486C114.948 47.9486 115.148 48.0319 115.306 48.1985C115.473 48.3568 115.556 48.5567 115.556 48.7983C115.556 49.0232 115.473 49.269 115.306 49.5356L114.344 50.9727Z" fill="#555555"/>
<path d="M128.279 43.4499L126.305 49.5731H125.13L123.605 44.8745L122.093 49.5731H120.931L118.957 43.4499H120.156L121.519 48.0735H121.531L123.043 43.4499H124.23L125.742 48.0735H125.755L127.104 43.4499H128.279Z" fill="#555555"/>
<path d="M128.556 46.5115C128.556 45.5701 128.852 44.7912 129.443 44.1747C130.043 43.5582 130.797 43.2499 131.705 43.2499C132.613 43.2499 133.363 43.5582 133.954 44.1747C134.554 44.7912 134.854 45.5701 134.854 46.5115C134.854 47.4612 134.554 48.2401 133.954 48.8483C133.363 49.4648 132.613 49.773 131.705 49.773C130.797 49.773 130.043 49.4648 129.443 48.8483C128.852 48.2318 128.556 47.4529 128.556 46.5115ZM129.705 46.5115C129.705 47.1696 129.897 47.7028 130.28 48.111C130.663 48.5192 131.138 48.7233 131.705 48.7233C132.271 48.7233 132.746 48.5192 133.129 48.111C133.513 47.7028 133.704 47.1696 133.704 46.5115C133.704 45.8617 133.513 45.3327 133.129 44.9244C132.738 44.5079 132.263 44.2996 131.705 44.2996C131.147 44.2996 130.672 44.5079 130.28 44.9244C129.897 45.3327 129.705 45.8617 129.705 46.5115Z" fill="#555555"/>
<path d="M136.926 49.5731H135.776V43.4499H136.876V44.4496H136.926C137.042 44.1247 137.28 43.8498 137.638 43.6248C138.005 43.3916 138.363 43.2749 138.713 43.2749C139.046 43.2749 139.329 43.3249 139.563 43.4249L139.213 44.5371C139.071 44.4787 138.846 44.4496 138.538 44.4496C138.105 44.4496 137.726 44.6245 137.401 44.9744C137.084 45.3243 136.926 45.7325 136.926 46.1991V49.5731Z" fill="#555555"/>
<path d="M145.763 49.5731H144.376L142.464 46.6864L141.527 47.6112V49.5731H140.377V40.6257H141.527V46.1366L144.176 43.4499H145.65V43.4999L143.264 45.8742L145.763 49.5231V49.5731Z" fill="#555555"/>
<path d="M150.001 47.6986C150.001 47.9985 150.126 48.2485 150.375 48.4484C150.634 48.6483 150.934 48.7483 151.275 48.7483C151.758 48.7483 152.187 48.5692 152.562 48.211C152.946 47.8527 153.137 47.432 153.137 46.9488C152.779 46.6656 152.279 46.524 151.638 46.524C151.171 46.524 150.78 46.6364 150.463 46.8614C150.155 47.0863 150.001 47.3654 150.001 47.6986ZM151.488 43.2499C152.337 43.2499 153.008 43.479 153.5 43.9372C153.991 44.3871 154.237 45.0078 154.237 45.7992V49.5731H153.137V48.7233H153.087C152.612 49.4231 151.979 49.773 151.188 49.773C150.513 49.773 149.946 49.5731 149.488 49.1732C149.038 48.7733 148.813 48.2735 148.813 47.6736C148.813 47.0405 149.051 46.5365 149.526 46.1616C150.009 45.7867 150.65 45.5992 151.45 45.5992C152.133 45.5992 152.696 45.7242 153.137 45.9741V45.7117C153.137 45.3118 152.979 44.9744 152.662 44.6995C152.346 44.4163 151.975 44.2746 151.55 44.2746C150.909 44.2746 150.4 44.5454 150.026 45.0869L149.013 44.4496C149.572 43.6498 150.396 43.2499 151.488 43.2499Z" fill="#555555"/>
<path d="M155.534 43.4499H156.633V44.2996H156.683C156.858 43.9997 157.125 43.7498 157.483 43.5499C157.85 43.3499 158.229 43.2499 158.62 43.2499C159.37 43.2499 159.945 43.4665 160.345 43.8998C160.753 44.3246 160.957 44.9328 160.957 45.7242V49.5731H159.807V45.7992C159.782 44.7995 159.278 44.2996 158.295 44.2996C157.837 44.2996 157.454 44.4871 157.146 44.862C156.837 45.2285 156.683 45.6701 156.683 46.1866V49.5731H155.534V43.4499Z" fill="#555555"/>
<path d="M165.056 48.7233C165.622 48.7233 166.084 48.5192 166.443 48.111C166.818 47.7028 167.005 47.1696 167.005 46.5115C167.005 45.87 166.818 45.341 166.443 44.9244C166.076 44.5079 165.614 44.2996 165.056 44.2996C164.506 44.2996 164.043 44.5079 163.669 44.9244C163.294 45.341 163.106 45.87 163.106 46.5115C163.106 47.1613 163.294 47.6903 163.669 48.0985C164.043 48.5151 164.506 48.7233 165.056 48.7233ZM164.868 49.773C164.068 49.773 163.381 49.4564 162.806 48.8233C162.24 48.1818 161.957 47.4112 161.957 46.5115C161.957 45.6117 162.24 44.8411 162.806 44.1997C163.381 43.5665 164.068 43.2499 164.868 43.2499C165.318 43.2499 165.726 43.3457 166.093 43.5374C166.468 43.729 166.755 43.9831 166.955 44.2996H167.005L166.955 43.4499V40.6257H168.105V49.5731H167.005V48.7233H166.955C166.755 49.0399 166.468 49.294 166.093 49.4856C165.726 49.6772 165.318 49.773 164.868 49.773Z" fill="#555555"/>
<path d="M173.402 40.6257V49.5731H172.252V40.6257H173.402Z" fill="#555555"/>
<path d="M176.29 41.338C176.29 41.5629 176.211 41.7546 176.052 41.9128C175.894 42.0711 175.702 42.1503 175.478 42.1503C175.253 42.1503 175.061 42.0711 174.903 41.9128C174.744 41.7546 174.665 41.5629 174.665 41.338C174.665 41.1131 174.744 40.9215 174.903 40.7632C175.061 40.6049 175.253 40.5258 175.478 40.5258C175.702 40.5258 175.894 40.6049 176.052 40.7632C176.211 40.9215 176.29 41.1131 176.29 41.338ZM176.052 43.4499V49.5731H174.903V43.4499H176.052Z" fill="#555555"/>
<path d="M180.523 49.5731H179.373L176.899 43.4499H178.148L179.948 48.1985H179.973L181.797 43.4499H183.022L180.523 49.5731Z" fill="#555555"/>
<path d="M186.338 49.773C185.439 49.773 184.697 49.4648 184.114 48.8483C183.531 48.2318 183.239 47.4529 183.239 46.5115C183.239 45.5784 183.523 44.8037 184.089 44.1872C184.656 43.5624 185.38 43.2499 186.263 43.2499C187.171 43.2499 187.892 43.5457 188.425 44.1372C188.967 44.7203 189.238 45.5409 189.238 46.599L189.225 46.7239H184.414C184.431 47.3237 184.631 47.8069 185.014 48.1735C185.397 48.54 185.855 48.7233 186.388 48.7233C187.121 48.7233 187.696 48.3568 188.113 47.6236L189.138 48.1235C188.863 48.64 188.479 49.0441 187.988 49.3356C187.505 49.6272 186.955 49.773 186.338 49.773ZM184.501 45.7742H188.013C187.98 45.3493 187.805 44.9994 187.488 44.7245C187.18 44.4413 186.763 44.2996 186.238 44.2996C185.805 44.2996 185.43 44.4329 185.114 44.6995C184.806 44.9661 184.601 45.3243 184.501 45.7742Z" fill="#555555"/>
</svg>
