<svg width="21" height="22" viewBox="0 0 21 22" fill="none" xmlns="http://www.w3.org/2000/svg">
<path d="M19.5599 9.74L18.1999 8.16C17.9399 7.86 17.7299 7.3 17.7299 6.9V5.2C17.7299 4.14 16.8599 3.27 15.7999 3.27H14.0999C13.7099 3.27 13.1399 3.06 12.8399 2.8L11.2599 1.44C10.5699 0.849998 9.43988 0.849998 8.73988 1.44L7.16988 2.81C6.86988 3.06 6.29988 3.27 5.90988 3.27H4.17988C3.11988 3.27 2.24988 4.14 2.24988 5.2V6.91C2.24988 7.3 2.03988 7.86 1.78988 8.16L0.439883 9.75C-0.140117 10.44 -0.140117 11.56 0.439883 12.25L1.78988 13.84C2.03988 14.14 2.24988 14.7 2.24988 15.09V16.8C2.24988 17.86 3.11988 18.73 4.17988 18.73H5.90988C6.29988 18.73 6.86988 18.94 7.16988 19.2L8.74988 20.56C9.43988 21.15 10.5699 21.15 11.2699 20.56L12.8499 19.2C13.1499 18.94 13.7099 18.73 14.1099 18.73H15.8099C16.8699 18.73 17.7399 17.86 17.7399 16.8V15.1C17.7399 14.71 17.9499 14.14 18.2099 13.84L19.5699 12.26C20.1499 11.57 20.1499 10.43 19.5599 9.74ZM14.1599 9.11L9.32988 13.94C9.18988 14.08 8.99988 14.16 8.79988 14.16C8.59988 14.16 8.40988 14.08 8.26988 13.94L5.84988 11.52C5.55988 11.23 5.55988 10.75 5.84988 10.46C6.13988 10.17 6.61988 10.17 6.90988 10.46L8.79988 12.35L13.0999 8.05C13.3899 7.76 13.8699 7.76 14.1599 8.05C14.4499 8.34 14.4499 8.82 14.1599 9.11Z" fill="#0068E1"/>
</svg>
