<svg width="130" height="42" viewBox="0 0 130 42" fill="none" xmlns="http://www.w3.org/2000/svg">
<rect width="130" height="42" rx="8" fill="black"/>
<g clip-path="url(#clip0_4077_11583)">
<path d="M29.792 27.7035C29.429 28.542 28.9994 29.3139 28.5016 30.0235C27.8231 30.9908 27.2676 31.6605 26.8395 32.0323C26.1758 32.6426 25.4647 32.9552 24.7032 32.973C24.1566 32.973 23.4973 32.8175 22.73 32.5019C21.9601 32.1878 21.2525 32.0323 20.6056 32.0323C19.9271 32.0323 19.1994 32.1878 18.4211 32.5019C17.6415 32.8175 17.0136 32.9819 16.5334 32.9982C15.8032 33.0293 15.0754 32.7078 14.3489 32.0323C13.8852 31.6279 13.3052 30.9345 12.6104 29.9524C11.865 28.9035 11.2521 27.6872 10.772 26.3006C10.2578 24.8029 10 23.3526 10 21.9484C10 20.3401 10.3475 18.9528 11.0437 17.7904C11.5908 16.8566 12.3186 16.12 13.2295 15.5793C14.1405 15.0386 15.1247 14.763 16.1847 14.7454C16.7647 14.7454 17.5252 14.9248 18.4704 15.2774C19.4129 15.6312 20.0181 15.8106 20.2834 15.8106C20.4817 15.8106 21.154 15.6008 22.2937 15.1826C23.3714 14.7947 24.281 14.6342 25.0262 14.6974C27.0454 14.8604 28.5624 15.6563 29.5712 17.0904C27.7654 18.1846 26.8721 19.7171 26.8898 21.6831C26.9061 23.2145 27.4617 24.4888 28.5535 25.5006C29.0483 25.9703 29.6009 26.3332 30.2156 26.591C30.0823 26.9776 29.9416 27.348 29.792 27.7035ZM25.161 9.48038C25.161 10.6807 24.7225 11.8013 23.8484 12.8386C22.7937 14.0718 21.5179 14.7844 20.1343 14.6719C20.1167 14.5279 20.1065 14.3764 20.1065 14.2171C20.1065 13.0649 20.6081 11.8317 21.4989 10.8235C21.9436 10.3129 22.5092 9.88847 23.1951 9.54986C23.8796 9.2163 24.5269 9.03183 25.1358 9.00024C25.1536 9.1607 25.161 9.32117 25.161 9.48037V9.48038Z" fill="#FAFAFA"/>
</g>
<path d="M40.72 17V9.84H42.91C44.0033 9.84 44.88 10.17 45.54 10.83C46.2067 11.49 46.54 12.3533 46.54 13.42C46.54 14.4933 46.2067 15.36 45.54 16.02C44.88 16.6733 44.0033 17 42.91 17H40.72ZM41.64 10.72V16.12H42.91C43.7433 16.12 44.4 15.8833 44.88 15.41C45.36 14.93 45.6 14.2667 45.6 13.42C45.6 12.58 45.36 11.92 44.88 11.44C44.4 10.96 43.7433 10.72 42.91 10.72H41.64ZM47.0476 14.55C47.0476 13.7967 47.2842 13.1733 47.7576 12.68C48.2376 12.1867 48.8409 11.94 49.5676 11.94C50.2942 11.94 50.8942 12.1867 51.3676 12.68C51.8476 13.1733 52.0876 13.7967 52.0876 14.55C52.0876 15.31 51.8476 15.9333 51.3676 16.42C50.8942 16.9133 50.2942 17.16 49.5676 17.16C48.8409 17.16 48.2376 16.9133 47.7576 16.42C47.2842 15.9267 47.0476 15.3033 47.0476 14.55ZM47.9676 14.55C47.9676 15.0767 48.1209 15.5033 48.4276 15.83C48.7342 16.1567 49.1142 16.32 49.5676 16.32C50.0209 16.32 50.4009 16.1567 50.7076 15.83C51.0142 15.5033 51.1676 15.0767 51.1676 14.55C51.1676 14.03 51.0142 13.6067 50.7076 13.28C50.3942 12.9467 50.0142 12.78 49.5676 12.78C49.1209 12.78 48.7409 12.9467 48.4276 13.28C48.1209 13.6067 47.9676 14.03 47.9676 14.55ZM59.7656 12.1L58.1856 17H57.2456L56.0256 13.24L54.8156 17H53.8856L52.3056 12.1H53.2656L54.3556 15.8H54.3656L55.5756 12.1H56.5256L57.7356 15.8H57.7456L58.8256 12.1H59.7656ZM60.3647 12.1H61.2447V12.78H61.2847C61.4247 12.54 61.638 12.34 61.9247 12.18C62.218 12.02 62.5214 11.94 62.8347 11.94C63.4347 11.94 63.8947 12.1133 64.2147 12.46C64.5414 12.8 64.7047 13.2867 64.7047 13.92V17H63.7847V13.98C63.7647 13.18 63.3614 12.78 62.5747 12.78C62.208 12.78 61.9014 12.93 61.6547 13.23C61.408 13.5233 61.2847 13.8767 61.2847 14.29V17H60.3647V12.1ZM66.7046 9.84V17H65.7846V9.84H66.7046ZM67.4968 14.55C67.4968 13.7967 67.7335 13.1733 68.2068 12.68C68.6868 12.1867 69.2901 11.94 70.0168 11.94C70.7435 11.94 71.3435 12.1867 71.8168 12.68C72.2968 13.1733 72.5368 13.7967 72.5368 14.55C72.5368 15.31 72.2968 15.9333 71.8168 16.42C71.3435 16.9133 70.7435 17.16 70.0168 17.16C69.2901 17.16 68.6868 16.9133 68.2068 16.42C67.7335 15.9267 67.4968 15.3033 67.4968 14.55ZM68.4168 14.55C68.4168 15.0767 68.5701 15.5033 68.8768 15.83C69.1835 16.1567 69.5635 16.32 70.0168 16.32C70.4701 16.32 70.8501 16.1567 71.1568 15.83C71.4635 15.5033 71.6168 15.0767 71.6168 14.55C71.6168 14.03 71.4635 13.6067 71.1568 13.28C70.8435 12.9467 70.4635 12.78 70.0168 12.78C69.5701 12.78 69.1901 12.9467 68.8768 13.28C68.5701 13.6067 68.4168 14.03 68.4168 14.55ZM74.0425 15.5C74.0425 15.74 74.1425 15.94 74.3425 16.1C74.5492 16.26 74.7892 16.34 75.0625 16.34C75.4492 16.34 75.7925 16.1967 76.0925 15.91C76.3992 15.6233 76.5525 15.2867 76.5525 14.9C76.2658 14.6733 75.8658 14.56 75.3525 14.56C74.9792 14.56 74.6658 14.65 74.4125 14.83C74.1658 15.01 74.0425 15.2333 74.0425 15.5ZM75.2325 11.94C75.9125 11.94 76.4492 12.1233 76.8425 12.49C77.2358 12.85 77.4325 13.3467 77.4325 13.98V17H76.5525V16.32H76.5125C76.1325 16.88 75.6258 17.16 74.9925 17.16C74.4525 17.16 73.9992 17 73.6325 16.68C73.2725 16.36 73.0925 15.96 73.0925 15.48C73.0925 14.9733 73.2825 14.57 73.6625 14.27C74.0492 13.97 74.5625 13.82 75.2025 13.82C75.7492 13.82 76.1992 13.92 76.5525 14.12V13.91C76.5525 13.59 76.4258 13.32 76.1725 13.1C75.9192 12.8733 75.6225 12.76 75.2825 12.76C74.7692 12.76 74.3625 12.9767 74.0625 13.41L73.2525 12.9C73.6992 12.26 74.3592 11.94 75.2325 11.94ZM80.6213 16.32C81.0747 16.32 81.4447 16.1567 81.7313 15.83C82.0313 15.5033 82.1813 15.0767 82.1813 14.55C82.1813 14.0367 82.0313 13.6133 81.7313 13.28C81.438 12.9467 81.068 12.78 80.6213 12.78C80.1813 12.78 79.8113 12.9467 79.5113 13.28C79.2113 13.6133 79.0613 14.0367 79.0613 14.55C79.0613 15.07 79.2113 15.4933 79.5113 15.82C79.8113 16.1533 80.1813 16.32 80.6213 16.32ZM80.4713 17.16C79.8313 17.16 79.2813 16.9067 78.8213 16.4C78.368 15.8867 78.1413 15.27 78.1413 14.55C78.1413 13.83 78.368 13.2133 78.8213 12.7C79.2813 12.1933 79.8313 11.94 80.4713 11.94C80.8313 11.94 81.158 12.0167 81.4513 12.17C81.7513 12.3233 81.9813 12.5267 82.1413 12.78H82.1813L82.1413 12.1V9.84H83.0613V17H82.1813V16.32H82.1413C81.9813 16.5733 81.7513 16.7767 81.4513 16.93C81.158 17.0833 80.8313 17.16 80.4713 17.16ZM86.1003 14.55C86.1003 13.7967 86.337 13.1733 86.8103 12.68C87.2903 12.1867 87.8936 11.94 88.6203 11.94C89.347 11.94 89.947 12.1867 90.4203 12.68C90.9003 13.1733 91.1403 13.7967 91.1403 14.55C91.1403 15.31 90.9003 15.9333 90.4203 16.42C89.947 16.9133 89.347 17.16 88.6203 17.16C87.8936 17.16 87.2903 16.9133 86.8103 16.42C86.337 15.9267 86.1003 15.3033 86.1003 14.55ZM87.0203 14.55C87.0203 15.0767 87.1736 15.5033 87.4803 15.83C87.787 16.1567 88.167 16.32 88.6203 16.32C89.0736 16.32 89.4536 16.1567 89.7603 15.83C90.067 15.5033 90.2203 15.0767 90.2203 14.55C90.2203 14.03 90.067 13.6067 89.7603 13.28C89.447 12.9467 89.067 12.78 88.6203 12.78C88.1736 12.78 87.7936 12.9467 87.4803 13.28C87.1736 13.6067 87.0203 14.03 87.0203 14.55ZM91.8784 12.1H92.7584V12.78H92.7984C92.9384 12.54 93.1517 12.34 93.4384 12.18C93.7317 12.02 94.035 11.94 94.3484 11.94C94.9484 11.94 95.4084 12.1133 95.7284 12.46C96.055 12.8 96.2184 13.2867 96.2184 13.92V17H95.2984V13.98C95.2784 13.18 94.875 12.78 94.0884 12.78C93.7217 12.78 93.415 12.93 93.1684 13.23C92.9217 13.5233 92.7984 13.8767 92.7984 14.29V17H91.8784V12.1ZM101.436 17.08C101.036 17.08 100.702 16.9567 100.436 16.71C100.176 16.4633 100.042 16.12 100.036 15.68V12.94H99.1755V12.1H100.036V10.6H100.956V12.1H102.156V12.94H100.956V15.38C100.956 15.7067 101.019 15.93 101.146 16.05C101.272 16.1633 101.416 16.22 101.576 16.22C101.649 16.22 101.719 16.2133 101.786 16.2C101.859 16.18 101.926 16.1567 101.986 16.13L102.276 16.95C102.036 17.0367 101.756 17.08 101.436 17.08ZM103.08 9.84H104V12.1L103.96 12.78H104C104.14 12.54 104.353 12.34 104.64 12.18C104.933 12.02 105.236 11.94 105.55 11.94C106.15 11.94 106.61 12.1133 106.93 12.46C107.256 12.8 107.42 13.2867 107.42 13.92V17H106.5V14.1C106.5 13.22 106.11 12.78 105.33 12.78C104.956 12.78 104.64 12.9367 104.38 13.25C104.126 13.5567 104 13.9167 104 14.33V17H103.08V9.84ZM110.699 17.16C109.979 17.16 109.386 16.9133 108.919 16.42C108.453 15.9267 108.219 15.3033 108.219 14.55C108.219 13.8033 108.446 13.1833 108.899 12.69C109.353 12.19 109.933 11.94 110.639 11.94C111.366 11.94 111.943 12.1767 112.369 12.65C112.803 13.1167 113.019 13.7733 113.019 14.62L113.009 14.72H109.159C109.173 15.2 109.333 15.5867 109.639 15.88C109.946 16.1733 110.313 16.32 110.739 16.32C111.326 16.32 111.786 16.0267 112.119 15.44L112.939 15.84C112.719 16.2533 112.413 16.5767 112.019 16.81C111.633 17.0433 111.193 17.16 110.699 17.16ZM109.229 13.96H112.039C112.013 13.62 111.873 13.34 111.619 13.12C111.373 12.8933 111.039 12.78 110.619 12.78C110.273 12.78 109.973 12.8867 109.719 13.1C109.473 13.3133 109.309 13.6 109.229 13.96Z" fill="#FAFAFA"/>
<path d="M43.934 21.976H46.09L49.856 32H47.77L46.944 29.606H43.08L42.254 32H40.168L43.934 21.976ZM46.328 27.87L45.432 25.364L45.068 24.146H44.956L44.592 25.364L43.696 27.87H46.328ZM50.8178 25.14H52.5398V25.966H52.6518C52.8198 25.6767 53.0812 25.4293 53.4358 25.224C53.7905 25.0187 54.2292 24.916 54.7518 24.916C55.1905 24.916 55.6058 25.0093 55.9978 25.196C56.3992 25.3733 56.7492 25.6253 57.0478 25.952C57.3558 26.2693 57.5985 26.652 57.7758 27.1C57.9532 27.548 58.0418 28.038 58.0418 28.57C58.0418 29.102 57.9532 29.592 57.7758 30.04C57.5985 30.488 57.3558 30.8753 57.0478 31.202C56.7492 31.5193 56.3992 31.7713 55.9978 31.958C55.6058 32.1353 55.1905 32.224 54.7518 32.224C54.2292 32.224 53.7905 32.1213 53.4358 31.916C53.0812 31.7107 52.8198 31.4633 52.6518 31.174H52.5398L52.6518 32.154V35.024H50.8178V25.14ZM54.3738 30.53C54.6165 30.53 54.8452 30.4833 55.0598 30.39C55.2838 30.2967 55.4798 30.166 55.6478 29.998C55.8158 29.83 55.9512 29.6247 56.0538 29.382C56.1565 29.1393 56.2078 28.8687 56.2078 28.57C56.2078 28.2713 56.1565 28.0007 56.0538 27.758C55.9512 27.5153 55.8158 27.31 55.6478 27.142C55.4798 26.974 55.2838 26.8433 55.0598 26.75C54.8452 26.6567 54.6165 26.61 54.3738 26.61C54.1312 26.61 53.8978 26.6567 53.6738 26.75C53.4592 26.834 53.2678 26.96 53.0998 27.128C52.9318 27.296 52.7965 27.5013 52.6938 27.744C52.5912 27.9867 52.5398 28.262 52.5398 28.57C52.5398 28.878 52.5912 29.1533 52.6938 29.396C52.7965 29.6387 52.9318 29.844 53.0998 30.012C53.2678 30.18 53.4592 30.3107 53.6738 30.404C53.8978 30.488 54.1312 30.53 54.3738 30.53ZM59.021 25.14H60.743V25.966H60.855C61.023 25.6767 61.2843 25.4293 61.639 25.224C61.9936 25.0187 62.4323 24.916 62.955 24.916C63.3936 24.916 63.809 25.0093 64.201 25.196C64.6023 25.3733 64.9523 25.6253 65.251 25.952C65.559 26.2693 65.8016 26.652 65.979 27.1C66.1563 27.548 66.245 28.038 66.245 28.57C66.245 29.102 66.1563 29.592 65.979 30.04C65.8016 30.488 65.559 30.8753 65.251 31.202C64.9523 31.5193 64.6023 31.7713 64.201 31.958C63.809 32.1353 63.3936 32.224 62.955 32.224C62.4323 32.224 61.9936 32.1213 61.639 31.916C61.2843 31.7107 61.023 31.4633 60.855 31.174H60.743L60.855 32.154V35.024H59.021V25.14ZM62.577 30.53C62.8196 30.53 63.0483 30.4833 63.263 30.39C63.487 30.2967 63.683 30.166 63.851 29.998C64.019 29.83 64.1543 29.6247 64.257 29.382C64.3596 29.1393 64.411 28.8687 64.411 28.57C64.411 28.2713 64.3596 28.0007 64.257 27.758C64.1543 27.5153 64.019 27.31 63.851 27.142C63.683 26.974 63.487 26.8433 63.263 26.75C63.0483 26.6567 62.8196 26.61 62.577 26.61C62.3343 26.61 62.101 26.6567 61.877 26.75C61.6623 26.834 61.471 26.96 61.303 27.128C61.135 27.296 60.9996 27.5013 60.897 27.744C60.7943 27.9867 60.743 28.262 60.743 28.57C60.743 28.878 60.7943 29.1533 60.897 29.396C60.9996 29.6387 61.135 29.844 61.303 30.012C61.471 30.18 61.6623 30.3107 61.877 30.404C62.101 30.488 62.3343 30.53 62.577 30.53ZM73.3592 32.224C72.9298 32.224 72.5192 32.1633 72.1272 32.042C71.7352 31.9207 71.3758 31.7387 71.0492 31.496C70.7225 31.2533 70.4378 30.9593 70.1952 30.614C69.9525 30.2593 69.7612 29.8487 69.6212 29.382L71.3992 28.682C71.5298 29.186 71.7585 29.606 72.0852 29.942C72.4118 30.2687 72.8412 30.432 73.3732 30.432C73.5692 30.432 73.7558 30.4087 73.9332 30.362C74.1198 30.306 74.2832 30.2313 74.4232 30.138C74.5725 30.0353 74.6892 29.9093 74.7732 29.76C74.8572 29.6107 74.8992 29.438 74.8992 29.242C74.8992 29.0553 74.8665 28.8873 74.8012 28.738C74.7358 28.5887 74.6238 28.4487 74.4652 28.318C74.3158 28.1873 74.1152 28.0613 73.8632 27.94C73.6205 27.8187 73.3172 27.6927 72.9532 27.562L72.3372 27.338C72.0665 27.2447 71.7912 27.1187 71.5112 26.96C71.2405 26.8013 70.9932 26.61 70.7692 26.386C70.5452 26.162 70.3585 25.9007 70.2092 25.602C70.0692 25.294 69.9992 24.9487 69.9992 24.566C69.9992 24.174 70.0738 23.81 70.2232 23.474C70.3818 23.1287 70.6012 22.83 70.8812 22.578C71.1705 22.3167 71.5112 22.116 71.9032 21.976C72.3045 21.8267 72.7478 21.752 73.2332 21.752C73.7372 21.752 74.1712 21.822 74.5352 21.962C74.9085 22.0927 75.2212 22.2653 75.4732 22.48C75.7345 22.6853 75.9445 22.914 76.1032 23.166C76.2618 23.418 76.3785 23.656 76.4532 23.88L74.7872 24.58C74.6938 24.3 74.5212 24.048 74.2692 23.824C74.0265 23.6 73.6905 23.488 73.2612 23.488C72.8505 23.488 72.5098 23.586 72.2392 23.782C71.9685 23.9687 71.8332 24.216 71.8332 24.524C71.8332 24.8227 71.9638 25.0793 72.2252 25.294C72.4865 25.4993 72.9018 25.7 73.4712 25.896L74.1012 26.106C74.5025 26.246 74.8665 26.4093 75.1932 26.596C75.5292 26.7733 75.8138 26.988 76.0472 27.24C76.2898 27.492 76.4718 27.7813 76.5932 28.108C76.7238 28.4253 76.7892 28.794 76.7892 29.214C76.7892 29.7367 76.6818 30.1893 76.4672 30.572C76.2618 30.9453 75.9958 31.2533 75.6692 31.496C75.3425 31.7387 74.9738 31.9207 74.5632 32.042C74.1525 32.1633 73.7512 32.224 73.3592 32.224ZM78.5224 26.708H77.3184V25.14H78.5224V23.04H80.3564V25.14H82.0364V26.708H80.3564V29.368C80.3564 29.5267 80.3704 29.676 80.3984 29.816C80.4358 29.9467 80.5011 30.0587 80.5944 30.152C80.7251 30.3013 80.9118 30.376 81.1544 30.376C81.3131 30.376 81.4391 30.362 81.5324 30.334C81.6258 30.2967 81.7144 30.25 81.7984 30.194L82.3164 31.804C82.1018 31.9067 81.8684 31.9813 81.6164 32.028C81.3738 32.084 81.1031 32.112 80.8044 32.112C80.4591 32.112 80.1464 32.0607 79.8664 31.958C79.5958 31.846 79.3671 31.6967 79.1804 31.51C78.7418 31.09 78.5224 30.4927 78.5224 29.718V26.708ZM86.5652 24.916C87.0972 24.916 87.5825 25.0093 88.0212 25.196C88.4692 25.3733 88.8519 25.6253 89.1692 25.952C89.4959 26.2693 89.7479 26.652 89.9252 27.1C90.1119 27.548 90.2052 28.038 90.2052 28.57C90.2052 29.102 90.1119 29.592 89.9252 30.04C89.7479 30.488 89.4959 30.8753 89.1692 31.202C88.8519 31.5193 88.4692 31.7713 88.0212 31.958C87.5825 32.1353 87.0972 32.224 86.5652 32.224C86.0332 32.224 85.5432 32.1353 85.0952 31.958C84.6565 31.7713 84.2739 31.5193 83.9472 31.202C83.6299 30.8753 83.3779 30.488 83.1912 30.04C83.0139 29.592 82.9252 29.102 82.9252 28.57C82.9252 28.038 83.0139 27.548 83.1912 27.1C83.3779 26.652 83.6299 26.2693 83.9472 25.952C84.2739 25.6253 84.6565 25.3733 85.0952 25.196C85.5432 25.0093 86.0332 24.916 86.5652 24.916ZM86.5652 30.53C86.7985 30.53 87.0225 30.488 87.2372 30.404C87.4612 30.3107 87.6572 30.18 87.8252 30.012C87.9932 29.844 88.1239 29.6387 88.2172 29.396C88.3199 29.1533 88.3712 28.878 88.3712 28.57C88.3712 28.262 88.3199 27.9867 88.2172 27.744C88.1239 27.5013 87.9932 27.296 87.8252 27.128C87.6572 26.96 87.4612 26.834 87.2372 26.75C87.0225 26.6567 86.7985 26.61 86.5652 26.61C86.3225 26.61 86.0939 26.6567 85.8792 26.75C85.6645 26.834 85.4732 26.96 85.3052 27.128C85.1372 27.296 85.0019 27.5013 84.8992 27.744C84.8059 27.9867 84.7592 28.262 84.7592 28.57C84.7592 28.878 84.8059 29.1533 84.8992 29.396C85.0019 29.6387 85.1372 29.844 85.3052 30.012C85.4732 30.18 85.6645 30.3107 85.8792 30.404C86.0939 30.488 86.3225 30.53 86.5652 30.53ZM91.2469 25.14H92.9689V26.092H93.0809C93.1649 25.924 93.2769 25.77 93.4169 25.63C93.5569 25.49 93.7109 25.3687 93.8789 25.266C94.0562 25.1633 94.2429 25.084 94.4389 25.028C94.6442 24.972 94.8449 24.944 95.0409 24.944C95.2836 24.944 95.4889 24.9673 95.6569 25.014C95.8342 25.0607 95.9836 25.1213 96.1049 25.196L95.6149 26.862C95.5029 26.806 95.3769 26.764 95.2369 26.736C95.1062 26.6987 94.9429 26.68 94.7469 26.68C94.4949 26.68 94.2662 26.7313 94.0609 26.834C93.8556 26.9273 93.6782 27.0627 93.5289 27.24C93.3889 27.4173 93.2769 27.6273 93.1929 27.87C93.1182 28.1033 93.0809 28.36 93.0809 28.64V32H91.2469V25.14ZM103.02 30.348C102.703 30.908 102.274 31.3607 101.732 31.706C101.2 32.0513 100.547 32.224 99.7722 32.224C99.2496 32.224 98.7642 32.1353 98.3162 31.958C97.8776 31.7713 97.4949 31.5147 97.1682 31.188C96.8416 30.8613 96.5849 30.4787 96.3982 30.04C96.2209 29.592 96.1322 29.102 96.1322 28.57C96.1322 28.0753 96.2209 27.6087 96.3982 27.17C96.5756 26.722 96.8229 26.3347 97.1402 26.008C97.4576 25.672 97.8309 25.406 98.2602 25.21C98.6989 25.014 99.1796 24.916 99.7022 24.916C100.253 24.916 100.743 25.0093 101.172 25.196C101.602 25.3733 101.961 25.6253 102.25 25.952C102.54 26.2693 102.759 26.6473 102.908 27.086C103.058 27.5247 103.132 28.0007 103.132 28.514C103.132 28.5793 103.132 28.6353 103.132 28.682C103.123 28.738 103.118 28.7893 103.118 28.836C103.109 28.8827 103.104 28.934 103.104 28.99H97.9382C97.9756 29.27 98.0502 29.5127 98.1622 29.718C98.2836 29.914 98.4282 30.082 98.5962 30.222C98.7736 30.3527 98.9649 30.4507 99.1702 30.516C99.3756 30.572 99.5856 30.6 99.8002 30.6C100.22 30.6 100.566 30.5067 100.836 30.32C101.116 30.124 101.336 29.8813 101.494 29.592L103.02 30.348ZM101.354 27.688C101.345 27.5667 101.303 27.4313 101.228 27.282C101.163 27.1327 101.06 26.9927 100.92 26.862C100.79 26.7313 100.622 26.624 100.416 26.54C100.22 26.456 99.9822 26.414 99.7022 26.414C99.3102 26.414 98.9649 26.526 98.6662 26.75C98.3676 26.974 98.1576 27.2867 98.0362 27.688H101.354Z" fill="#FAFAFA"/>
<defs>
<clipPath id="clip0_4077_11583">
<rect width="24" height="24" fill="white" transform="translate(8 9)"/>
</clipPath>
</defs>
</svg>
