<svg width="133" height="42" viewBox="0 0 133 42" fill="none" xmlns="http://www.w3.org/2000/svg">
<rect width="133" height="42" rx="8" fill="black"/>
<mask id="mask0_4077_11588" style="mask-type:alpha" maskUnits="userSpaceOnUse" x="13" y="11" width="19" height="20">
<path d="M30.5363 19.8003C31.4879 20.324 31.4879 21.676 30.5363 22.1997L15.3172 30.5744C14.3904 31.0844 13.25 30.4226 13.25 29.3747L13.25 12.6253C13.25 11.5774 14.3904 10.9156 15.3172 11.4256L30.5363 19.8003Z" fill="#C4C4C4"/>
</mask>
<g mask="url(#mask0_4077_11588)">
<path d="M13.726 30.4097L23.2192 20.8632L13.8824 11.4739C13.5099 11.7127 13.25 12.1249 13.25 12.6252V29.3746C13.25 29.8014 13.4392 30.1641 13.726 30.4097Z" fill="url(#paint0_linear_4077_11588)"/>
<path d="M30.5363 19.8004C31.4879 20.3241 31.4879 21.6762 30.5363 22.1998L26.6968 24.3126L23.2192 20.8634L26.5195 17.5901L30.5363 19.8004Z" fill="url(#paint1_linear_4077_11588)"/>
<path d="M26.6968 24.3125L23.2192 20.8633L13.726 30.4099C14.1435 30.7673 14.7679 30.8767 15.3172 30.5744L26.6968 24.3125Z" fill="url(#paint2_linear_4077_11588)"/>
<path d="M13.8824 11.474L23.2192 20.8633L26.5194 17.59L15.3172 11.4256C14.8328 11.1591 14.2901 11.2126 13.8824 11.474Z" fill="url(#paint3_linear_4077_11588)"/>
</g>
<path d="M43.32 10.97L42.15 14.2H44.53L43.36 10.97H43.32ZM41.14 17H40.12L42.82 9.84H43.86L46.56 17H45.54L44.85 15.06H41.84L41.14 17ZM49.1216 17H48.2016L46.2216 12.1H47.2216L48.6616 15.9H48.6816L50.1416 12.1H51.1216L49.1216 17ZM52.2945 15.5C52.2945 15.74 52.3945 15.94 52.5945 16.1C52.8011 16.26 53.0411 16.34 53.3145 16.34C53.7011 16.34 54.0445 16.1967 54.3445 15.91C54.6511 15.6233 54.8045 15.2867 54.8045 14.9C54.5178 14.6733 54.1178 14.56 53.6045 14.56C53.2311 14.56 52.9178 14.65 52.6645 14.83C52.4178 15.01 52.2945 15.2333 52.2945 15.5ZM53.4845 11.94C54.1645 11.94 54.7011 12.1233 55.0945 12.49C55.4878 12.85 55.6845 13.3467 55.6845 13.98V17H54.8045V16.32H54.7645C54.3845 16.88 53.8778 17.16 53.2445 17.16C52.7045 17.16 52.2511 17 51.8845 16.68C51.5245 16.36 51.3445 15.96 51.3445 15.48C51.3445 14.9733 51.5345 14.57 51.9145 14.27C52.3011 13.97 52.8145 13.82 53.4545 13.82C54.0011 13.82 54.4511 13.92 54.8045 14.12V13.91C54.8045 13.59 54.6778 13.32 54.4245 13.1C54.1711 12.8733 53.8745 12.76 53.5345 12.76C53.0211 12.76 52.6145 12.9767 52.3145 13.41L51.5045 12.9C51.9511 12.26 52.6111 11.94 53.4845 11.94ZM57.9121 10.41C57.9121 10.59 57.8488 10.7433 57.7221 10.87C57.5954 10.9967 57.4421 11.06 57.2621 11.06C57.0821 11.06 56.9288 10.9967 56.8021 10.87C56.6754 10.7433 56.6121 10.59 56.6121 10.41C56.6121 10.23 56.6754 10.0767 56.8021 9.95C56.9288 9.82333 57.0821 9.76 57.2621 9.76C57.4421 9.76 57.5954 9.82333 57.7221 9.95C57.8488 10.0767 57.9121 10.23 57.9121 10.41ZM57.7221 12.1V17H56.8021V12.1H57.7221ZM59.8394 9.84V17H58.9194V9.84H59.8394ZM61.5816 15.5C61.5816 15.74 61.6816 15.94 61.8816 16.1C62.0882 16.26 62.3282 16.34 62.6016 16.34C62.9882 16.34 63.3316 16.1967 63.6316 15.91C63.9382 15.6233 64.0916 15.2867 64.0916 14.9C63.8049 14.6733 63.4049 14.56 62.8916 14.56C62.5182 14.56 62.2049 14.65 61.9516 14.83C61.7049 15.01 61.5816 15.2333 61.5816 15.5ZM62.7716 11.94C63.4516 11.94 63.9882 12.1233 64.3816 12.49C64.7749 12.85 64.9716 13.3467 64.9716 13.98V17H64.0916V16.32H64.0516C63.6716 16.88 63.1649 17.16 62.5316 17.16C61.9916 17.16 61.5382 17 61.1716 16.68C60.8116 16.36 60.6316 15.96 60.6316 15.48C60.6316 14.9733 60.8216 14.57 61.2016 14.27C61.5882 13.97 62.1016 13.82 62.7416 13.82C63.2882 13.82 63.7382 13.92 64.0916 14.12V13.91C64.0916 13.59 63.9649 13.32 63.7116 13.1C63.4582 12.8733 63.1616 12.76 62.8216 12.76C62.3082 12.76 61.9016 12.9767 61.6016 13.41L60.7916 12.9C61.2382 12.26 61.8982 11.94 62.7716 11.94ZM68.5992 17.16C68.2392 17.16 67.9092 17.0833 67.6092 16.93C67.3159 16.7767 67.0892 16.5733 66.9292 16.32H66.8892V17H66.0092V9.84H66.9292V12.1L66.8892 12.78H66.9292C67.0892 12.5267 67.3159 12.3233 67.6092 12.17C67.9092 12.0167 68.2392 11.94 68.5992 11.94C69.2459 11.94 69.7926 12.1933 70.2392 12.7C70.6992 13.2133 70.9292 13.83 70.9292 14.55C70.9292 15.2767 70.6992 15.8933 70.2392 16.4C69.7926 16.9067 69.2459 17.16 68.5992 17.16ZM68.4492 16.32C68.8892 16.32 69.2592 16.1533 69.5592 15.82C69.8592 15.4933 70.0092 15.07 70.0092 14.55C70.0092 14.0367 69.8592 13.6133 69.5592 13.28C69.2592 12.9467 68.8892 12.78 68.4492 12.78C68.0026 12.78 67.6292 12.9467 67.3292 13.28C67.0359 13.6133 66.8892 14.0367 66.8892 14.55C66.8892 15.07 67.0359 15.4967 67.3292 15.83C67.6292 16.1567 68.0026 16.32 68.4492 16.32ZM72.6421 9.84V17H71.7221V9.84H72.6421ZM75.9143 17.16C75.1943 17.16 74.601 16.9133 74.1343 16.42C73.6676 15.9267 73.4343 15.3033 73.4343 14.55C73.4343 13.8033 73.661 13.1833 74.1143 12.69C74.5676 12.19 75.1476 11.94 75.8543 11.94C76.581 11.94 77.1576 12.1767 77.5843 12.65C78.0176 13.1167 78.2343 13.7733 78.2343 14.62L78.2243 14.72H74.3743C74.3876 15.2 74.5476 15.5867 74.8543 15.88C75.161 16.1733 75.5276 16.32 75.9543 16.32C76.541 16.32 77.001 16.0267 77.3343 15.44L78.1543 15.84C77.9343 16.2533 77.6276 16.5767 77.2343 16.81C76.8476 17.0433 76.4076 17.16 75.9143 17.16ZM74.4443 13.96H77.2543C77.2276 13.62 77.0876 13.34 76.8343 13.12C76.5876 12.8933 76.2543 12.78 75.8343 12.78C75.4876 12.78 75.1876 12.8867 74.9343 13.1C74.6876 13.3133 74.5243 13.6 74.4443 13.96ZM80.9929 14.55C80.9929 13.7967 81.2296 13.1733 81.7029 12.68C82.1829 12.1867 82.7862 11.94 83.5129 11.94C84.2396 11.94 84.8396 12.1867 85.3129 12.68C85.7929 13.1733 86.0329 13.7967 86.0329 14.55C86.0329 15.31 85.7929 15.9333 85.3129 16.42C84.8396 16.9133 84.2396 17.16 83.5129 17.16C82.7862 17.16 82.1829 16.9133 81.7029 16.42C81.2296 15.9267 80.9929 15.3033 80.9929 14.55ZM81.9129 14.55C81.9129 15.0767 82.0662 15.5033 82.3729 15.83C82.6796 16.1567 83.0596 16.32 83.5129 16.32C83.9662 16.32 84.3462 16.1567 84.6529 15.83C84.9596 15.5033 85.1129 15.0767 85.1129 14.55C85.1129 14.03 84.9596 13.6067 84.6529 13.28C84.3396 12.9467 83.9596 12.78 83.5129 12.78C83.0662 12.78 82.6862 12.9467 82.3729 13.28C82.0662 13.6067 81.9129 14.03 81.9129 14.55ZM86.7709 12.1H87.6509V12.78H87.6909C87.8309 12.54 88.0443 12.34 88.3309 12.18C88.6243 12.02 88.9276 11.94 89.2409 11.94C89.8409 11.94 90.3009 12.1133 90.6209 12.46C90.9476 12.8 91.1109 13.2867 91.1109 13.92V17H90.1909V13.98C90.1709 13.18 89.7676 12.78 88.9809 12.78C88.6143 12.78 88.3076 12.93 88.0609 13.23C87.8143 13.5233 87.6909 13.8767 87.6909 14.29V17H86.7709V12.1ZM96.3281 17.08C95.9281 17.08 95.5948 16.9567 95.3281 16.71C95.0681 16.4633 94.9348 16.12 94.9281 15.68V12.94H94.0681V12.1H94.9281V10.6H95.8481V12.1H97.0481V12.94H95.8481V15.38C95.8481 15.7067 95.9115 15.93 96.0381 16.05C96.1648 16.1633 96.3081 16.22 96.4681 16.22C96.5415 16.22 96.6115 16.2133 96.6781 16.2C96.7515 16.18 96.8181 16.1567 96.8781 16.13L97.1681 16.95C96.9281 17.0367 96.6481 17.08 96.3281 17.08ZM97.9721 9.84H98.8921V12.1L98.8521 12.78H98.8921C99.0321 12.54 99.2454 12.34 99.5321 12.18C99.8254 12.02 100.129 11.94 100.442 11.94C101.042 11.94 101.502 12.1133 101.822 12.46C102.149 12.8 102.312 13.2867 102.312 13.92V17H101.392V14.1C101.392 13.22 101.002 12.78 100.222 12.78C99.8488 12.78 99.5321 12.9367 99.2721 13.25C99.0188 13.5567 98.8921 13.9167 98.8921 14.33V17H97.9721V9.84ZM105.592 17.16C104.872 17.16 104.279 16.9133 103.812 16.42C103.345 15.9267 103.112 15.3033 103.112 14.55C103.112 13.8033 103.339 13.1833 103.792 12.69C104.245 12.19 104.825 11.94 105.532 11.94C106.259 11.94 106.835 12.1767 107.262 12.65C107.695 13.1167 107.912 13.7733 107.912 14.62L107.902 14.72H104.052C104.065 15.2 104.225 15.5867 104.532 15.88C104.839 16.1733 105.205 16.32 105.632 16.32C106.219 16.32 106.679 16.0267 107.012 15.44L107.832 15.84C107.612 16.2533 107.305 16.5767 106.912 16.81C106.525 17.0433 106.085 17.16 105.592 17.16ZM104.122 13.96H106.932C106.905 13.62 106.765 13.34 106.512 13.12C106.265 12.8933 105.932 12.78 105.512 12.78C105.165 12.78 104.865 12.8867 104.612 13.1C104.365 13.3133 104.202 13.6 104.122 13.96Z" fill="white"/>
<path d="M45.768 26.498H50.682C50.71 26.61 50.7333 26.7453 50.752 26.904C50.7707 27.0627 50.78 27.2213 50.78 27.38C50.78 28.024 50.682 28.6307 50.486 29.2C50.29 29.7693 49.982 30.278 49.562 30.726C49.114 31.202 48.5773 31.5707 47.952 31.832C47.3267 32.0933 46.6127 32.224 45.81 32.224C45.082 32.224 44.396 32.0933 43.752 31.832C43.108 31.5707 42.548 31.2067 42.072 30.74C41.596 30.2733 41.218 29.7227 40.938 29.088C40.658 28.444 40.518 27.744 40.518 26.988C40.518 26.232 40.658 25.5367 40.938 24.902C41.218 24.258 41.596 23.7027 42.072 23.236C42.548 22.7693 43.108 22.4053 43.752 22.144C44.396 21.8827 45.082 21.752 45.81 21.752C46.622 21.752 47.3453 21.892 47.98 22.172C48.624 22.452 49.1747 22.8393 49.632 23.334L48.33 24.608C48.0033 24.2627 47.6393 24.0013 47.238 23.824C46.8367 23.6373 46.356 23.544 45.796 23.544C45.3387 23.544 44.9047 23.628 44.494 23.796C44.0833 23.9547 43.724 24.1833 43.416 24.482C43.108 24.7807 42.8607 25.1447 42.674 25.574C42.4967 25.994 42.408 26.4653 42.408 26.988C42.408 27.5107 42.4967 27.9867 42.674 28.416C42.8607 28.836 43.108 29.1953 43.416 29.494C43.7333 29.7927 44.0973 30.026 44.508 30.194C44.9187 30.3527 45.3573 30.432 45.824 30.432C46.356 30.432 46.804 30.3573 47.168 30.208C47.5413 30.0493 47.8587 29.8487 48.12 29.606C48.3067 29.438 48.4653 29.228 48.596 28.976C48.736 28.7147 48.8433 28.4253 48.918 28.108H45.768V26.498ZM55.2976 24.916C55.8296 24.916 56.315 25.0093 56.7536 25.196C57.2016 25.3733 57.5843 25.6253 57.9016 25.952C58.2283 26.2693 58.4803 26.652 58.6576 27.1C58.8443 27.548 58.9376 28.038 58.9376 28.57C58.9376 29.102 58.8443 29.592 58.6576 30.04C58.4803 30.488 58.2283 30.8753 57.9016 31.202C57.5843 31.5193 57.2016 31.7713 56.7536 31.958C56.315 32.1353 55.8296 32.224 55.2976 32.224C54.7656 32.224 54.2756 32.1353 53.8276 31.958C53.389 31.7713 53.0063 31.5193 52.6796 31.202C52.3623 30.8753 52.1103 30.488 51.9236 30.04C51.7463 29.592 51.6576 29.102 51.6576 28.57C51.6576 28.038 51.7463 27.548 51.9236 27.1C52.1103 26.652 52.3623 26.2693 52.6796 25.952C53.0063 25.6253 53.389 25.3733 53.8276 25.196C54.2756 25.0093 54.7656 24.916 55.2976 24.916ZM55.2976 30.53C55.531 30.53 55.755 30.488 55.9696 30.404C56.1936 30.3107 56.3896 30.18 56.5576 30.012C56.7256 29.844 56.8563 29.6387 56.9496 29.396C57.0523 29.1533 57.1036 28.878 57.1036 28.57C57.1036 28.262 57.0523 27.9867 56.9496 27.744C56.8563 27.5013 56.7256 27.296 56.5576 27.128C56.3896 26.96 56.1936 26.834 55.9696 26.75C55.755 26.6567 55.531 26.61 55.2976 26.61C55.055 26.61 54.8263 26.6567 54.6116 26.75C54.397 26.834 54.2056 26.96 54.0376 27.128C53.8696 27.296 53.7343 27.5013 53.6316 27.744C53.5383 27.9867 53.4916 28.262 53.4916 28.57C53.4916 28.878 53.5383 29.1533 53.6316 29.396C53.7343 29.6387 53.8696 29.844 54.0376 30.012C54.2056 30.18 54.397 30.3107 54.6116 30.404C54.8263 30.488 55.055 30.53 55.2976 30.53ZM63.364 24.916C63.896 24.916 64.3814 25.0093 64.82 25.196C65.268 25.3733 65.6507 25.6253 65.968 25.952C66.2947 26.2693 66.5467 26.652 66.724 27.1C66.9107 27.548 67.004 28.038 67.004 28.57C67.004 29.102 66.9107 29.592 66.724 30.04C66.5467 30.488 66.2947 30.8753 65.968 31.202C65.6507 31.5193 65.268 31.7713 64.82 31.958C64.3814 32.1353 63.896 32.224 63.364 32.224C62.832 32.224 62.342 32.1353 61.894 31.958C61.4554 31.7713 61.0727 31.5193 60.746 31.202C60.4287 30.8753 60.1767 30.488 59.99 30.04C59.8127 29.592 59.724 29.102 59.724 28.57C59.724 28.038 59.8127 27.548 59.99 27.1C60.1767 26.652 60.4287 26.2693 60.746 25.952C61.0727 25.6253 61.4554 25.3733 61.894 25.196C62.342 25.0093 62.832 24.916 63.364 24.916ZM63.364 30.53C63.5974 30.53 63.8214 30.488 64.036 30.404C64.26 30.3107 64.456 30.18 64.624 30.012C64.792 29.844 64.9227 29.6387 65.016 29.396C65.1187 29.1533 65.17 28.878 65.17 28.57C65.17 28.262 65.1187 27.9867 65.016 27.744C64.9227 27.5013 64.792 27.296 64.624 27.128C64.456 26.96 64.26 26.834 64.036 26.75C63.8214 26.6567 63.5974 26.61 63.364 26.61C63.1214 26.61 62.8927 26.6567 62.678 26.75C62.4634 26.834 62.272 26.96 62.104 27.128C61.936 27.296 61.8007 27.5013 61.698 27.744C61.6047 27.9867 61.558 28.262 61.558 28.57C61.558 28.878 61.6047 29.1533 61.698 29.396C61.8007 29.6387 61.936 29.844 62.104 30.012C62.272 30.18 62.4634 30.3107 62.678 30.404C62.8927 30.488 63.1214 30.53 63.364 30.53ZM71.3464 35.248C70.8611 35.248 70.4271 35.1827 70.0444 35.052C69.6711 34.9307 69.3444 34.7673 69.0644 34.562C68.7844 34.366 68.5511 34.1467 68.3644 33.904C68.1778 33.6613 68.0424 33.4187 67.9584 33.176L69.7084 32.476C69.8391 32.84 70.0538 33.12 70.3524 33.316C70.6511 33.5213 70.9824 33.624 71.3464 33.624C71.9251 33.624 72.3824 33.442 72.7184 33.078C73.0544 32.7233 73.2224 32.224 73.2224 31.58V31.104H73.1104C72.8958 31.4027 72.6111 31.6407 72.2564 31.818C71.9111 31.986 71.5004 32.07 71.0244 32.07C70.6138 32.07 70.2124 31.986 69.8204 31.818C69.4378 31.65 69.0971 31.412 68.7984 31.104C68.4998 30.7867 68.2571 30.4087 68.0704 29.97C67.8838 29.5313 67.7904 29.0413 67.7904 28.5C67.7904 27.9587 67.8838 27.4687 68.0704 27.03C68.2571 26.582 68.4998 26.204 68.7984 25.896C69.0971 25.5787 69.4378 25.336 69.8204 25.168C70.2124 25 70.6138 24.916 71.0244 24.916C71.5004 24.916 71.9111 25.0047 72.2564 25.182C72.6111 25.35 72.8958 25.5833 73.1104 25.882H73.2224V25.14H74.9724V31.51C74.9724 32.0887 74.8838 32.6067 74.7064 33.064C74.5291 33.5307 74.2818 33.9227 73.9644 34.24C73.6471 34.5667 73.2644 34.814 72.8164 34.982C72.3778 35.1593 71.8878 35.248 71.3464 35.248ZM71.4164 30.418C71.6404 30.418 71.8598 30.376 72.0744 30.292C72.2984 30.208 72.4944 30.0867 72.6624 29.928C72.8304 29.76 72.9658 29.5593 73.0684 29.326C73.1711 29.0833 73.2224 28.808 73.2224 28.5C73.2224 28.192 73.1711 27.9167 73.0684 27.674C72.9658 27.4313 72.8304 27.2307 72.6624 27.072C72.4944 26.904 72.2984 26.778 72.0744 26.694C71.8598 26.61 71.6404 26.568 71.4164 26.568C71.1924 26.568 70.9731 26.61 70.7584 26.694C70.5438 26.778 70.3524 26.904 70.1844 27.072C70.0164 27.24 69.8811 27.4453 69.7784 27.688C69.6758 27.9213 69.6244 28.192 69.6244 28.5C69.6244 28.808 69.6758 29.0833 69.7784 29.326C69.8811 29.5593 70.0164 29.76 70.1844 29.928C70.3524 30.0867 70.5438 30.208 70.7584 30.292C70.9731 30.376 71.1924 30.418 71.4164 30.418ZM76.536 32V21.976H78.37V32H76.536ZM86.3679 30.348C86.0506 30.908 85.6212 31.3607 85.0799 31.706C84.5479 32.0513 83.8946 32.224 83.1199 32.224C82.5972 32.224 82.1119 32.1353 81.6639 31.958C81.2252 31.7713 80.8426 31.5147 80.5159 31.188C80.1892 30.8613 79.9326 30.4787 79.7459 30.04C79.5686 29.592 79.4799 29.102 79.4799 28.57C79.4799 28.0753 79.5686 27.6087 79.7459 27.17C79.9232 26.722 80.1706 26.3347 80.4879 26.008C80.8052 25.672 81.1786 25.406 81.6079 25.21C82.0466 25.014 82.5272 24.916 83.0499 24.916C83.6006 24.916 84.0906 25.0093 84.5199 25.196C84.9492 25.3733 85.3086 25.6253 85.5979 25.952C85.8872 26.2693 86.1066 26.6473 86.2559 27.086C86.4052 27.5247 86.4799 28.0007 86.4799 28.514C86.4799 28.5793 86.4799 28.6353 86.4799 28.682C86.4706 28.738 86.4659 28.7893 86.4659 28.836C86.4566 28.8827 86.4519 28.934 86.4519 28.99H81.2859C81.3232 29.27 81.3979 29.5127 81.5099 29.718C81.6312 29.914 81.7759 30.082 81.9439 30.222C82.1212 30.3527 82.3126 30.4507 82.5179 30.516C82.7232 30.572 82.9332 30.6 83.1479 30.6C83.5679 30.6 83.9132 30.5067 84.1839 30.32C84.4639 30.124 84.6832 29.8813 84.8419 29.592L86.3679 30.348ZM84.7019 27.688C84.6926 27.5667 84.6506 27.4313 84.5759 27.282C84.5106 27.1327 84.4079 26.9927 84.2679 26.862C84.1372 26.7313 83.9692 26.624 83.7639 26.54C83.5679 26.456 83.3299 26.414 83.0499 26.414C82.6579 26.414 82.3126 26.526 82.0139 26.75C81.7152 26.974 81.5052 27.2867 81.3839 27.688H84.7019ZM90.9514 32V21.976H94.4794C94.9554 21.976 95.3987 22.0553 95.8094 22.214C96.2294 22.3633 96.5934 22.578 96.9014 22.858C97.2094 23.138 97.452 23.474 97.6294 23.866C97.8067 24.2487 97.8954 24.6733 97.8954 25.14C97.8954 25.616 97.8067 26.05 97.6294 26.442C97.452 26.8247 97.2094 27.156 96.9014 27.436C96.5934 27.716 96.2294 27.9353 95.8094 28.094C95.3987 28.2433 94.9554 28.318 94.4794 28.318H92.8414V32H90.9514ZM94.5074 26.526C95.002 26.526 95.3754 26.386 95.6274 26.106C95.8794 25.826 96.0054 25.504 96.0054 25.14C96.0054 24.9627 95.9727 24.79 95.9074 24.622C95.8514 24.454 95.758 24.3093 95.6274 24.188C95.506 24.0573 95.352 23.9547 95.1654 23.88C94.9787 23.8053 94.7594 23.768 94.5074 23.768H92.8414V26.526H94.5074ZM99.0809 32V21.976H100.915V32H99.0809ZM106.645 31.272H106.533C106.318 31.5333 106.057 31.7573 105.749 31.944C105.45 32.1307 105.063 32.224 104.587 32.224C104.232 32.224 103.896 32.1633 103.579 32.042C103.271 31.93 103 31.7713 102.767 31.566C102.533 31.3607 102.351 31.1133 102.221 30.824C102.09 30.5347 102.025 30.2173 102.025 29.872C102.025 29.5173 102.095 29.2 102.235 28.92C102.375 28.6307 102.571 28.3833 102.823 28.178C103.075 27.9727 103.369 27.8187 103.705 27.716C104.05 27.604 104.423 27.548 104.825 27.548C105.273 27.548 105.641 27.5853 105.931 27.66C106.22 27.7253 106.458 27.7953 106.645 27.87V27.66C106.645 27.296 106.5 26.9973 106.211 26.764C105.921 26.5213 105.562 26.4 105.133 26.4C104.498 26.4 103.961 26.666 103.523 27.198L102.193 26.288C102.921 25.3733 103.915 24.916 105.175 24.916C106.239 24.916 107.051 25.168 107.611 25.672C108.171 26.1667 108.451 26.904 108.451 27.884V32H106.645V31.272ZM106.645 29.214C106.43 29.1113 106.206 29.032 105.973 28.976C105.749 28.9107 105.501 28.878 105.231 28.878C104.792 28.878 104.451 28.976 104.209 29.172C103.975 29.3587 103.859 29.592 103.859 29.872C103.859 30.152 103.971 30.376 104.195 30.544C104.428 30.712 104.694 30.796 104.993 30.796C105.235 30.796 105.459 30.754 105.665 30.67C105.87 30.5767 106.043 30.46 106.183 30.32C106.332 30.1707 106.444 30.0027 106.519 29.816C106.603 29.62 106.645 29.4193 106.645 29.214ZM111.928 31.664L109.044 25.14H111.13L112.866 29.298H112.964L114.63 25.14H116.674L112.376 35.024H110.402L111.928 31.664Z" fill="white"/>
<defs>
<linearGradient id="paint0_linear_4077_11588" x1="19.7577" y1="17.1552" x2="13.3033" y2="23.6627" gradientUnits="userSpaceOnUse">
<stop stop-color="#00C3FF"/>
<stop offset="1" stop-color="#1BE2FA"/>
</linearGradient>
<linearGradient id="paint1_linear_4077_11588" x1="23.2192" y1="20.8634" x2="31.8039" y2="20.8634" gradientUnits="userSpaceOnUse">
<stop stop-color="#FFCE00"/>
<stop offset="1" stop-color="#FFEA00"/>
</linearGradient>
<linearGradient id="paint2_linear_4077_11588" x1="13.5269" y1="31.5752" x2="24.9462" y2="22.4201" gradientUnits="userSpaceOnUse">
<stop stop-color="#DE2453"/>
<stop offset="1" stop-color="#FE3944"/>
</linearGradient>
<linearGradient id="paint3_linear_4077_11588" x1="14.0807" y1="10.426" x2="24.9481" y2="19.3024" gradientUnits="userSpaceOnUse">
<stop stop-color="#11D574"/>
<stop offset="1" stop-color="#01F176"/>
</linearGradient>
</defs>
</svg>
