<svg width="41" height="41" viewBox="0 0 41 41" fill="none" xmlns="http://www.w3.org/2000/svg">
<mask id="mask0_3500_9168" style="mask-type:alpha" maskUnits="userSpaceOnUse" x="9" y="4" width="31" height="33">
<path d="M38.0605 18.5005C39.6465 19.3733 39.6465 21.6267 38.0605 22.4995L12.6953 36.4573C11.1506 37.3073 9.25 36.2043 9.25 34.4578L9.25 6.54217C9.25 4.79572 11.1506 3.69268 12.6953 4.54269L38.0605 18.5005Z" fill="#C4C4C4"/>
</mask>
<g mask="url(#mask0_3500_9168)">
<path d="M10.0434 36.183L25.8654 20.2721L10.304 4.62329C9.68317 5.02127 9.25 5.70838 9.25 6.54213V34.4578C9.25 35.1691 9.56529 35.7737 10.0434 36.183Z" fill="url(#paint0_linear_3500_9168)"/>
<path d="M38.0603 18.5006C39.6463 19.3733 39.6463 21.6268 38.0603 22.4995L31.6612 26.0208L25.8652 20.2721L31.3656 14.8167L38.0603 18.5006Z" fill="url(#paint1_linear_3500_9168)"/>
<path d="M31.6614 26.0207L25.8655 20.272L10.0435 36.1829C10.7392 36.7787 11.7799 36.961 12.6954 36.4572L31.6614 26.0207Z" fill="url(#paint2_linear_3500_9168)"/>
<path d="M10.3041 4.62331L25.8654 20.2721L31.3658 14.8166L12.6954 4.54269C11.8881 4.09848 10.9837 4.18766 10.3041 4.62331Z" fill="url(#paint3_linear_3500_9168)"/>
</g>
<defs>
<linearGradient id="paint0_linear_3500_9168" x1="20.0962" y1="14.0922" x2="9.33882" y2="24.938" gradientUnits="userSpaceOnUse">
<stop stop-color="#00C3FF"/>
<stop offset="1" stop-color="#1BE2FA"/>
</linearGradient>
<linearGradient id="paint1_linear_3500_9168" x1="25.8652" y1="20.2722" x2="40.1729" y2="20.2722" gradientUnits="userSpaceOnUse">
<stop stop-color="#FFCE00"/>
<stop offset="1" stop-color="#FFEA00"/>
</linearGradient>
<linearGradient id="paint2_linear_3500_9168" x1="9.71165" y1="38.1251" x2="28.7438" y2="22.8667" gradientUnits="userSpaceOnUse">
<stop stop-color="#DE2453"/>
<stop offset="1" stop-color="#FE3944"/>
</linearGradient>
<linearGradient id="paint3_linear_3500_9168" x1="10.6347" y1="2.87671" x2="28.7469" y2="17.6706" gradientUnits="userSpaceOnUse">
<stop stop-color="#11D574"/>
<stop offset="1" stop-color="#01F176"/>
</linearGradient>
</defs>
</svg>
