<svg width="33" height="32" viewBox="0 0 33 32" fill="none" xmlns="http://www.w3.org/2000/svg">
<path d="M30.5014 16.3109C30.5014 15.1598 30.4061 14.3198 30.1998 13.4487H16.7871V18.6442H24.6601C24.5014 19.9354 23.6442 21.8798 21.7394 23.1864L21.7127 23.3604L25.9536 26.58L26.2474 26.6087C28.9458 24.1665 30.5014 20.5731 30.5014 16.3109Z" fill="#4285F4"/>
<path d="M16.7863 30C20.6434 30 23.8814 28.7555 26.2466 26.6089L21.7386 23.1865C20.5323 24.011 18.9132 24.5866 16.7863 24.5866C13.0086 24.5866 9.80225 22.1444 8.65929 18.7688L8.49176 18.7827L4.08208 22.1272L4.02441 22.2843C6.37359 26.8577 11.199 30 16.7863 30Z" fill="#0068E1"/>
<path d="M8.66013 18.769C8.35855 17.8979 8.18401 16.9645 8.18401 16.0001C8.18401 15.0356 8.35855 14.1023 8.64426 13.2312L8.63627 13.0456L4.17132 9.64746L4.02524 9.71556C3.05703 11.6134 2.50146 13.7445 2.50146 16.0001C2.50146 18.2556 3.05703 20.3867 4.02524 22.2845L8.66013 18.769Z" fill="#FBBC05"/>
<path d="M16.7864 7.4133C19.4689 7.4133 21.2784 8.54885 22.3102 9.4978L26.3419 5.64C23.8658 3.38445 20.6435 2 16.7864 2C11.199 2 6.3736 5.1422 4.02441 9.71549L8.64345 13.2311C9.80229 9.85555 13.0086 7.4133 16.7864 7.4133Z" fill="#EB4335"/>
</svg>
