<svg width="18" height="22" viewBox="0 0 18 22" fill="none" xmlns="http://www.w3.org/2000/svg">
<path d="M15.75 8.75C15.703 6.8435 15.0427 5.25375 13.7692 3.98075C12.4957 2.70775 10.906 2.0475 9 2C7.0935 2.047 5.50375 2.70725 4.23075 3.98075C2.95775 5.25425 2.2975 6.844 2.25 8.75C2.25 10.1405 2.8085 11.7302 3.9255 13.5192C5.0425 15.3082 6.734 17.2887 9 19.4608C11.2655 17.2887 12.957 15.3082 14.0745 13.5192C15.192 11.7302 15.7505 10.1405 15.75 8.75ZM9 21.5C3.5 16.5 0.75 12.25 0.75 8.75C0.8125 6.406 1.61725 4.46075 3.16425 2.91425C4.71125 1.36775 6.6565 0.563 9 0.5C11.344 0.5625 13.2893 1.36725 14.8358 2.91425C16.3822 4.46125 17.187 6.4065 17.25 8.75C17.25 12.25 14.5 16.5 9 21.5ZM9 11C9.6405 10.9845 10.1718 10.7657 10.5938 10.3438C11.0157 9.92175 11.2267 9.3905 11.2267 8.75C11.2267 8.1095 11.0157 7.57825 10.5938 7.15625C10.1718 6.73425 9.6405 6.52325 9 6.52325C8.3595 6.52325 7.82825 6.73425 7.40625 7.15625C6.98425 7.57825 6.77325 8.1095 6.77325 8.75C6.77325 9.3905 6.98425 9.92175 7.40625 10.3438C7.82825 10.7657 8.3595 10.9845 9 11ZM9 12.5C7.9375 12.4685 7.05475 12.1012 6.35175 11.3983C5.64875 10.6953 5.2815 9.8125 5.25 8.75C5.2815 7.6875 5.64875 6.80475 6.35175 6.10175C7.05475 5.39875 7.9375 5.0315 9 5C10.0625 5.0315 10.9453 5.39875 11.6483 6.10175C12.3512 6.80475 12.7185 7.6875 12.75 8.75C12.7185 9.8125 12.3512 10.6953 11.6483 11.3983C10.9453 12.1012 10.0625 12.4685 9 12.5Z" fill="#757575"/>
</svg>
