<svg width="48" height="48" viewBox="0 0 48 48" fill="none" xmlns="http://www.w3.org/2000/svg">
<rect width="48" height="48" rx="24" fill="#E0E0E0"/>
<path d="M37.7013 20.9075C37.0551 17.8668 35.3413 15.0993 32.8751 13.115C30.353 11.097 27.2188 9.99838 23.9888 9.99997C20.1813 9.99997 16.6251 11.4668 13.9663 14.1306C11.3969 16.7081 9.98882 20.1112 10.0001 23.7106C10.0002 26.3495 10.7749 28.9304 12.2282 31.1331L12.5001 31.5112L11.0001 38L18.1751 36.215C18.1751 36.215 18.3188 36.2631 18.4251 36.3037C18.5313 36.3443 19.4457 36.695 20.4157 36.9662C21.2219 37.1912 22.8994 37.5287 24.2138 37.5287C27.9419 37.5287 31.4232 36.085 34.0157 33.4625C36.5851 30.8606 38.0001 27.4012 38.0001 23.7181C38.0003 22.7733 37.9001 21.8311 37.7013 20.9075ZM18.0001 26C17.6045 26 17.2178 25.8827 16.8889 25.6629C16.56 25.4431 16.3037 25.1308 16.1523 24.7653C16.0009 24.3999 15.9613 23.9978 16.0385 23.6098C16.1157 23.2218 16.3061 22.8655 16.5859 22.5858C16.8656 22.3061 17.2219 22.1156 17.6099 22.0384C17.9978 21.9612 18.4 22.0008 18.7654 22.1522C19.1309 22.3036 19.4432 22.5599 19.663 22.8888C19.8828 23.2177 20.0001 23.6044 20.0001 24C20.0001 24.5304 19.7894 25.0391 19.4143 25.4142C19.0392 25.7893 18.5305 26 18.0001 26ZM24.0001 26C23.6045 26 23.2178 25.8827 22.8889 25.6629C22.56 25.4431 22.3037 25.1308 22.1523 24.7653C22.0009 24.3999 21.9613 23.9978 22.0385 23.6098C22.1157 23.2218 22.3061 22.8655 22.5859 22.5858C22.8656 22.3061 23.2219 22.1156 23.6099 22.0384C23.9978 21.9612 24.4 22.0008 24.7654 22.1522C25.1309 22.3036 25.4432 22.5599 25.663 22.8888C25.8828 23.2177 26.0001 23.6044 26.0001 24C26.0001 24.5304 25.7894 25.0391 25.4143 25.4142C25.0392 25.7893 24.5305 26 24.0001 26ZM30.0001 26C29.6045 26 29.2178 25.8827 28.8889 25.6629C28.56 25.4431 28.3037 25.1308 28.1523 24.7653C28.0009 24.3999 27.9613 23.9978 28.0385 23.6098C28.1157 23.2218 28.3061 22.8655 28.5859 22.5858C28.8656 22.3061 29.2219 22.1156 29.6099 22.0384C29.9978 21.9612 30.4 22.0008 30.7654 22.1522C31.1309 22.3036 31.4432 22.5599 31.663 22.8888C31.8828 23.2177 32.0001 23.6044 32.0001 24C32.0001 24.5304 31.7894 25.0391 31.4143 25.4142C31.0392 25.7893 30.5305 26 30.0001 26Z" fill="#555555"/>
<circle cx="32" cy="11" r="7" fill="#FF5247"/>
</svg>
