<svg width="1276" height="681" viewBox="0 0 1276 681" fill="none" xmlns="http://www.w3.org/2000/svg">
<path d="M1100.7 677.604C1100.7 677.604 1192.49 699.375 1237.67 600.699C1296.28 472.675 1214.01 351.066 1072.09 342.303C867.403 329.673 980.844 2.65353 657.847 91.3858C567.027 116.334 369.484 -12.4575 253.196 205.767C233.423 242.874 174.313 241.053 95.5577 304.357C-43.366 416.026 6.64471 678.786 123.699 679.983C240.749 681.175 1100.7 677.604 1100.7 677.604Z" fill="#E6EDFD"/>
<path d="M489.023 232.435C489.033 233.803 489.047 235.206 489.064 236.621C489.064 236.621 489.563 253.372 491.143 255.977C492.724 258.582 732.228 257.104 732.967 256.831C736.589 255.489 738.335 234.91 738.335 234.91C738.335 234.91 739.109 176.656 739.109 168.271C739.109 156.545 735.411 151 725.089 151C719.171 151 562.494 151 562.494 151C552.777 151 546.893 151.867 543.498 155.075C532.542 165.326 498.276 205.992 490.117 215.308C489.43 216.094 489.047 217.095 489.038 218.136C489.036 218.443 489.032 218.788 489.028 219.17C489.006 222.047 488.985 226.958 489.023 232.435Z" fill="#B8C6F2"/>
<path d="M489.012 234.604C489.012 234.604 488.803 254 490.116 255.841C491.603 257.409 493.877 258.391 496.349 258.531C498.944 258.885 519.312 258.72 519.312 258.72C519.312 258.72 729.475 257.162 732.965 256.832C736.455 256.502 737.826 254.26 737.946 251.051C737.946 250.367 738.274 239.677 738.334 233.589L489.012 234.604Z" fill="#5E8ADB"/>
<path d="M550.384 263.847C559.434 254.862 559.434 240.294 550.384 231.309C541.334 222.324 526.662 222.324 517.612 231.309C508.562 240.294 508.562 254.862 517.612 263.847C526.662 272.832 541.334 272.832 550.384 263.847Z" fill="#3A3D96"/>
<path d="M533.987 264.362C543.316 264.362 550.878 256.848 550.878 247.579C550.878 238.31 543.316 230.796 533.987 230.796C524.659 230.796 517.097 238.31 517.097 247.579C517.097 256.848 524.659 264.362 533.987 264.362Z" fill="#B8C6F2"/>
<path d="M533.987 256.628C539.017 256.628 543.094 252.577 543.094 247.579C543.094 242.582 539.017 238.531 533.987 238.531C528.958 238.531 524.881 242.582 524.881 247.579C524.881 252.577 528.958 256.628 533.987 256.628Z" fill="#98B0F2"/>
<path d="M721.805 263.848C730.855 254.863 730.855 240.295 721.805 231.31C712.755 222.325 698.082 222.325 689.033 231.31C679.983 240.295 679.983 254.863 689.033 263.848C698.082 272.833 712.755 272.833 721.805 263.848Z" fill="#3A3D96"/>
<path d="M705.408 264.361C714.737 264.361 722.299 256.847 722.299 247.578C722.299 238.309 714.737 230.795 705.408 230.795C696.08 230.795 688.518 238.309 688.518 247.578C688.518 256.847 696.08 264.361 705.408 264.361Z" fill="#B8C6F2"/>
<path d="M705.409 256.627C710.438 256.627 714.516 252.576 714.516 247.579C714.516 242.581 710.438 238.53 705.409 238.53C700.38 238.53 696.303 242.581 696.303 247.579C696.303 252.576 700.38 256.627 705.409 256.627Z" fill="#98B0F2"/>
<path d="M529.105 199.344H575.558C576.993 199.344 578.157 198.187 578.157 196.761V166.089C578.157 163.744 576.243 161.843 573.884 161.843H557.863C553.569 161.843 549.529 163.87 546.98 167.303L526.703 194.618C525.251 196.576 526.658 199.344 529.105 199.344Z" fill="#5E8ADB"/>
<path d="M530.693 201.455C535.369 201.455 539.16 198.48 539.16 194.812C539.16 191.143 535.369 188.169 530.693 188.169C526.016 188.169 522.225 191.143 522.225 194.812C522.225 198.48 526.016 201.455 530.693 201.455Z" fill="#98B0F2"/>
<path d="M489.021 232.436H491.453C495.139 232.436 498.127 229.466 498.127 225.804C498.127 223.972 497.38 222.314 496.173 221.115C494.965 219.915 493.296 219.173 491.453 219.173H489.025C489.004 222.047 488.983 226.959 489.021 232.436Z" fill="#FAAF16"/>
<path d="M667.137 238.711H598.578C596.525 238.711 594.859 237.057 594.859 235.016V161.111C594.859 159.071 596.524 157.417 598.577 157.417H667.137C669.19 157.417 670.856 159.071 670.856 161.111V235.016C670.856 237.056 669.191 238.711 667.137 238.711Z" fill="#272A66"/>
<path d="M612.905 238.531H645.747V172.952H612.905V238.531Z" fill="#313480"/>
<path d="M625.891 238.531H658.538V188.169H625.891V238.531Z" fill="#3A3D96"/>
<path d="M598.353 238.531H632.594V202.421H598.353V238.531Z" fill="#4043A6"/>
<path d="M725.081 238.532H656.522C654.468 238.532 652.803 236.878 652.803 234.836V160.932C652.803 158.891 654.467 157.237 656.521 157.237H725.081C727.134 157.237 728.799 158.891 728.799 160.932V234.837C728.799 236.878 727.134 238.532 725.081 238.532Z" fill="#98B0F2"/>
<path d="M652.8 219.173H728.796V211.678H652.8V219.173Z" fill="#B8C6F2"/>
<path d="M666.163 199.345H717.137C720.145 199.345 722.584 196.921 722.584 193.932V167.257C722.584 164.267 720.145 161.844 717.137 161.844H666.163C663.154 161.844 660.715 164.267 660.715 167.257V193.931C660.715 196.92 663.154 199.345 666.163 199.345Z" fill="#5E8ADB"/>
<path d="M1208.2 413.389H1134.19C1128.35 413.389 1123.62 408.685 1123.62 402.885V371.503C1123.62 365.701 1128.35 361 1134.19 361H1208.2C1214.04 361 1218.77 365.703 1218.77 371.503V402.884C1218.77 408.685 1214.04 413.389 1208.2 413.389Z" fill="#6AA6EC"/>
<path d="M1205.3 411.042V430.545C1205.3 432.11 1203.18 432.615 1202.46 431.22L1192.15 411.042H1205.3Z" fill="#B8C6F2"/>
<path d="M1206.36 377.373H1136.91C1134.24 377.373 1132.08 375.221 1132.08 372.568C1132.08 369.914 1134.24 367.764 1136.91 367.764H1206.36C1209.03 367.764 1211.2 369.916 1211.2 372.568C1211.2 375.221 1209.03 377.373 1206.36 377.373Z" fill="white"/>
<path d="M1206.36 392.615H1136.91C1134.24 392.615 1132.08 390.463 1132.08 387.81C1132.08 385.156 1134.24 383.006 1136.91 383.006H1206.36C1209.03 383.006 1211.2 385.158 1211.2 387.81C1211.2 390.463 1209.03 392.615 1206.36 392.615Z" fill="white"/>
<path d="M1207.07 407.856H1162.51C1160.23 407.856 1158.38 406.021 1158.38 403.756V402.345C1158.38 400.08 1160.23 398.245 1162.51 398.245H1207.07C1209.35 398.245 1211.2 400.08 1211.2 402.345V403.756C1211.2 406.021 1209.35 407.856 1207.07 407.856Z" fill="white"/>
<path d="M1232.54 458.946H1232.53L1225.85 458.971L1224.33 474.651L1232.14 478.744L1240.45 474.698L1239.11 458.971L1232.54 458.946Z" fill="#F37A50"/>
<path d="M1245.82 447.763C1244.3 459.134 1235.78 467.392 1226.79 466.205C1217.8 465.019 1211.75 454.84 1213.27 443.469C1214.79 432.097 1223.31 423.84 1232.29 425.027C1241.28 426.211 1247.34 436.392 1245.82 447.763Z" fill="#F37A50"/>
<path d="M1223.88 448.01C1222.23 450.151 1220.14 452.754 1220.14 452.754C1220.14 452.754 1220.75 455.236 1223.93 455.576C1222.64 454.891 1221.39 453.862 1222.12 452.126C1222.84 450.392 1223.88 448.01 1223.88 448.01Z" fill="#DE623C"/>
<path d="M1249.52 438.621C1250.5 427.786 1240.47 424.228 1240.47 424.228C1240.47 424.228 1242.72 423.443 1242.17 420.168C1240.59 421.135 1238.65 421.583 1236.8 421.401C1224.33 420.174 1216.49 422.211 1217.73 427.066C1218.17 428.793 1210.08 429.68 1213.68 441.143C1214.46 439.789 1215.15 434.709 1217.57 433.59C1220.01 432.467 1218.56 436.432 1224.07 435.815C1229.62 435.193 1233.24 432.902 1237.29 435.084C1240.53 437.06 1244.57 450.251 1244.39 451.153C1244.81 449.085 1249.1 443.383 1249.52 438.621Z" fill="#201D40"/>
<path d="M1213.18 449.674C1213.18 449.674 1214.24 455.853 1215.6 457.504C1215.89 454.844 1221.77 456.518 1224.32 456.74C1228.94 457.143 1233.63 453.067 1235.19 459.098C1241.07 459.437 1243.22 446.562 1243.22 446.562C1246.84 459.428 1240.35 468.81 1226.09 470.116C1216.68 470.981 1211.48 459.06 1213.18 449.674Z" fill="#201D40"/>
<path d="M1230.55 447.337C1231.42 447.395 1232.18 446.737 1232.24 445.868C1232.3 444.998 1231.64 444.244 1230.76 444.186C1229.89 444.128 1229.13 444.786 1229.07 445.656C1229.01 446.526 1229.67 447.277 1230.55 447.337Z" fill="black"/>
<path d="M1217.43 446.855C1218.3 446.913 1219.06 446.255 1219.12 445.385C1219.18 444.515 1218.52 443.762 1217.64 443.704C1216.77 443.646 1216.01 444.304 1215.95 445.173C1215.89 446.045 1216.55 446.797 1217.43 446.855Z" fill="black"/>
<path d="M1214.79 443.559C1215.06 443.577 1215.33 443.457 1215.49 443.221C1215.94 442.571 1216.46 442.198 1217.03 442.112C1218.02 441.963 1218.93 442.67 1218.94 442.678C1219.29 442.944 1219.78 442.888 1220.05 442.552C1220.32 442.215 1220.27 441.725 1219.93 441.455C1219.87 441.409 1218.48 440.318 1216.81 440.559C1215.79 440.709 1214.9 441.305 1214.19 442.333C1213.95 442.689 1214.04 443.176 1214.4 443.422C1214.52 443.506 1214.65 443.549 1214.79 443.559Z" fill="#201D40"/>
<path d="M1234.13 444.819C1234.3 444.83 1234.48 444.785 1234.64 444.68C1234.99 444.432 1235.08 443.945 1234.83 443.589C1233.89 442.237 1232.79 441.463 1231.57 441.289C1230 441.062 1228.85 441.956 1228.8 441.994C1228.46 442.264 1228.41 442.757 1228.68 443.094C1228.95 443.43 1229.44 443.488 1229.78 443.221C1229.81 443.203 1230.49 442.704 1231.36 442.841C1232.12 442.959 1232.86 443.512 1233.54 444.483C1233.68 444.687 1233.9 444.804 1234.13 444.819Z" fill="#201D40"/>
<path d="M1243.36 446.62C1241.4 448.48 1241.04 451.282 1242.58 452.883C1244.11 454.482 1246.94 454.272 1248.91 452.412C1250.88 450.553 1251.23 447.748 1249.7 446.149C1248.17 444.55 1245.33 444.76 1243.36 446.62Z" fill="#F37A50"/>
<path d="M1245.14 452.12C1245.06 452.088 1244.98 452.037 1244.92 451.968C1243.99 450.967 1243.79 449.758 1244.38 448.734C1244.99 447.687 1246.26 447.111 1247.39 447.362C1247.71 447.433 1247.91 447.748 1247.84 448.067C1247.77 448.386 1247.45 448.584 1247.13 448.513C1246.51 448.375 1245.75 448.731 1245.41 449.323C1245.08 449.893 1245.21 450.547 1245.79 451.168C1246.01 451.408 1245.99 451.781 1245.75 452.002C1245.58 452.159 1245.35 452.197 1245.14 452.12Z" fill="#DE623C"/>
<path d="M1229.46 458.513C1229.53 458.106 1229.43 457.72 1229.02 457.772C1227.98 457.905 1226.25 458.087 1224.6 458.1C1222.95 458.114 1221.22 457.958 1220.17 457.842C1219.76 457.797 1219.66 458.187 1219.75 458.59C1220.09 460.26 1222 462.121 1224.53 462.103C1227.06 462.082 1229.22 460.026 1229.46 458.513Z" fill="white"/>
<path d="M1220.34 664.31C1214.44 672.41 1199.93 667.438 1200.41 678.393H1231.64C1231.61 675.878 1231.18 669.905 1230.67 667.568L1220.34 664.31Z" fill="#1B80F5"/>
<path d="M1253.36 664.31C1247.45 672.41 1232.94 667.438 1233.42 678.393H1264.65C1264.63 675.878 1264.19 669.905 1263.68 667.568L1253.36 664.31Z" fill="#1B80F5"/>
<path d="M1210.13 540.444C1210.13 540.444 1206.55 592.357 1208 603.897C1209.46 615.439 1214.61 630.235 1214.03 668.408C1221.22 670.197 1231.64 668.408 1231.64 668.408C1231.64 668.408 1233.19 625.243 1225.58 605.964C1228.68 587.237 1238.6 544.343 1238.6 544.343L1210.13 540.444Z" fill="black"/>
<path d="M1223.74 541.861C1223.74 541.861 1230.98 600.142 1234.52 611.196C1238.06 622.251 1241.14 630.349 1247.55 667.955C1254.94 668.322 1265.62 668.095 1265.62 668.095C1265.62 668.095 1264.65 621.503 1253.14 610.654C1252.75 591.663 1255 542.238 1255 542.238L1223.74 541.861Z" fill="black"/>
<path d="M1257.09 475.721C1257.09 475.721 1244.53 471.351 1240.34 473.355C1227.32 479.582 1224.34 473.355 1224.34 473.355C1220.18 473.711 1207.62 475.721 1207.62 475.721C1207.62 489.654 1206.69 503.635 1206.94 514.179C1207.12 523.361 1205.36 548.349 1205.36 548.349C1205.36 548.349 1219.21 551.958 1232.31 552.051C1245.42 551.967 1258.75 548.495 1258.75 548.495C1258.75 548.495 1258.05 523.187 1257.47 513.78C1257.66 503.236 1257.09 489.617 1257.09 475.721Z" fill="#E62552"/>
<path d="M1185.29 496.427C1190.47 484.134 1205.86 476.315 1207.62 475.719L1211.19 491.501C1203.8 495.844 1198.43 500.544 1198.43 500.544C1199.34 504.938 1199.19 509.247 1201.75 514.806C1201.75 514.806 1199.53 511.757 1196.78 513.561C1194.12 515.315 1189.21 511.735 1189.21 511.735C1189.21 511.735 1181.33 505.817 1185.29 496.427Z" fill="#C4204A"/>
<path d="M1188.18 527.494C1188.09 527.522 1188 527.539 1187.91 527.549H1187.61C1187.07 527.492 1186.59 527.125 1186.42 526.576L1172.6 482.291C1172.57 482.203 1172.55 482.113 1172.54 482.023C1172.53 481.963 1172.54 481.906 1172.54 481.848C1172.54 481.813 1172.53 481.777 1172.54 481.743C1172.54 481.711 1172.55 481.683 1172.56 481.651C1172.64 481.147 1172.99 480.709 1173.52 480.545C1173.6 480.519 1173.69 480.499 1173.78 480.489C1173.88 480.478 1173.98 480.48 1174.08 480.489H1208.88L1222.83 527.547H1188.15L1188.18 527.494Z" fill="#80BC48"/>
<path d="M1208.56 480.545C1209.31 480.316 1210.09 480.727 1210.32 481.463L1224.06 525.638L1224.09 525.741C1224.32 526.474 1223.91 527.25 1223.17 527.482L1223.17 527.486C1222.43 527.715 1221.64 527.304 1221.41 526.567L1207.64 482.292C1207.41 481.555 1207.82 480.773 1208.56 480.545Z" fill="#17962E"/>
<path d="M1182.27 508.64C1182.14 508.553 1182 508.499 1181.85 508.46C1181.87 508.437 1181.89 508.418 1181.9 508.396C1182.77 507.099 1182.71 505.547 1181.77 504.93C1181.62 504.829 1181.45 504.763 1181.27 504.722C1181.51 503.76 1181.3 502.843 1180.63 502.403C1180.36 502.229 1180.05 502.15 1179.73 502.154C1180.04 501.209 1179.79 500.219 1179.04 499.726C1178.11 499.109 1176.75 499.507 1176.01 500.615C1175.27 501.722 1175.43 503.121 1176.37 503.738C1176.6 503.893 1176.87 503.985 1177.14 504.015C1176.52 505.222 1176.64 506.544 1177.49 507.102C1177.64 507.204 1177.81 507.271 1177.99 507.311C1177.75 508.272 1177.97 509.189 1178.63 509.629C1178.88 509.792 1179.16 509.871 1179.46 509.879C1179.15 510.705 1179.35 511.594 1180.01 512.027C1180.8 512.548 1181.95 512.213 1182.57 511.277C1183.2 510.342 1183.06 509.161 1182.27 508.64Z" fill="#F37A50"/>
<path d="M1225.05 505.84L1221.88 504.014C1221.88 504.014 1221 499.543 1215.91 499.437C1216.49 501.313 1217.33 504.014 1217.33 504.014C1217.33 504.014 1214.83 505.949 1208.88 502.638C1203.07 501.341 1205.55 505.551 1203.62 505.853C1200.78 506.299 1205.69 511.85 1211.5 512.699C1219.01 513.798 1219.9 512.27 1219.9 512.27L1224.15 513.745L1225.05 505.84Z" fill="#F37A50"/>
<path d="M1257.5 511.043C1246.89 510.306 1225.72 504.679 1225.72 504.679C1222.82 509.09 1223.62 514.95 1223.62 514.95C1240.09 529.294 1264.87 533.931 1272.48 530.479C1279.42 527.327 1274.49 485.329 1257.06 475.711L1257.5 511.043Z" fill="#C4204A"/>
<path d="M1201.47 487.268C1202.07 488.764 1203.62 489.555 1204.92 489.038C1206.22 488.521 1206.79 486.89 1206.19 485.394C1205.59 483.898 1204.05 483.107 1202.75 483.624C1201.44 484.142 1200.87 485.773 1201.47 487.268Z" fill="#17962E"/>
<path d="M1197.03 486.761C1197.39 487.654 1198.31 488.126 1199.09 487.817C1199.87 487.508 1200.21 486.535 1199.85 485.642C1199.49 484.75 1198.57 484.278 1197.79 484.587C1197.01 484.896 1196.67 485.869 1197.03 486.761Z" fill="#17962E"/>
<path d="M1069.27 678.393H1140.11V591.144H1069.27V678.393Z" fill="#DE8914"/>
<path d="M1125.51 678.393H1198.02V570.479H1125.51V678.393Z" fill="#FF9A16"/>
<path d="M1096.51 678.395H1170.55V604.825H1096.51V678.395Z" fill="#FAAF16"/>
<path d="M1106.12 630.87H1140.49V616.886H1106.12V630.87Z" fill="#FAC352"/>
<path d="M1145.36 641.933L1158.49 649.15L1165.75 636.109L1152.63 628.891L1145.36 641.933Z" fill="#FF9A16"/>
<path d="M1154.39 646.502C1154.39 651.229 1150.53 655.061 1145.77 655.061C1141.02 655.061 1137.16 651.227 1137.16 646.502C1137.16 641.774 1141.02 637.942 1145.77 637.942C1150.53 637.942 1154.39 641.774 1154.39 646.502Z" fill="#FAC352"/>
<path d="M1025.88 582.872C1030.47 573.055 1018.94 560.681 1024.44 551.34C1027.86 545.538 1036.83 543.424 1037.83 536.776C1038.13 534.795 1037.59 532.799 1037.31 530.817C1036.21 523.079 1039.23 514.881 1045.08 509.668C1050.93 504.468 1059.43 502.391 1067.04 504.301L1067.04 504.298C1067.05 504.301 1067.06 504.305 1067.07 504.309C1067.08 504.311 1067.08 504.313 1067.1 504.316L1067.09 504.32C1074.44 507.062 1080.6 513.702 1082.42 521.285C1084.24 528.886 1082.01 537.327 1076.66 543.062C1075.29 544.531 1073.71 545.868 1072.82 547.664C1069.82 553.691 1075.98 560.512 1075.46 567.214C1074.61 578.002 1058.04 581.635 1056.17 592.296C1055.68 595.107 1056.34 597.979 1056.4 600.834C1056.65 613.293 1043.02 623.987 1030.88 620.866L1030.26 620.673C1018.5 616.358 1013.45 599.854 1020.8 589.761C1022.49 587.446 1024.68 585.461 1025.88 582.872Z" fill="#17962E"/>
<path d="M1066.31 504.927L1018.65 650.594C1018.27 651.762 1018.91 653.018 1020.09 653.397C1021.26 653.777 1022.53 653.138 1022.91 651.968C1022.91 651.957 1022.92 651.934 1022.92 651.921L1067.39 505.258C1067.48 504.962 1067.31 504.649 1067.01 504.561C1066.72 504.475 1066.41 504.638 1066.31 504.927Z" fill="#068A1E"/>
<path d="M1062.25 572.646C1052.5 570.985 1044.61 578.457 1039.93 586.13C1038.8 587.852 1041.65 589.476 1042.57 587.62C1045.89 581.027 1051.01 574.082 1058.9 573.135C1059.31 572.891 1063.08 573.214 1062.25 572.646Z" fill="#068A1E"/>
<path d="M1076.73 526.711C1067.02 525.168 1059.25 532.665 1054.69 540.351C1053.82 541.702 1056.04 542.969 1056.77 541.528C1060.18 534.941 1065.43 528.018 1073.38 527.161C1073.78 526.925 1077.57 527.285 1076.73 526.711Z" fill="#068A1E"/>
<path d="M1036.01 550.286C1044.12 554.988 1044.94 565.214 1043.74 573.578C1043.53 575.003 1045.81 575.301 1045.96 573.857C1046.39 566.128 1045.59 556.999 1039.01 551.863C1038.66 551.614 1035.69 549.319 1036.01 550.286Z" fill="#068A1E"/>
<path d="M1002.36 582.817C998.562 575.068 1007.56 565.044 1003.04 557.687C1000.23 553.117 993.053 551.566 992.159 546.287C991.893 544.715 992.287 543.118 992.481 541.534C993.24 535.355 990.717 528.873 985.974 524.809C981.243 520.754 974.441 519.226 968.414 520.859L968.412 520.855C968.404 520.859 968.397 520.861 968.389 520.864C968.382 520.866 968.374 520.868 968.366 520.87L968.368 520.874C962.561 523.166 957.752 528.545 956.42 534.611C955.085 540.692 956.988 547.38 961.329 551.866C962.442 553.015 963.724 554.058 964.461 555.475C966.936 560.23 962.135 565.753 962.654 571.081C963.49 579.659 976.739 582.307 978.386 590.769C978.82 593.002 978.337 595.298 978.335 597.572C978.324 607.498 989.331 615.812 998.952 613.146L999.445 612.983C1008.75 609.372 1012.52 596.155 1006.51 588.227C1005.14 586.409 1003.36 584.861 1002.36 582.817Z" fill="#17962E"/>
<path d="M969.001 521.347L1009.14 636.639C1009.46 637.563 1008.96 638.572 1008.03 638.892C1007.1 639.213 1006.09 638.722 1005.77 637.798C1005.76 637.788 1005.76 637.771 1005.75 637.76L968.148 521.628C968.073 521.394 968.203 521.143 968.439 521.068C968.671 520.995 968.92 521.118 969.001 521.347Z" fill="#068A1E"/>
<path d="M973.249 575.213C978.873 574.167 984.316 577.063 987.878 581.258C988.853 582.959 992.54 585.33 990.891 587.287C986.903 587.874 987.012 575.68 973.249 575.213Z" fill="#068A1E"/>
<path d="M961.033 538.847C968.743 537.475 975.035 543.331 978.79 549.384C979.499 550.449 977.752 551.489 977.146 550.352C974.328 545.157 970.049 539.721 963.706 539.157C963.333 538.958 960.471 539.34 961.033 538.847Z" fill="#068A1E"/>
<path d="M993.809 557.018C987.424 560.882 986.919 569.038 988 575.68C988.186 576.81 986.381 577.082 986.234 575.934C985.779 569.786 986.277 562.505 991.445 558.317C991.76 558.1 993.988 556.268 993.809 557.018Z" fill="#068A1E"/>
<path d="M997.605 566.288C999.028 555.56 984.306 547.173 986.744 536.625C988.257 530.073 996.184 525.392 995.139 518.751C994.828 516.773 993.719 515.026 992.853 513.217C989.477 506.159 989.887 497.441 993.911 490.728C997.924 484.03 1005.41 479.524 1013.25 479.087V479.083C1013.25 479.083 1013.27 479.085 1013.28 479.085C1013.28 479.085 1013.3 479.083 1013.31 479.083V479.087C1021.14 479.524 1029.02 484.03 1033.03 490.728C1037.05 497.443 1037.47 506.159 1034.09 513.217C1033.23 515.026 1032.12 516.773 1031.8 518.751C1030.76 525.391 1038.69 530.073 1040.2 536.625C1042.64 547.171 1027.92 555.558 1029.34 566.288C1029.71 569.119 1031.21 571.663 1032.12 574.369C1036.11 586.185 1026.32 609.623 1013.8 610.247H1013.15C1000.62 609.623 990.836 586.185 994.822 574.369C995.733 571.663 997.23 569.117 997.605 566.288Z" fill="#068A1E"/>
<path d="M1012.74 479.902L1011.07 633.066C1011.05 634.293 1012.04 635.3 1013.28 635.313C1014.51 635.326 1015.53 634.342 1015.54 633.114C1015.54 633.101 1015.54 633.079 1015.54 633.066L1013.87 479.902C1013.86 479.592 1013.61 479.345 1013.3 479.349C1012.99 479.351 1012.74 479.598 1012.74 479.902Z" fill="#17962E"/>
<path d="M1029.04 546.112C1021.92 547.087 1016.6 552.686 1014.04 559.09C1013.55 561.499 1010.11 565.78 1012.86 567.46C1017.73 566.937 1012.79 552.128 1029.04 546.112Z" fill="#17962E"/>
<path d="M1029.23 497.599C1019.5 499.008 1014.35 508.469 1012.3 517.16C1011.88 518.706 1014.37 519.257 1014.64 517.664C1015.92 510.364 1018.84 502.201 1026.17 499.021C1026.48 498.678 1030.21 497.897 1029.23 497.599Z" fill="#17962E"/>
<path d="M998.046 532.184C1004.7 533.699 1009.03 539.536 1010.87 545.773C1012.08 547.646 1011.33 552.696 1013.73 553.018C1016.06 551.7 1012.87 547.265 1012.52 545.175C1010.41 539.203 1004.17 531.789 998.046 532.184Z" fill="#17962E"/>
<path d="M998.725 626.535H1035.37C1038.24 626.535 1040.47 629.103 1040.12 632.02L1035.19 674.08C1034.9 676.541 1032.86 678.395 1030.43 678.395H1003.66C1001.24 678.395 999.2 676.543 998.909 674.08L993.97 632.02C993.629 629.103 995.853 626.535 998.725 626.535Z" fill="#E62552"/>
<path d="M990.984 635.806H1041.94C1043.21 635.806 1044.24 634.782 1044.24 633.519V628.049C1044.24 626.785 1043.21 625.762 1041.94 625.762H990.984C989.713 625.762 988.683 626.785 988.683 628.049V633.519C988.683 634.782 989.713 635.806 990.984 635.806Z" fill="#C4204A"/>
<path d="M500.695 164.012C500.026 149.18 487.712 137.36 472.621 137.36C467.525 137.36 462.746 138.709 458.627 141.063C458.116 133.763 451.995 128 444.52 128C437.816 128 432.201 132.634 430.744 138.855C428.956 138.426 427.09 138.2 425.17 138.2C415.063 138.2 406.429 144.468 402.993 153.307C400.977 152.515 398.777 152.077 396.475 152.077C390.951 152.077 386.016 154.589 382.763 158.525C380.957 160.713 382.565 164.01 385.413 164.01H500.695V164.012Z" fill="white"/>
<path d="M372 292.366C372 292.568 372.005 292.77 372.014 292.967H463.51C463.519 292.767 463.524 292.565 463.524 292.366C463.524 283.483 456.278 276.284 447.341 276.284C445.654 276.284 444.028 276.542 442.499 277.018C438.537 268.169 429.614 262 419.238 262C408.467 262 399.259 268.649 395.546 278.039C393.337 276.917 390.836 276.284 388.185 276.284C379.245 276.284 372 283.483 372 292.366Z" fill="white"/>
<path d="M723 304.487C723 304.64 723.002 304.792 723.005 304.945H776.029C774.529 299.806 769.755 296.047 764.099 296.047C762.803 296.047 761.556 296.244 760.382 296.608C757.342 289.817 750.491 285.082 742.53 285.082C731.743 285.08 723 293.769 723 304.487Z" fill="white"/>
<path d="M814.951 232.368C814.951 232.57 814.956 232.769 814.965 232.969H906.461C906.47 232.769 906.475 232.567 906.475 232.368C906.475 223.485 899.229 216.286 890.292 216.286C888.605 216.286 886.979 216.544 885.45 217.02C881.491 208.171 872.565 202 862.189 202C851.418 202 842.21 208.649 838.497 218.041C836.288 216.919 833.788 216.286 831.136 216.286C822.197 216.286 814.951 223.485 814.951 232.368Z" fill="white"/>
<path d="M258.612 249.631C278.724 254.621 313.095 301.305 316.309 336.313C305.276 338.583 292.667 329.842 292.667 329.842L265.346 290.8L258.612 249.631Z" fill="#DE623C"/>
<path d="M239.423 148.644C230.189 133.551 206.033 126.001 197.328 142.85C188.619 159.699 186.255 171.916 164.716 162.61C147.563 155.199 124.546 165.72 117.151 190.689C107.693 222.634 133.655 216.717 123.816 230.989C113.977 245.258 105.913 260.291 128.738 267.53C151.567 274.77 175.081 260.872 180.082 234.115C185.084 207.358 198.992 221.786 207.669 210.369C220.001 194.129 239.423 148.644 239.423 148.644Z" fill="#6AA6EC"/>
<path d="M278.057 650.148L288.826 607.996L262.101 604.34C261.183 624.275 259.685 643.904 259.817 649.22L278.057 650.148Z" fill="#F37A50"/>
<path d="M214.292 604.103H186.39C187.307 610.749 190.967 646.721 190.967 646.721C193.323 652.037 214.116 650.822 214.116 647.832C212.549 641.353 214.164 604.931 214.292 604.103Z" fill="#F37A50"/>
<path d="M259.917 620.576L287.435 624.61L306.517 511.235C302.585 468.21 264.466 376.674 264.466 376.674L221.498 391.623L220.452 431.991L272.193 519.04C265.448 535.881 260.835 590.306 259.917 620.576Z" fill="black"/>
<path d="M238.647 379.709C238.254 377.053 238.122 376.221 235.898 374.891L194.633 363.263L184.81 372.896C175.507 406.454 181.271 453.134 188.609 490.177C177.868 522.239 182.068 588.336 186.393 619.402H215.734C217.438 598.638 216.905 560.118 217.033 541.513C220.832 526.559 224.499 510.614 227.774 493.837C231.966 472.409 237.204 451.641 238.647 432.204C239.958 413.766 240.351 393.998 238.647 379.709Z" fill="black"/>
<path d="M205.393 189.824C200.187 211.503 209.853 232.366 226.991 236.432C244.125 240.494 262.236 226.218 267.442 204.542C272.649 182.867 262.982 162 245.844 157.938C228.71 153.868 210.603 168.148 205.393 189.824Z" fill="#F37A50"/>
<path d="M186.598 244.519C177.023 250.759 136.996 302.504 157.597 345.692C157.873 346.269 158.398 346.186 158.695 346.763C159.737 347.341 177.628 317.422 177.628 317.422L198.93 275.52L186.598 244.519Z" fill="#F37A50"/>
<path d="M207.127 217.021L232.745 231.476C232.745 231.476 235.018 241.782 236.152 245.127C238.492 252.029 229.523 255.043 221.94 250.746C214.357 246.449 209.447 240.703 209.447 240.703L207.127 217.021Z" fill="#F37A50"/>
<path d="M269.944 197.734C264.121 195.826 261.419 186.954 258.975 180.128C246.771 204.512 201.754 201.031 199.851 196.228C195.903 167.819 208.412 147.147 239.168 148.075C281.346 149.345 269.944 197.734 269.944 197.734Z" fill="#1B80F5"/>
<path d="M258.158 208.344C258.711 209.933 260.458 210.773 262.053 210.224C263.652 209.674 264.498 207.938 263.945 206.349C263.392 204.76 261.645 203.92 260.049 204.469C258.45 205.023 257.605 206.755 258.158 208.344Z" fill="black"/>
<path d="M236.037 202.108C236.638 203.828 238.526 204.74 240.257 204.143C241.989 203.546 242.906 201.67 242.305 199.95C241.704 198.229 239.816 197.317 238.085 197.915C236.353 198.512 235.436 200.388 236.037 202.108Z" fill="black"/>
<path d="M266.505 202.338C266.625 202.314 266.745 202.27 266.858 202.206C267.411 201.892 267.599 201.187 267.278 200.641C264.806 196.384 260.245 196.627 260.048 196.639C259.415 196.679 258.93 197.224 258.97 197.857C259.01 198.487 259.555 198.965 260.188 198.929C260.337 198.921 263.539 198.797 265.278 201.788C265.539 202.222 266.036 202.433 266.505 202.338Z" fill="#2C2858"/>
<path d="M252.025 210.228C252.546 212.569 252.859 214.843 253.692 216.539C253.973 217.109 253.74 217.81 253.179 218.116C250.867 219.379 246.651 219 244.162 218.618C243.797 218.562 243.797 218.041 244.158 217.981C247.232 217.471 248.883 216.719 249.681 216.237C250.077 215.998 250.326 215.584 250.366 215.126C250.458 214.074 250.662 211.94 250.955 210.247C251.055 209.662 251.897 209.646 252.025 210.228Z" fill="#DE623C"/>
<path d="M211.482 200.325C214.215 204.809 213.433 210.244 209.742 212.462C206.051 214.685 200.841 212.849 198.111 208.369C195.378 203.885 196.156 198.449 199.851 196.231C203.542 194.009 208.752 195.841 211.482 200.325Z" fill="#F37A50"/>
<path d="M207.008 208.648C207.172 208.593 207.324 208.497 207.452 208.366C209.312 206.474 209.765 204.136 208.671 202.117C207.549 200.051 205.124 198.856 202.9 199.282C202.274 199.402 201.866 200.003 201.986 200.624C202.106 201.245 202.711 201.652 203.336 201.532C204.555 201.297 206.006 202.03 206.639 203.201C207.248 204.324 206.952 205.59 205.801 206.761C205.356 207.215 205.364 207.939 205.821 208.382C206.146 208.7 206.607 208.788 207.008 208.648Z" fill="#DE623C"/>
<path d="M270.84 383.37C270.84 383.37 260.268 395.807 258.484 396.739L249.018 386.468L248.949 386.644L246.705 392.522L244.08 399.387C241.884 399.387 175.87 384.696 175.87 384.696C176.006 378.783 181.601 359.628 190.655 339.239C188.459 321.968 190.571 304.016 189.882 294.06C195.212 267.355 191.409 257.101 186.599 244.517L203.348 239.603L233.495 250.167L235.736 242.944C235.736 242.944 254.637 247.448 258.612 249.63L265.754 279.246L264.207 342.162C264.207 342.162 266.58 367.497 270.84 383.37Z" fill="#3F964F"/>
<path d="M209.011 236.275L197.36 241.261C198.607 255.354 230.345 263.777 230.345 263.777L233.495 250.174L209.011 236.275Z" fill="#0E6A41"/>
<path d="M233.492 250.167L242.839 260.485C242.839 260.485 250.918 252.182 247.997 247.049C245.071 241.916 234.362 238.455 234.362 238.455L233.492 250.167Z" fill="#0E6A41"/>
<path d="M240.744 229.781C240.006 229.685 239.281 229.522 238.571 229.291C233.337 227.575 230.912 222.716 230.812 222.509C230.5 221.872 230.768 221.108 231.409 220.797C232.051 220.49 232.82 220.753 233.133 221.386C233.153 221.426 235.213 225.5 239.405 226.862C242.138 227.75 245.224 227.316 248.583 225.576C249.216 225.249 249.994 225.492 250.322 226.117C250.651 226.746 250.407 227.519 249.777 227.846C246.595 229.498 243.569 230.147 240.744 229.781Z" fill="#DE623C"/>
<path d="M271.564 649.465C274.358 642.174 280.333 641.365 280.333 641.365C291.944 656.757 320.464 647.311 319.518 668.13C276.149 667.863 258.13 668.13 258.13 668.13C258.186 663.351 259.044 652.002 260.046 647.558L262.306 647.956L271.564 649.465Z" fill="#2C2858"/>
<path d="M317.863 673.686H259.797C258.872 673.686 258.122 672.942 258.122 672.022V667.554H319.534V672.022C319.538 672.942 318.785 673.686 317.863 673.686Z" fill="white"/>
<path d="M248.952 386.647L246.707 392.525C244.671 379.005 237.08 322.421 241.365 306.799C245.385 292.128 240.359 276.653 235.493 261.696C234.311 258.04 233.077 254.261 232.022 250.593L233.501 250.171L234.972 249.749C236.014 253.365 237.237 257.12 238.415 260.752C243.417 276.139 248.579 292.049 244.323 307.599C240.623 321.087 246.286 367.536 248.952 386.647Z" fill="#0E6A41"/>
<path d="M219.08 668.332C219.08 668.332 215.597 655.426 215.293 653.769C214.944 651.885 213.922 647.429 213.714 645.143C213.662 644.582 207.686 640.946 203.121 640.954C196.937 640.966 191.302 644.522 191.19 645.195C190.46 649.504 190.436 654.565 189.254 658.759C188.376 661.877 185.987 669.149 185.987 669.149L219.08 668.332Z" fill="#2C2858"/>
<path d="M219.088 667.33C218.279 669.89 208.267 666.935 200.961 666.939C194.829 666.943 186.893 669.301 185.991 668.385C184.46 671.077 185.723 676.652 185.723 676.652C185.723 676.652 192.115 676.979 199.778 676.652C207.445 676.326 216.303 676.807 219.637 675.824C221.741 672.327 219.088 667.33 219.088 667.33Z" fill="white"/>
<path d="M231.9 303.756C231.9 303.756 184.13 351.336 161.79 348.147C158.86 347.728 157.942 347.274 157.153 344.363C154.54 334.734 167.445 319.311 179.605 313.792C193.011 307.703 215.511 298.109 215.511 298.109L231.9 303.756Z" fill="#F37A50"/>
<path d="M241.902 285.878L263.853 269.049C264.33 268.687 264.939 268.539 265.532 268.639L280.486 271.335C280.91 271.406 281.788 273.999 281.443 274.258L266.518 283.17C266.446 283.222 266.362 283.258 266.274 283.266L242.808 287.268C242.303 287.319 241.505 286.181 241.902 285.878Z" fill="#F9CD2D"/>
<path d="M243.035 287.492L263.912 271.659C264.389 271.297 264.998 271.145 265.587 271.245L281.038 273.841C281.467 273.913 281.599 274.455 281.254 274.717L266.569 285.78C266.497 285.836 266.413 285.868 266.325 285.876L243.388 288.369C242.891 288.424 242.639 287.795 243.035 287.492Z" fill="#F9F93A"/>
<path d="M214.935 298.391L227.271 292.255C227.271 292.255 235.09 283.796 237.539 281.272C240.661 280.368 246.741 277.763 247.979 277.851C249.218 277.938 251.314 278.667 251.314 278.667L244.176 284.218C244.176 284.218 247.086 285.552 251.166 283.932C255.25 282.311 262.857 277.337 265.786 279.121C266.72 280.312 266.72 280.312 266.72 280.312C266.72 280.312 269.293 278.333 270.84 279.707C275.626 283.948 244.757 302.226 244.757 302.226L231.9 303.759L214.935 298.391Z" fill="#F37A50"/>
<path d="M266.184 275.06C265.314 275.649 264.236 275.589 263.775 274.92C263.314 274.251 263.647 273.232 264.516 272.642C265.386 272.053 266.464 272.113 266.921 272.782C267.382 273.447 267.053 274.466 266.184 275.06Z" fill="#F9CD2D"/>
<path d="M316.313 336.314C316.313 336.314 288.927 367.431 269.866 371.828C268.732 365.592 267.689 360.817 267.689 360.817L293.676 326.824L316.313 336.314Z" fill="#DE623C"/>
<path d="M266.395 373.539C266.483 373.272 266.627 373.037 266.788 372.814C266.744 372.798 266.695 372.79 266.651 372.774C263.946 371.882 262.275 369.596 262.92 367.669C263.024 367.354 263.193 367.068 263.401 366.813C261.966 365.71 261.245 364.153 261.706 362.775C261.89 362.229 262.243 361.771 262.712 361.417C261.209 360.405 260.435 358.717 260.952 357.176C261.597 355.248 263.994 354.304 266.303 355.065C268.611 355.826 269.962 358.008 269.317 359.935C269.152 360.425 268.876 360.847 268.519 361.198C270.775 362.233 272.09 364.264 271.505 366.008C271.401 366.323 271.232 366.61 271.024 366.864C272.459 367.968 273.18 369.525 272.719 370.902C272.551 371.408 272.234 371.838 271.813 372.185C273.188 373.021 273.914 374.514 273.461 375.868C272.916 377.497 270.892 378.298 268.944 377.652C266.992 377.007 265.85 375.164 266.395 373.539Z" fill="#DE623C"/>
<path d="M387.037 0H252.036C236.105 0 223.195 12.8309 223.195 28.6564V82.6081C223.195 98.4376 236.109 111.265 252.036 111.265H345.151L341.88 171.5C341.628 176.12 347.988 177.681 349.932 173.475L378.632 111.265H387.041C402.972 111.265 415.881 98.4336 415.881 82.6081V28.6564C415.877 12.8309 402.964 0 387.037 0Z" fill="#1B80F5"/>
<path d="M390.713 38.4874H250.37C244.923 38.4874 240.507 34.099 240.507 28.6871C240.507 23.2752 244.923 18.8867 250.37 18.8867H390.713C396.16 18.8867 400.577 23.2752 400.577 28.6871C400.577 34.099 396.16 38.4874 390.713 38.4874Z" fill="white"/>
<path d="M390.713 67.5314H250.37C244.923 67.5314 240.507 63.1429 240.507 57.731C240.507 52.3191 244.923 47.9307 250.37 47.9307H390.713C396.16 47.9307 400.577 52.3191 400.577 57.731C400.577 63.1469 396.16 67.5314 390.713 67.5314Z" fill="white"/>
<path d="M394.264 96.5763H293.362C289.875 96.5763 287.05 93.7687 287.05 90.3042V83.2516C287.05 79.787 289.875 76.9795 293.362 76.9795H394.264C397.751 76.9795 400.576 79.787 400.576 83.2516V90.3042C400.576 93.7687 397.751 96.5763 394.264 96.5763Z" fill="white"/>
<path d="M44.4649 418.86H44.4739L52.3586 418.89L54.1428 437.39L44.9414 442.217L35.1279 437.444L36.7134 418.89L44.4649 418.86Z" fill="#F37A50"/>
<path d="M21.0015 408.395C26.3995 421.797 39.3614 429.245 49.9541 425.033C60.5468 420.821 64.7591 406.543 59.3611 393.141C53.9631 379.742 41.0012 372.291 30.4085 376.503C19.8158 380.716 15.6036 394.993 21.0015 408.395Z" fill="#F37A50"/>
<path d="M54.7535 397.541C55.3791 398.434 56.6168 398.656 57.5157 398.035C58.4146 397.413 58.6382 396.186 58.0103 395.29C57.3847 394.397 56.147 394.177 55.2481 394.799C54.3514 395.418 54.1278 396.648 54.7535 397.541Z" fill="black"/>
<path d="M39.8923 403.567C40.5699 404.534 41.9092 404.772 42.8827 404.101C43.8561 403.428 44.0978 402.097 43.4202 401.13C42.7427 400.163 41.4056 399.923 40.4299 400.596C39.4564 401.269 39.2148 402.6 39.8923 403.567Z" fill="black"/>
<path d="M51.7412 400.688C54.4244 402.788 57.7784 405.324 57.7784 405.324C57.7784 405.324 57.8122 408.538 54.0337 409.931C55.4024 408.699 56.6017 407.059 55.1788 405.165C53.7559 403.271 51.7412 400.688 51.7412 400.688Z" fill="#DE623C"/>
<path d="M35.9828 402.283C35.906 402.283 35.8292 402.275 35.7524 402.257C35.2194 402.131 34.8919 401.599 35.0184 401.072C35.3639 399.629 36.8184 396.898 39.8381 396.882C40.3892 396.886 40.8297 397.317 40.8319 397.86C40.8342 398.403 40.3937 398.845 39.8472 398.848C37.6112 398.859 36.9517 401.5 36.9449 401.527C36.8365 401.978 36.43 402.283 35.9828 402.283Z" fill="#201D40"/>
<path d="M52.6751 393.37C52.5328 393.37 52.3905 393.334 52.2595 393.258C51.8665 393.029 51.7332 392.526 51.9636 392.136C51.9997 392.075 52.867 390.632 54.5068 390.331C55.6247 390.125 56.7834 390.491 57.9443 391.415C58.3012 391.698 58.3576 392.214 58.073 392.567C57.7885 392.921 57.269 392.977 56.9121 392.694C56.1397 392.082 55.4305 391.828 54.8049 391.943C53.915 392.106 53.391 392.957 53.3865 392.966C53.2352 393.224 52.9596 393.37 52.6751 393.37Z" fill="#201D40"/>
<path d="M9.06696 403.08C5.6904 389.811 16.9561 379.436 16.9561 379.436C16.9561 379.436 15.4949 379.29 13.9342 378.628C11.8337 377.737 12.5226 374.613 14.806 374.642C17.5727 374.676 20.868 374.176 23.2914 372.369C38.5571 360.994 50.9679 367.095 50.9679 373.397C50.9679 375.639 64.9349 377.122 59.8509 394.442C60.1513 393.419 54.3355 383.038 51.0312 382.418C47.7133 381.797 50.7105 386.189 43.8015 387.131C36.8316 388.083 31.7069 386.402 27.4495 390.307C19.5399 398.385 27.2868 417.818 27.795 418.861C26.6341 416.467 12.8184 417.815 9.06696 403.08Z" fill="#1B80F5"/>
<path d="M26.4189 405.545C29.398 407.208 30.7012 410.518 29.3325 412.94C27.9638 415.361 24.4382 415.978 21.4614 414.316C18.4823 412.653 17.1791 409.343 18.5478 406.921C19.9142 404.5 23.4399 403.883 26.4189 405.545Z" fill="#F37A50"/>
<path d="M25.9656 412.8C26.0582 412.735 26.1373 412.65 26.1937 412.544C27.0113 411.039 26.8781 409.504 25.8346 408.438C24.7663 407.347 23.0408 407.033 21.7331 407.69C21.3649 407.877 21.2181 408.321 21.4033 408.687C21.5885 409.053 22.038 409.198 22.4061 409.014C23.1221 408.653 24.1565 408.855 24.7618 409.472C25.3423 410.065 25.3829 410.906 24.877 411.838C24.6805 412.199 24.816 412.648 25.1796 412.843C25.4394 412.982 25.742 412.955 25.9656 412.8Z" fill="#DE623C"/>
<path d="M49.2041 416.798C48.0613 416.526 46.8688 416.062 45.6311 415.407C45.3104 415.236 45.1884 414.839 45.36 414.518C45.5317 414.199 45.9315 414.078 46.2544 414.249C48.9941 415.703 51.4491 416.118 53.5541 415.481C56.156 414.693 57.344 412.514 57.3553 412.494C57.5247 412.175 57.9244 412.052 58.2474 412.22C58.5704 412.388 58.6946 412.783 58.5252 413.102C58.4688 413.21 57.0933 415.768 53.9652 416.728C52.4949 417.179 50.9026 417.202 49.2041 416.798Z" fill="#DE623C"/>
<path d="M58.8532 660.896C65.8232 670.451 82.9409 664.587 82.374 677.511C56.3439 677.345 45.5254 677.511 45.5254 677.511C45.5593 674.542 46.0742 667.498 46.675 664.74L58.8532 660.896Z" fill="black"/>
<path d="M17.8034 660.896C24.7733 670.451 41.891 664.587 41.3241 677.511C15.2941 677.345 4.47559 677.511 4.47559 677.511C4.50946 674.542 5.02442 667.498 5.6252 664.74L17.8034 660.896Z" fill="black"/>
<path d="M70.7034 514.808C70.7034 514.808 78.2516 578.261 76.5351 591.876C74.8185 605.491 65.4161 620.74 66.105 665.78C57.6196 667.892 45.3262 665.78 45.3262 665.78C45.3262 665.78 43.5035 614.854 52.4745 592.107C48.8269 570.011 37.123 519.406 37.123 519.406L70.7034 514.808Z" fill="#1B80F5"/>
<path d="M54.8405 516.684C54.8405 516.684 46.3076 585.442 42.1292 598.485C37.9509 611.526 31.6088 621.158 24.0449 665.524C15.3245 665.957 5.40039 666.92 5.40039 666.92C5.40039 666.92 6.5771 610.641 20.1579 597.843C20.6186 575.438 17.9625 517.126 17.9625 517.126L54.8405 516.684Z" fill="#1B80F5"/>
<path d="M13.7384 436.292C13.7384 436.292 30.8064 435.724 35.6081 436.021C45.6271 445.006 54.1441 435.859 54.1441 435.859C59.5308 434.672 72.2556 434.672 72.2556 434.672C73.866 456.032 76.5356 524.337 76.5356 524.337C76.5356 524.337 60.1948 528.594 44.7372 528.704C29.2796 528.605 8.4375 525.048 8.4375 525.048C8.4375 525.048 11.473 495.021 12.1596 483.924C11.936 471.483 13.7384 452.686 13.7384 436.292Z" fill="#3F964F"/>
<path d="M135.937 445.453C135.679 444.164 135.126 443.018 134.385 442.024C128.694 431.635 112.608 435.659 89.3879 439.692C85.5054 440.367 86.8108 435.417 86.1807 425.24C85.7719 418.619 79.5879 409.558 72.5276 410.953C60.887 413.258 73.9054 420.125 68.1144 444.625C65.0202 457.715 51.3784 453.426 53.7951 465.482L59.297 492.925C60.2365 497.618 61.6075 502.036 68.4283 501.46C75.0414 500.899 74.4994 505.746 83.8295 503.901L130.53 494.66C135.286 493.72 138.39 489.124 137.446 484.418C137.055 482.468 136.007 480.827 134.604 479.609C136.951 477.625 138.209 474.505 137.568 471.305C137.177 469.36 136.133 467.719 134.733 466.503C137.089 464.519 138.351 461.397 137.71 458.193C137.245 455.865 135.867 453.944 134.024 452.703C135.668 450.749 136.472 448.13 135.937 445.453Z" fill="#313480"/>
<path d="M106.754 460.098L129.024 455.691C132.053 455.092 134.573 452.926 135.603 450.042C136.028 448.853 135.398 447.549 134.194 447.129C132.992 446.71 131.673 447.34 131.249 448.53C130.763 449.901 129.561 450.926 128.125 451.211L105.32 455.724C103.062 456.171 100.86 454.717 100.41 452.482C99.9629 450.246 101.436 448.065 103.694 447.619L118.93 444.605C120.182 444.358 120.995 443.153 120.746 441.916C120.498 440.68 119.283 439.876 118.031 440.125L102.793 443.142C98.0364 444.082 94.9331 448.676 95.8772 453.382C96.4034 456.005 98.0974 458.085 100.302 459.277C99.0211 461.142 98.461 463.487 98.9375 465.863C99.466 468.496 101.169 470.581 103.382 471.77C102.111 473.628 101.56 475.967 102.034 478.336C102.608 481.204 104.564 483.446 107.073 484.562C106.018 486.339 105.564 488.471 105.998 490.641C106.94 495.347 111.579 498.408 116.335 497.468L130.528 494.658C133.557 494.059 136.08 491.896 137.112 489.012C137.539 487.822 136.909 486.519 135.707 486.099C134.505 485.684 133.184 486.305 132.76 487.495C132.267 488.868 131.066 489.896 129.629 490.179L115.436 492.988C113.176 493.435 110.976 491.981 110.526 489.746C110.079 487.51 111.552 485.329 113.81 484.883L130.648 481.55C133.677 480.951 136.202 478.785 137.229 475.902C137.656 474.71 137.026 473.406 135.824 472.989C134.612 472.56 133.299 473.195 132.877 474.382C132.378 475.778 131.208 476.781 129.749 477.071L111.468 480.688C109.209 481.135 107.005 479.678 106.558 477.443C106.111 475.208 107.583 473.027 109.842 472.58L130.783 468.437C133.812 467.838 136.335 465.675 137.367 462.791C137.794 461.602 137.164 460.298 135.962 459.878C134.756 459.461 133.439 460.085 133.015 461.274C132.516 462.666 131.346 463.671 129.884 463.958L108.372 468.215C106.113 468.662 103.911 467.208 103.461 464.973C103.021 462.731 104.491 460.547 106.754 460.098Z" fill="#6AA6EC"/>
<path d="M62.3996 504.805L47.8589 507.682C45.8443 508.082 43.8861 506.782 43.4864 504.781L34.8812 461.846C34.4792 459.844 35.7869 457.9 37.8015 457.501L52.3422 454.624C54.3568 454.224 56.315 455.524 56.7148 457.526L65.3199 500.461C65.722 502.462 64.4142 504.408 62.3996 504.805Z" fill="#7F99EB"/>
<path d="M74.9983 509.968C71.9063 509.726 68.4733 508.231 66.1266 510.166L61.6592 503.326C68.0283 495.776 80.647 494.677 81.9186 494.744C85.2183 494.915 86.779 494.791 86.971 495.26C87.1652 495.729 87.5537 498.723 82.7452 498.626C76.7103 498.505 79.983 503.77 92.6581 500.965C95.8313 500.262 101.299 502.513 98.9369 504.416C96.335 506.515 89.0647 511.072 74.9983 509.968Z" fill="#F37A50"/>
<path d="M11.5658 495.998C6.92667 497.941 5.22146 512.993 6.6308 514.041C27.5429 520.693 67.0836 509.914 67.0836 509.914L70.0107 502.297C70.013 502.297 38.8448 501.608 11.5658 495.998Z" fill="#F37A50"/>
<path d="M1.29257 452.054C-0.85307 465.674 3.15137 510.451 6.63182 514.042L22.1301 501.908C22.1301 501.908 23.7043 456.554 23.6863 448.847C23.6885 435.506 4.75044 429.812 1.29257 452.054Z" fill="#F37A50"/>
<path d="M11.5658 496C6.92667 497.943 5.22146 512.995 6.6308 514.043C27.5429 520.695 64.8974 510.549 64.8974 510.549L62.2142 499.952C62.2142 499.954 38.8448 501.61 11.5658 496Z" fill="#0E6A41"/>
<path d="M0.946166 451.762C-1.33273 465.684 0.483161 510.902 6.63098 514.044L22.2535 502.197C22.2535 502.197 24.0875 455.943 24.1033 448.088C24.1665 434.489 4.62086 429.029 0.946166 451.762Z" fill="#0E6A41"/>
<path d="M131.652 441.037C131.462 440.833 131.326 440.6 131.214 440.355C131.18 440.387 131.148 440.422 131.112 440.454C129.043 442.346 126.261 442.685 124.896 441.21C124.673 440.968 124.506 440.69 124.384 440.389C122.739 441.089 121.043 440.966 120.068 439.913C119.681 439.496 119.455 438.975 119.367 438.403C117.771 439.208 115.934 439.063 114.843 437.884C113.479 436.41 113.805 433.905 115.568 432.29C117.335 430.674 119.871 430.562 121.237 432.036C121.583 432.409 121.82 432.848 121.953 433.324C123.93 431.883 126.324 431.731 127.557 433.064C127.781 433.306 127.948 433.585 128.07 433.885C129.714 433.185 131.41 433.309 132.386 434.361C132.745 434.749 132.966 435.225 133.066 435.75C134.45 434.971 136.092 435.066 137.052 436.102C138.204 437.348 137.931 439.464 136.44 440.826C134.949 442.189 132.806 442.283 131.652 441.037Z" fill="#F37A50"/>
</svg>
