<svg width="48" height="48" viewBox="0 0 48 48" fill="none" xmlns="http://www.w3.org/2000/svg">
<rect width="48" height="48" rx="24" fill="#E0E0E0"/>
<path d="M34.9199 26.7467L33.4133 24.24C33.0799 23.6933 32.7866 22.64 32.7866 22V19.5067C32.7866 14.6667 28.8533 10.7333 24.0266 10.7333C19.1866 10.7467 15.2533 14.6667 15.2533 19.5067V21.9867C15.2533 22.6267 14.9599 23.68 14.6399 24.2267L13.1333 26.7333C12.5599 27.7067 12.4266 28.8133 12.7866 29.7733C13.1466 30.7467 13.9599 31.52 15.0266 31.8667C16.4666 32.3467 17.9199 32.6933 19.3999 32.9467C19.5466 32.9733 19.6933 32.9867 19.8399 33.0133C20.0266 33.04 20.2266 33.0667 20.4266 33.0933C20.7733 33.1467 21.1199 33.1867 21.4799 33.2133C22.3199 33.2933 23.1733 33.3333 24.0266 33.3333C24.8666 33.3333 25.7066 33.2933 26.5333 33.2133C26.8399 33.1867 27.1466 33.16 27.4399 33.12C27.6799 33.0933 27.9199 33.0667 28.1599 33.0267C28.3066 33.0133 28.4533 32.9867 28.5999 32.96C30.0933 32.72 31.5733 32.3467 33.0133 31.8667C34.0399 31.52 34.8266 30.7467 35.1999 29.76C35.5733 28.76 35.4666 27.6667 34.9199 26.7467ZM24.9999 21.3333C24.9999 21.8933 24.5466 22.3467 23.9866 22.3467C23.4266 22.3467 22.9733 21.8933 22.9733 21.3333V17.2C22.9733 16.64 23.4266 16.1867 23.9866 16.1867C24.5466 16.1867 24.9999 16.64 24.9999 17.2V21.3333Z" fill="#555555"/>
<path d="M27.7736 34.68C27.2136 36.2267 25.7336 37.3333 24.0002 37.3333C22.9469 37.3333 21.9069 36.9067 21.1736 36.1467C20.7469 35.7467 20.4269 35.2133 20.2402 34.6667C20.4136 34.6933 20.5869 34.7067 20.7736 34.7333C21.0802 34.7733 21.4002 34.8133 21.7202 34.84C22.4802 34.9067 23.2536 34.9467 24.0269 34.9467C24.7869 34.9467 25.5469 34.9067 26.2936 34.84C26.5736 34.8133 26.8536 34.8 27.1202 34.76C27.3336 34.7333 27.5469 34.7067 27.7736 34.68Z" fill="#555555"/>
</svg>
