<svg width="18" height="18" viewBox="0 0 18 18" fill="none" xmlns="http://www.w3.org/2000/svg">
<path d="M9 17C13.4183 17 17 13.4183 17 9C17 4.58172 13.4183 1 9 1C4.58172 1 1 4.58172 1 9C1 13.4183 4.58172 17 9 17Z" stroke="black" stroke-width="1.2" stroke-miterlimit="10"/>
<path d="M9 11C10.6569 11 12 9.65685 12 8C12 6.34315 10.6569 5 9 5C7.34315 5 6 6.34315 6 8C6 9.65685 7.34315 11 9 11Z" stroke="black" stroke-width="1.2" stroke-miterlimit="10"/>
<path d="M4 15C4.46932 14.0973 5.18481 13.3392 6.06728 12.8097C6.94975 12.2803 7.96478 12 8.99999 12C10.0352 12 11.0502 12.2802 11.9327 12.8097C12.8152 13.3392 13.5307 14.0973 14 15" stroke="black" stroke-width="1.2" stroke-linecap="round" stroke-linejoin="round"/>
</svg>
