<svg width="14" height="16" viewBox="0 0 14 16" fill="none" xmlns="http://www.w3.org/2000/svg">
<path d="M2.04819 5.94998C2.04728 5.29768 2.17589 4.65165 2.42662 4.04914C2.67734 3.44662 3.04522 2.89952 3.50905 2.43939C3.97288 1.97926 4.52348 1.61519 5.12912 1.36816C5.73476 1.12114 6.38346 0.996045 7.03782 1.0001C9.76831 1.02033 11.9524 3.2827 11.9524 6.01212V6.49998C11.9524 8.96231 12.4692 10.3912 12.9243 11.1721C12.9734 11.2556 12.9995 11.3504 13 11.4471C13.0005 11.5438 12.9754 11.639 12.9273 11.7229C12.8792 11.8069 12.8097 11.8767 12.7258 11.9254C12.642 11.974 12.5467 11.9998 12.4497 12H1.55027C1.45325 11.9998 1.358 11.974 1.27415 11.9253C1.19029 11.8767 1.1208 11.8068 1.07267 11.7229C1.02453 11.6389 0.999472 11.5437 1.00001 11.447C1.00054 11.3503 1.02666 11.2554 1.07572 11.172C1.53114 10.391 2.04819 8.96219 2.04819 6.49998L2.04819 5.94998Z" stroke="black" stroke-width="1.2" stroke-linecap="round" stroke-linejoin="round"/>
<path d="M4 12V12.6C4 13.2365 4.31607 13.847 4.87868 14.2971C5.44129 14.7471 6.20435 15 7 15C7.79565 15 8.55871 14.7471 9.12132 14.2971C9.68393 13.847 10 13.2365 10 12.6V12" stroke="black" stroke-width="1.2" stroke-linecap="round" stroke-linejoin="round"/>
</svg>
