<svg width="24" height="24" viewBox="0 0 24 24" fill="none" xmlns="http://www.w3.org/2000/svg">
<path fill-rule="evenodd" clip-rule="evenodd" d="M12 24C18.6274 24 24 18.6274 24 12C24 5.37258 18.6274 0 12 0C5.37258 0 0 5.37258 0 12C0 18.6274 5.37258 24 12 24ZM12 17.6022C8.90598 17.6022 6.39778 15.094 6.39778 12C6.39778 8.90598 8.90598 6.39778 12 6.39778C15.094 6.39778 17.6022 8.90598 17.6022 12C17.6022 15.094 15.094 17.6022 12 17.6022Z" fill="#0050AD"/>
<path fill-rule="evenodd" clip-rule="evenodd" d="M10.1205 23.8538C4.38589 22.9518 0 17.9881 0 12.0001C0 6.01215 4.38589 1.04853 10.1205 0.146484C13.9932 0.981924 17.0223 5.30123 17.4486 10.6916C16.8593 8.22878 14.6434 6.39793 12 6.39793C8.90598 6.39793 6.39778 8.90613 6.39778 12.0001C6.39778 15.0942 8.90598 17.6024 12 17.6024C14.6434 17.6024 16.8593 15.7715 17.4486 13.3087C17.0223 18.6991 13.9932 23.0184 10.1205 23.8538Z" fill="#72ACEE"/>
<path fill-rule="evenodd" clip-rule="evenodd" d="M9.12243 7.19232C7.49018 8.17138 6.39778 9.95813 6.39778 12C6.39778 14.0419 7.49018 15.8287 9.12243 16.8077C8.06344 18.5671 6.44099 20.1062 4.42105 21.3042C1.72296 19.1038 0 15.7531 0 12C0 8.24692 1.72296 4.89624 4.42105 2.6958C6.44099 3.89389 8.06344 5.43296 9.12243 7.19232Z" fill="#CCE1F9"/>
</svg>
