<svg width="290" height="188" viewBox="0 0 290 188" fill="none" xmlns="http://www.w3.org/2000/svg">
<g filter="url(#filter0_d)">
<rect x="24" y="18" width="242" height="140" rx="12" fill="white"/>
</g>
<g clip-path="url(#clip0)">
<rect x="24" y="18" width="242" height="140" rx="12" fill="url(#paint0_linear)"/>
<g clip-path="url(#clip1)">
<path fill-rule="evenodd" clip-rule="evenodd" d="M181.001 76.3907V71.3282C181.001 67.8388 178.162 65 174.672 65H115.328C111.839 65 109 67.8388 109 71.3282V76.3907H181.001ZM158.36 91.7188H167.642V96.5001H158.36V91.7188ZM109 105.641V80.6097H181.001V105.641C181.001 109.131 178.162 111.969 174.672 111.969H115.328C111.839 111.969 109 109.131 109 105.641ZM122.5 100.719H140.5C141.665 100.719 142.61 99.7748 142.61 98.6099C142.61 97.4449 141.665 96.5005 140.5 96.5005H122.5C121.335 96.5005 120.391 97.4449 120.391 98.6099C120.391 99.7748 121.335 100.719 122.5 100.719ZM122.5 91.7192H140.5C141.665 91.7192 142.61 90.7747 142.61 89.6098C142.61 88.4448 141.665 87.5004 140.5 87.5004H122.5C121.335 87.5004 120.391 88.4448 120.391 89.6098C120.391 90.7747 121.335 91.7192 122.5 91.7192ZM169.751 100.719C170.916 100.719 171.86 99.7748 171.86 98.6099V89.6098C171.86 88.4448 170.916 87.5004 169.751 87.5004H156.25C155.085 87.5004 154.141 88.4448 154.141 89.6098V98.6099C154.141 99.7748 155.085 100.719 156.25 100.719H169.751Z" fill="white"/>
</g>
<path opacity="0.1" d="M492.615 270.204C446.113 399.615 303.507 466.826 174.096 420.324C44.6851 373.822 206.572 289.041 253.074 159.63C299.576 30.2194 213.084 -94.8169 342.495 -48.3149C471.906 -1.81287 539.117 140.793 492.615 270.204Z" fill="url(#paint1_linear)"/>
<path opacity="0.1" d="M149.396 -77.4985C231.662 -30.0024 259.848 75.1903 212.352 157.456C164.856 239.722 127.093 119.265 44.8273 71.769C-37.4384 24.2729 -133.054 67.723 -85.558 -14.5427C-38.0619 -96.8083 67.1308 -124.995 149.396 -77.4985Z" fill="white"/>
</g>
<defs>
<filter id="filter0_d" x="0" y="0" width="290" height="188" filterUnits="userSpaceOnUse" color-interpolation-filters="sRGB">
<feFlood flood-opacity="0" result="BackgroundImageFix"/>
<feColorMatrix in="SourceAlpha" type="matrix" values="0 0 0 0 0 0 0 0 0 0 0 0 0 0 0 0 0 0 127 0"/>
<feOffset dy="6"/>
<feGaussianBlur stdDeviation="12"/>
<feColorMatrix type="matrix" values="0 0 0 0 0.627451 0 0 0 0 0.160784 0 0 0 0 0.996078 0 0 0 0.4 0"/>
<feBlend mode="normal" in2="BackgroundImageFix" result="effect1_dropShadow"/>
<feBlend mode="normal" in="SourceGraphic" in2="effect1_dropShadow" result="shape"/>
</filter>
<linearGradient id="paint0_linear" x1="24" y1="18" x2="58.1102" y2="176.678" gradientUnits="userSpaceOnUse">
<stop stop-color="#BE6AFF"/>
<stop offset="1" stop-color="#A029FE"/>
</linearGradient>
<linearGradient id="paint1_linear" x1="342.495" y1="-48.3149" x2="174.096" y2="420.324" gradientUnits="userSpaceOnUse">
<stop stop-color="white"/>
<stop offset="1" stop-color="white" stop-opacity="0"/>
</linearGradient>
<clipPath id="clip0">
<rect x="24" y="18" width="242" height="140" rx="12" fill="white"/>
</clipPath>
<clipPath id="clip1">
<rect width="72" height="72" fill="white" transform="translate(109 52)"/>
</clipPath>
</defs>
</svg>
