<svg width="220" height="160" viewBox="0 0 220 160" fill="none" xmlns="http://www.w3.org/2000/svg">
<circle cx="153.528" cy="4.70588" r="4.70588" fill="#2EC37C"/>
<circle cx="21.7664" cy="148.236" r="4.70588" fill="#2EC37C"/>
<circle cx="198.235" cy="54.1184" r="4.70588" fill="#2EC37C"/>
<circle cx="191.175" cy="120" r="2.35294" fill="#2EC37C"/>
<circle cx="73.5287" cy="2.35294" r="2.35294" fill="#2EC37C"/>
<circle cx="2.94083" cy="96.4701" r="2.35294" fill="#2EC37C"/>
<circle cx="21.7653" cy="21.1758" r="9.41177" fill="#2EC37C"/>
<circle cx="210" cy="150.588" r="9.41177" fill="#2EC37C"/>
<circle cx="110" cy="80.0003" r="76.4706" fill="#2EC37C" fill-opacity="0.2"/>
<path d="M110.588 30.9805C83.5782 30.9805 61.5684 52.9903 61.5684 80.0001C61.5684 107.01 83.5782 129.02 110.588 129.02C137.598 129.02 159.608 107.01 159.608 80.0001C159.608 52.9903 137.598 30.9805 110.588 30.9805ZM134.019 68.7256L106.225 96.5197C105.539 97.206 104.608 97.5982 103.627 97.5982C102.647 97.5982 101.715 97.206 101.029 96.5197L87.1566 82.6472C85.735 81.2256 85.735 78.8727 87.1566 77.4511C88.5782 76.0295 90.9311 76.0295 92.3527 77.4511L103.627 88.7256L128.823 63.5295C130.245 62.108 132.598 62.108 134.019 63.5295C135.441 64.9511 135.441 67.255 134.019 68.7256Z" fill="#2EC37C"/>
</svg>
