<svg width="290" height="188" viewBox="0 0 290 188" fill="none" xmlns="http://www.w3.org/2000/svg">
<g filter="url(#filter0_d)">
<rect x="24" y="18" width="242" height="140" rx="12" fill="white"/>
</g>
<g clip-path="url(#clip0)">
<rect x="24" y="18" width="242" height="140" rx="12" fill="url(#paint0_linear)"/>
<g clip-path="url(#clip1)">
<path fill-rule="evenodd" clip-rule="evenodd" d="M115.327 62.687H174.672C175.646 62.687 176.558 62.9265 177.383 63.3212L149.474 91.0898C147.006 93.5575 142.993 93.5575 140.525 91.0898L112.616 63.3212C113.441 62.9265 114.353 62.687 115.327 62.687ZM158.53 88L180.366 66.3043C180.761 67.1294 181 68.0413 181 69.0154V106.985C181 107.959 180.761 108.871 180.366 109.696L158.53 88ZM109.633 66.3043C109.239 67.1294 108.999 68.0413 108.999 69.0154V106.985C108.999 107.959 109.239 108.871 109.633 109.696L131.47 88L109.633 66.3043ZM152.457 94.0726L155.547 90.9826L177.383 112.678C176.558 113.073 175.646 113.313 174.672 113.313H115.327C114.353 113.313 113.441 113.073 112.616 112.678L134.453 90.9826L137.543 94.0726C141.654 98.1844 148.345 98.1844 152.457 94.0726Z" fill="white"/>
</g>
<path opacity="0.1" d="M492.615 270.204C446.113 399.615 303.507 466.826 174.096 420.324C44.6851 373.822 206.572 289.041 253.074 159.63C299.576 30.2194 213.084 -94.8169 342.495 -48.3149C471.906 -1.81286 539.117 140.793 492.615 270.204Z" fill="url(#paint1_linear)"/>
<path opacity="0.1" d="M149.396 -77.4985C231.662 -30.0024 259.848 75.1903 212.352 157.456C164.856 239.722 127.093 119.265 44.8272 71.769C-37.4384 24.2729 -133.054 67.723 -85.558 -14.5427C-38.0619 -96.8083 67.1308 -124.995 149.396 -77.4985Z" fill="white"/>
</g>
<defs>
<filter id="filter0_d" x="0" y="0" width="290" height="188" filterUnits="userSpaceOnUse" color-interpolation-filters="sRGB">
<feFlood flood-opacity="0" result="BackgroundImageFix"/>
<feColorMatrix in="SourceAlpha" type="matrix" values="0 0 0 0 0 0 0 0 0 0 0 0 0 0 0 0 0 0 127 0"/>
<feOffset dy="6"/>
<feGaussianBlur stdDeviation="12"/>
<feColorMatrix type="matrix" values="0 0 0 0 0.996078 0 0 0 0 0.372549 0 0 0 0 0.219608 0 0 0 0.4 0"/>
<feBlend mode="normal" in2="BackgroundImageFix" result="effect1_dropShadow"/>
<feBlend mode="normal" in="SourceGraphic" in2="effect1_dropShadow" result="shape"/>
</filter>
<linearGradient id="paint0_linear" x1="24" y1="18" x2="58.1102" y2="176.678" gradientUnits="userSpaceOnUse">
<stop stop-color="#FF6A6A"/>
<stop offset="1" stop-color="#FE5C29"/>
</linearGradient>
<linearGradient id="paint1_linear" x1="342.495" y1="-48.3149" x2="174.096" y2="420.324" gradientUnits="userSpaceOnUse">
<stop stop-color="white"/>
<stop offset="1" stop-color="white" stop-opacity="0"/>
</linearGradient>
<clipPath id="clip0">
<rect x="24" y="18" width="242" height="140" rx="12" fill="white"/>
</clipPath>
<clipPath id="clip1">
<rect width="72" height="72" fill="white" transform="translate(109 52)"/>
</clipPath>
</defs>
</svg>
