<svg width="48" height="48" viewBox="0 0 48 48" fill="none" xmlns="http://www.w3.org/2000/svg">
<g clip-path="url(#clip0_3783_7136)">
<rect width="48" height="48" rx="24" fill="#BDBDBD"/>
<circle cx="24" cy="24" r="24" fill="#E0E0E0"/>
<path d="M24.0003 31C28.6027 31 32.3337 27.269 32.3337 22.6667C32.3337 18.0643 28.6027 14.3333 24.0003 14.3333C19.398 14.3333 15.667 18.0643 15.667 22.6667C15.667 27.269 19.398 31 24.0003 31Z" fill="#868B9A"/>
<path d="M23.9996 35.1667C15.6496 35.1667 8.84961 40.7667 8.84961 47.6667C8.84961 48.1333 9.21628 48.5 9.68294 48.5H38.3163C38.7829 48.5 39.1496 48.1333 39.1496 47.6667C39.1496 40.7667 32.3496 35.1667 23.9996 35.1667Z" fill="#868B9A"/>
</g>
<defs>
<clipPath id="clip0_3783_7136">
<rect width="48" height="48" rx="24" fill="white"/>
</clipPath>
</defs>
</svg>
