<?xml version="1.0" encoding="iso-8859-1"?>
<!-- Generator: Adobe Illustrator 17.1.0, SVG Export Plug-In . SVG Version: 6.00 Build 0)  -->
<!DOCTYPE svg PUBLIC "-//W3C//DTD SVG 1.1//EN" "http://www.w3.org/Graphics/SVG/1.1/DTD/svg11.dtd">
<svg version="1.1" id="Capa_1" xmlns="http://www.w3.org/2000/svg" xmlns:xlink="http://www.w3.org/1999/xlink" x="0px" y="0px"
	 viewBox="0 0 272.823 272.823" style="enable-background:new 0 0 272.823 272.823;" xml:space="preserve">
<path style="fill:#fea629" d="M261.103,115.417l-5.046-0.036c-4.59-0.033-10.384-3.434-12.651-7.426l-24.437-43.03c-3.01-5.3-10.142-9.451-16.236-9.451
	H94.896c-6.052,0-13.362,3.983-16.643,9.068l-28.701,44.476c-2.593,4.02-8.722,8.328-13.382,9.408l-25.152,5.829
	C4.942,125.663,0,131.881,0,138.117v43.845c0,6.47,5.264,11.734,11.734,11.734h18.751c3.976,13.647,16.582,23.652,31.495,23.652
	c14.913,0,27.52-10.005,31.495-23.652h70.868c3.976,13.647,16.583,23.652,31.495,23.652c14.912,0,27.519-10.005,31.495-23.652
	h33.756c6.47,0,11.734-5.264,11.734-11.734v-54.74C272.823,120.76,267.565,115.464,261.103,115.417z M61.98,200.834
	c-9.001,0-16.299-7.299-16.299-16.3c0-9.002,7.297-16.299,16.299-16.299c9.002,0,16.299,7.297,16.299,16.299
	C78.279,193.535,70.982,200.834,61.98,200.834z M141.032,118.439H72.756c-4.288,0-5.967-2.994-3.733-6.653l20.795-34.059
	c2.234-3.659,7.57-6.653,11.857-6.653h39.356V118.439z M195.838,200.834c-9.002,0-16.299-7.299-16.299-16.3
	c0-9.002,7.297-16.299,16.299-16.299c9.001,0,16.299,7.297,16.299,16.299C212.137,193.535,204.84,200.834,195.838,200.834z
	 M219.607,118.439h-59.819V71.074h34.296c4.288,0,9.459,3.088,11.493,6.862l18.128,33.641
	C225.739,115.351,223.895,118.439,219.607,118.439z"/>
<g>
</g>
<g>
</g>
<g>
</g>
<g>
</g>
<g>
</g>
<g>
</g>
<g>
</g>
<g>
</g>
<g>
</g>
<g>
</g>
<g>
</g>
<g>
</g>
<g>
</g>
<g>
</g>
<g>
</g>
</svg>
